<?xml version="1.0" encoding="utf-8"?>
<!-- Generator: $$$/GeneralStr/196=Adobe Illustrator 27.6.0, SVG Export Plug-In . SVG Version: 6.00 Build 0)  -->
<svg version="1.1" id="Ebene_1" xmlns="http://www.w3.org/2000/svg" xmlns:xlink="http://www.w3.org/1999/xlink" x="0px" y="0px"
	 viewBox="0 0 40 6.9" style="enable-background:new 0 0 40 6.9;" xml:space="preserve">
<style type="text/css">
	.st0{fill:#FFFFFF;}
	.st1{fill:#070707;}
	.st2{fill:#25303B;}
</style>
<g>
	<g>
		<g>
			<g>
				<path class="st2" d="M0.8,4.2C0.7,4.2,0.6,4.3,0.5,4.3c-0.1,0-0.2-0.1-0.3-0.1C0.1,4,0.1,3.8,0.1,3.7c0-0.2,0-0.4,0.2-0.5
					C0.3,3.1,0.4,3,0.5,3c0.1,0,0.2,0.1,0.3,0.1C1,3.3,1,3.5,1,3.7C1,3.8,1,4,0.8,4.2z M0.8,3.2C0.7,3.2,0.6,3.1,0.5,3.1
					c-0.1,0-0.2,0-0.2,0.1C0.1,3.3,0.1,3.5,0.1,3.7s0,0.3,0.1,0.4c0.1,0.1,0.2,0.1,0.2,0.1c0.1,0,0.2,0,0.2-0.1
					C0.9,4,0.9,3.8,0.9,3.7S0.9,3.3,0.8,3.2z"/>
				<path class="st2" d="M4.1,4.2C4,4.2,3.9,4.3,3.8,4.3c-0.1,0-0.2-0.1-0.3-0.1C3.4,4,3.4,3.8,3.4,3.7c0-0.2,0-0.4,0.2-0.5
					C3.6,3.1,3.7,3,3.8,3C3.9,3,4,3.1,4.1,3.2c0.1,0.1,0.2,0.3,0.2,0.5C4.3,3.8,4.3,4,4.1,4.2z M4.1,3.2C4,3.2,3.9,3.1,3.8,3.1
					c-0.1,0-0.2,0-0.2,0.1C3.4,3.3,3.4,3.5,3.4,3.7s0,0.3,0.1,0.4c0.1,0.1,0.2,0.1,0.2,0.1c0.1,0,0.2,0,0.2-0.1
					C4.2,4,4.2,3.8,4.2,3.7S4.2,3.3,4.1,3.2z"/>
				<path class="st2" d="M2,4.2C1.9,4.2,1.8,4.3,1.7,4.3c-0.1,0-0.3,0-0.3-0.1C1.3,4.1,1.2,4,1.2,3.9h0.1c0,0.1,0,0.1,0.1,0.2
					c0.1,0.1,0.2,0.1,0.3,0.1C1.8,4.2,1.9,4.2,2,4.2C2,4.1,2,4,2,3.9c0-0.1-0.1-0.2-0.2-0.2l-0.2,0c-0.2,0-0.3-0.1-0.3-0.3
					c0-0.1,0-0.2,0.1-0.2C1.4,3.1,1.6,3,1.7,3C1.8,3,1.9,3.1,2,3.2C2,3.2,2.1,3.3,2.1,3.4H2c0-0.1,0-0.1-0.1-0.2
					C1.9,3.2,1.8,3.1,1.7,3.1c-0.1,0-0.2,0-0.2,0.1c0,0-0.1,0.1-0.1,0.2c0,0.1,0.1,0.2,0.2,0.2l0.2,0c0.2,0,0.3,0.2,0.3,0.3
					C2.1,4,2.1,4.1,2,4.2z"/>
				<path class="st2" d="M2.5,4.3V3.1h0.1L2.5,4.3l0.7-0.1v0.1H2.5z"/>
				<path class="st2" d="M9.6,4.2C9.6,4.2,9.5,4.3,9.3,4.3C9.2,4.3,9.1,4.2,9,4.2C8.9,4,8.9,3.8,8.9,3.7c0-0.2,0-0.4,0.2-0.5
					C9.1,3.1,9.2,3,9.3,3c0.1,0,0.2,0.1,0.3,0.1c0.1,0.1,0.2,0.3,0.2,0.5C9.8,3.8,9.8,4,9.6,4.2z M9.6,3.2C9.5,3.2,9.4,3.1,9.3,3.1
					c-0.1,0-0.2,0-0.2,0.1C9,3.3,9,3.5,9,3.7S9,4,9.1,4.1c0.1,0.1,0.2,0.1,0.2,0.1c0.1,0,0.2,0,0.2-0.1C9.7,4,9.7,3.8,9.7,3.7
					S9.7,3.3,9.6,3.2z"/>
				<path class="st2" d="M5.9,4.3L5.2,3.2v1.1H5.1V3.1h0.1l0.7,1.1V3.1H6L5.9,4.3L5.9,4.3z"/>
				<path class="st2" d="M7.1,4.3L7,3.9H6.4L6.3,4.3H6.2l0.5-1.2h0.1L7.1,4.3L7.1,4.3z M6.7,3.2L6.5,3.9H7L6.7,3.2z"/>
				<path class="st2" d="M10.9,4.3l-0.7-1.1v1.1h-0.1V3.1h0.1L11,4.1V3.1H11L10.9,4.3L10.9,4.3z"/>
				<path class="st2" d="M12.2,4.3l-0.1-0.3h-0.6l-0.1,0.3h-0.1l0.5-1.2h0.1L12.2,4.3L12.2,4.3z M11.8,3.2l-0.3,0.7h0.5L11.8,3.2z"
					/>
				<path class="st2" d="M7.7,3.2v1.1H7.7L7.7,3.2H7.3V3.1h0.8v0.1H7.7z"/>
				<path class="st2" d="M8.4,4.3V3.1h0.1L8.4,4.3L8.4,4.3z"/>
				<path class="st2" d="M12.6,4.3V3.1h0.1L12.6,4.3l0.7-0.1v0.1H12.6z"/>
				<path class="st2" d="M29.9,4.3l-0.1-0.3h-0.6l-0.1,0.3H29l0.5-1.2h0.1L29.9,4.3L29.9,4.3z M29.5,3.2l-0.3,0.7h0.5L29.5,3.2z"/>
				<path class="st2" d="M14.8,4.3l-0.1-0.3h-0.6L14,4.3h-0.1l0.5-1.2h0.1L14.8,4.3L14.8,4.3z M14.4,3.2l-0.3,0.7h0.5L14.4,3.2z"/>
				<path class="st2" d="M15.5,4.3c-0.1,0-0.2,0-0.3-0.1c-0.1-0.1-0.1-0.3-0.1-0.5c0-0.2,0-0.4,0.1-0.5C15.3,3.1,15.4,3,15.5,3
					c0.2,0,0.4,0.2,0.4,0.4h-0.1c0-0.2-0.1-0.3-0.3-0.3c-0.1,0-0.2,0-0.3,0.1c-0.1,0.1-0.1,0.3-0.1,0.4s0,0.3,0.1,0.4
					C15.3,4.2,15.4,4.2,15.5,4.3c0.2-0.1,0.3-0.2,0.3-0.4h0.1C15.9,4.1,15.8,4.3,15.5,4.3z"/>
				<path class="st2" d="M17,4.3l-0.1-0.3h-0.6l-0.1,0.3h-0.1l0.5-1.2h0.1L17,4.3L17,4.3z M16.6,3.2l-0.3,0.7h0.5L16.6,3.2z"/>
				<path class="st2" d="M18.1,4.1c-0.1,0.1-0.2,0.1-0.3,0.1h-0.4V3.1h0.4c0.1,0,0.2,0,0.3,0.1c0.1,0.1,0.1,0.3,0.1,0.5
					C18.2,3.8,18.2,4,18.1,4.1z M18,3.2c-0.1-0.1-0.1-0.1-0.2-0.1h-0.3v1h0.3c0.1,0,0.2,0,0.2-0.1c0.1-0.1,0.1-0.3,0.1-0.4
					S18.1,3.3,18,3.2z"/>
				<path class="st2" d="M18.6,4.3V3.1h0.8v0.1h-0.7v0.4h0.6v0.1h-0.6L18.6,4.3l0.8-0.1v0.1H18.6z"/>
				<path class="st2" d="M20.7,4.3V3.2l-0.4,1.1h-0.1l-0.4-1v1.1h-0.1V3.1h0.1l0.4,1.1l0.4-1.1h0.1L20.7,4.3L20.7,4.3z"/>
				<path class="st2" d="M21.6,3.8v0.5h-0.1L21.6,3.8l-0.5-0.7h0.1L21.6,3.8l0.3-0.7H22L21.6,3.8z"/>
				<path class="st2" d="M23.4,4.2c-0.1,0.1-0.2,0.1-0.3,0.1c-0.1,0-0.2-0.1-0.3-0.1c-0.1-0.1-0.2-0.3-0.2-0.5c0-0.2,0-0.4,0.2-0.5
					C22.9,3.1,23,3,23.1,3c0.1,0,0.2,0.1,0.3,0.1c0.1,0.1,0.2,0.3,0.2,0.5C23.6,3.8,23.5,4,23.4,4.2z M23.3,3.2
					c-0.1-0.1-0.2-0.1-0.2-0.1c-0.1,0-0.2,0-0.2,0.1c-0.1,0.1-0.1,0.3-0.1,0.4s0,0.3,0.1,0.4c0.1,0.1,0.2,0.1,0.2,0.1
					c0.1,0,0.2,0,0.2-0.1c0.1-0.1,0.1-0.3,0.1-0.4S23.5,3.3,23.3,3.2z"/>
				<path class="st2" d="M24,3.2v0.5h0.6v0.1H24v0.6h-0.1L24,3.2l0.7-0.1v0.1H24z"/>
				<path class="st2" d="M25.7,3.2v1.1h-0.1L25.7,3.2h-0.5V3.1H26v0.1H25.7z"/>
				<path class="st2" d="M27.1,4.3V3.7h-0.7v0.6h-0.1V3.1h0.1v0.5h0.7V3.1h0.1L27.1,4.3L27.1,4.3z"/>
				<path class="st2" d="M27.6,4.3V3.1h0.8v0.1h-0.7v0.4h0.6v0.1h-0.6L27.6,4.3l0.8-0.1v0.1H27.6z"/>
				<path class="st2" d="M30.9,3.7l0.2,0.5H31L30.9,3.7l-0.5,0v0.5h-0.1V3.1h0.4c0.3,0,0.4,0.1,0.4,0.3C31.1,3.6,31,3.7,30.9,3.7z
					 M30.7,3.1h-0.3v0.5h0.3c0.2,0,0.3-0.1,0.3-0.3C31,3.2,30.9,3.1,30.7,3.1z"/>
				<path class="st2" d="M31.8,3.2v1.1h-0.1L31.8,3.2h-0.5V3.1h0.8v0.1H31.8z"/>
				<path class="st2" d="M33.1,4.2c-0.1,0.1-0.2,0.1-0.3,0.1c-0.1,0-0.3,0-0.3-0.1c-0.1-0.1-0.1-0.1-0.1-0.2h0.1
					c0,0.1,0,0.1,0.1,0.2c0.1,0.1,0.2,0.1,0.3,0.1C32.9,4.2,33,4.2,33.1,4.2c0-0.1,0-0.2,0-0.2c0-0.1-0.1-0.2-0.2-0.2l-0.2,0
					c-0.2,0-0.3-0.1-0.3-0.3c0-0.1,0-0.2,0.1-0.2C32.6,3.1,32.7,3,32.8,3c0.1,0,0.3,0.1,0.3,0.1c0.1,0.1,0.1,0.1,0.1,0.2h-0.1
					c0-0.1,0-0.1-0.1-0.2c-0.1-0.1-0.2-0.1-0.3-0.1c-0.1,0-0.2,0-0.2,0.1c0,0-0.1,0.1-0.1,0.2c0,0.1,0.1,0.2,0.2,0.2l0.2,0
					c0.2,0,0.3,0.2,0.3,0.3C33.2,4,33.2,4.1,33.1,4.2z"/>
			</g>
			<g>
				<path class="st2" d="M0.8,2.2L0.5,1.6L0.3,1.8v0.3H0.1V1h0.2v0.6L0.8,1H1L0.7,1.4l0.4,0.7H0.8z"/>
				<path class="st2" d="M1.7,2.2C1.4,2.2,1.2,2,1.2,1.7V1h0.2v0.7C1.5,1.9,1.5,2,1.7,2C1.9,2,2,1.9,2,1.7V1h0.2v0.7
					C2.2,2,2,2.2,1.7,2.2z"/>
				<path class="st2" d="M3.2,2.2L2.7,1.3v0.8H2.5V1h0.2l0.5,0.8V1h0.2v1.2H3.2z"/>
				<path class="st2" d="M4.5,2C4.4,2.1,4.3,2.2,4.1,2.2c-0.1,0-0.3,0-0.4-0.1C3.7,2,3.6,1.9,3.6,1.8h0.2c0,0.1,0,0.1,0.1,0.1
					C4,2,4.1,2,4.1,2c0.1,0,0.2,0,0.2-0.1c0,0,0-0.1,0-0.1c0-0.1-0.1-0.1-0.1-0.1c-0.1,0-0.2,0-0.3,0c-0.2,0-0.3-0.1-0.3-0.3
					c0-0.1,0-0.2,0.1-0.2C3.9,1,4,0.9,4.1,0.9c0.1,0,0.3,0,0.3,0.1c0.1,0.1,0.1,0.2,0.1,0.3H4.4c0,0,0-0.1-0.1-0.1
					c0,0-0.1-0.1-0.2-0.1c-0.1,0-0.1,0-0.2,0.1c0,0,0,0.1,0,0.1c0,0.1,0.1,0.1,0.1,0.1c0.1,0,0.2,0,0.3,0c0.2,0,0.3,0.1,0.3,0.3
					C4.6,1.9,4.6,2,4.5,2z"/>
				<path class="st2" d="M5.3,1.2v1H5.1v-1H4.7V1h0.9v0.2H5.3z"/>
				<path class="st2" d="M6.6,2.2V1.6H6.1v0.5H5.9V1h0.2v0.5h0.5V1h0.2v1.2H6.6z"/>
				<path class="st2" d="M9.1,2.2l0-0.1c0,0.1-0.2,0.2-0.3,0.2c-0.1,0-0.3,0-0.4-0.1C8.3,1.9,8.3,1.8,8.3,1.6s0-0.4,0.2-0.5
					C8.5,1,8.7,0.9,8.8,0.9c0.1,0,0.3,0.1,0.4,0.1c0.1,0.1,0.1,0.1,0.1,0.2H9c0,0,0-0.1-0.1-0.1c0,0-0.1-0.1-0.2-0.1
					c-0.1,0-0.1,0-0.2,0.1C8.5,1.3,8.5,1.4,8.5,1.6c0,0.1,0,0.3,0.1,0.3C8.7,2,8.7,2,8.8,2C8.9,2,8.9,2,9,1.9C9,1.8,9.1,1.8,9.1,1.7
					H8.8V1.5h0.5v0.7H9.1z"/>
				<path class="st2" d="M10.4,2c-0.1,0.1-0.2,0.1-0.4,0.1c-0.1,0-0.3,0-0.4-0.1C9.5,2,9.5,1.9,9.5,1.8h0.2c0,0.1,0,0.1,0.1,0.1
					C9.8,2,9.9,2,10,2c0.1,0,0.2,0,0.2-0.1c0,0,0-0.1,0-0.1c0-0.1-0.1-0.1-0.1-0.1c-0.1,0-0.2,0-0.3,0c-0.2,0-0.3-0.1-0.3-0.3
					c0-0.1,0-0.2,0.1-0.2C9.7,1,9.8,0.9,10,0.9c0.1,0,0.3,0,0.3,0.1c0.1,0.1,0.1,0.2,0.1,0.3h-0.2c0,0,0-0.1-0.1-0.1
					c0,0-0.1-0.1-0.2-0.1c-0.1,0-0.1,0-0.2,0.1c0,0,0,0.1,0,0.1c0,0.1,0.1,0.1,0.1,0.1c0.1,0,0.2,0,0.3,0c0.2,0,0.3,0.1,0.3,0.3
					C10.5,1.9,10.4,2,10.4,2z"/>
				<path class="st2" d="M11.5,2.2l-0.3-0.6l-0.2,0.2v0.3h-0.2V1h0.2v0.6L11.4,1h0.3l-0.4,0.5l0.4,0.7H11.5z"/>
				<path class="st2" d="M12.7,2c-0.1,0.1-0.2,0.1-0.3,0.1c-0.1,0-0.3,0-0.3-0.1c-0.1-0.1-0.2-0.3-0.2-0.5s0-0.4,0.2-0.5
					c0.1-0.1,0.2-0.1,0.3-0.1c0.1,0,0.3,0,0.3,0.1c0.1,0.1,0.2,0.3,0.2,0.5S12.8,1.9,12.7,2z M12.5,1.2c0-0.1-0.1-0.1-0.2-0.1
					c-0.1,0-0.1,0-0.2,0.1C12,1.3,12,1.4,12,1.6c0,0.1,0,0.3,0.1,0.3c0,0.1,0.1,0.1,0.2,0.1c0.1,0,0.1,0,0.2-0.1
					c0.1-0.1,0.1-0.2,0.1-0.3C12.6,1.4,12.6,1.3,12.5,1.2z"/>
				<path class="st2" d="M13.1,2.2V1h0.2v1h0.6v0.2H13.1z"/>
				<path class="st2" d="M14.1,2.2V1h0.9v0.2h-0.6v0.3h0.6v0.2h-0.6V2h0.6v0.2H14.1z"/>
				<path class="st2" d="M15.9,2.2l-0.5-0.8v0.8h-0.2V1h0.2l0.5,0.8V1h0.2v1.2H15.9z"/>
				<path class="st2" d="M18.6,2c-0.1,0.1-0.2,0.1-0.3,0.1c-0.1,0-0.3,0-0.3-0.1c-0.1-0.1-0.2-0.3-0.2-0.5s0-0.4,0.2-0.5
					C18,1,18.2,0.9,18.3,0.9c0.1,0,0.3,0,0.3,0.1c0.1,0.1,0.2,0.3,0.2,0.5S18.8,1.9,18.6,2z M18.5,1.2c0-0.1-0.1-0.1-0.2-0.1
					c-0.1,0-0.1,0-0.2,0.1C18,1.3,18,1.4,18,1.6c0,0.1,0,0.3,0.1,0.3c0,0.1,0.1,0.1,0.2,0.1c0.1,0,0.1,0,0.2-0.1
					c0.1-0.1,0.1-0.2,0.1-0.3C18.6,1.4,18.6,1.3,18.5,1.2z"/>
				<path class="st2" d="M19.8,2c-0.1,0.1-0.2,0.1-0.4,0.1c-0.1,0-0.3,0-0.4-0.1C19,2,19,1.9,19,1.8h0.2c0,0.1,0,0.1,0.1,0.1
					C19.3,2,19.4,2,19.5,2c0.1,0,0.2,0,0.2-0.1c0,0,0-0.1,0-0.1c0-0.1-0.1-0.1-0.1-0.1c-0.1,0-0.2,0-0.3,0c-0.2,0-0.3-0.1-0.3-0.3
					c0-0.1,0-0.2,0.1-0.2c0.1-0.1,0.2-0.1,0.4-0.1c0.1,0,0.3,0,0.3,0.1c0.1,0.1,0.1,0.2,0.1,0.3h-0.2c0,0,0-0.1-0.1-0.1
					c0,0-0.1-0.1-0.2-0.1c-0.1,0-0.1,0-0.2,0.1c0,0,0,0.1,0,0.1c0,0.1,0.1,0.1,0.1,0.1c0.1,0,0.2,0,0.3,0c0.2,0,0.3,0.1,0.3,0.3
					C19.9,1.9,19.9,2,19.8,2z"/>
				<path class="st2" d="M20.2,2.2V1h0.2v1H21v0.2H20.2z"/>
				<path class="st2" d="M22,2c-0.1,0.1-0.2,0.1-0.3,0.1c-0.1,0-0.3,0-0.3-0.1c-0.1-0.1-0.2-0.3-0.2-0.5s0-0.4,0.2-0.5
					c0.1-0.1,0.2-0.1,0.3-0.1c0.1,0,0.3,0,0.3,0.1c0.1,0.1,0.2,0.3,0.2,0.5S22.1,1.9,22,2z M21.8,1.2c0-0.1-0.1-0.1-0.2-0.1
					c-0.1,0-0.1,0-0.2,0.1c-0.1,0.1-0.1,0.2-0.1,0.3c0,0.1,0,0.3,0.1,0.3c0,0.1,0.1,0.1,0.2,0.1c0.1,0,0.1,0,0.2-0.1
					c0.1-0.1,0.1-0.2,0.1-0.3C21.9,1.4,21.9,1.3,21.8,1.2z"/>
				<path class="st2" d="M7.9,1.1C7.9,1.1,7.9,1,7.9,1.1l0-0.2l-0.1,0L7.8,1c-0.1,0-0.1,0-0.2,0c-0.1,0-0.3,0-0.3,0.1
					C7.1,1.2,7.1,1.4,7.1,1.6s0,0.4,0.2,0.5c0,0,0,0,0,0L7.2,2.2l0.1,0l0.1-0.1c0.1,0,0.1,0,0.2,0c0.1,0,0.3,0,0.3-0.1
					C8,1.9,8.1,1.8,8.1,1.6S8,1.2,7.9,1.1z M7.3,1.6c0-0.1,0-0.3,0.1-0.3c0-0.1,0.1-0.1,0.2-0.1c0,0,0.1,0,0.1,0L7.4,1.9
					C7.3,1.8,7.3,1.7,7.3,1.6z M7.8,1.9C7.7,1.9,7.6,2,7.6,2c0,0-0.1,0-0.1,0l0.3-0.7c0.1,0.1,0.1,0.2,0.1,0.3
					C7.8,1.7,7.8,1.8,7.8,1.9z"/>
				<rect x="16.9" y="1" class="st2" width="0.2" height="1.2"/>
			</g>
		</g>
	</g>
	<rect x="38.7" y="0" class="st2" width="1.2" height="6.3"/>
</g>
</svg>
