<?xml version="1.0" encoding="utf-8"?>
<!-- Generator: $$$/GeneralStr/196=Adobe Illustrator 27.6.0, SVG Export Plug-In . SVG Version: 6.00 Build 0)  -->
<svg version="1.1" id="Ebene_1" xmlns="http://www.w3.org/2000/svg" xmlns:xlink="http://www.w3.org/1999/xlink" x="0px" y="0px"
	 viewBox="0 0 40 9.3" style="enable-background:new 0 0 40 9.3;" xml:space="preserve">
<style type="text/css">
	.st0{fill:#FFFFFF;}
	.st1{fill:#070707;}
	.st2{fill:#25303B;}
</style>
<g>
	<path d="M16.4,1.4c0.1-0.2,0.1-0.4,0.1-0.7c0-0.3,0-0.3,0.3-0.3c0.2,0,0.2,0,0.3,0.2c0,0.3,0.1,0.7,0.1,1c0,0.2,0,0.3,0.1,0.5
		c0,0.1,0,0.1-0.1,0.1c0,0-0.1,0-0.1,0c-0.1,0-0.2,0-0.2-0.2c0-0.3-0.1-0.7,0-1c-0.1,0.2-0.1,0.4-0.1,0.7c0,0.1-0.1,0.3-0.1,0.4
		c0,0.1,0,0.1-0.1,0.1c-0.2,0-0.2,0-0.3-0.2c-0.1-0.3-0.1-0.5-0.2-0.8c0,0,0,0.1,0,0.1c0,0.2,0,0.5,0,0.7c0,0,0,0.1,0,0.1
		c0,0,0,0.1-0.1,0.1c-0.1,0-0.2,0-0.2,0c-0.1,0-0.1,0-0.1-0.1c0-0.3,0.1-0.6,0.1-0.9c0-0.3,0-0.5,0.1-0.8c0-0.1,0-0.1,0.1-0.1
		c0.1,0,0.2,0,0.3,0c0.1,0,0.1,0,0.1,0.1C16.3,0.9,16.4,1.1,16.4,1.4z"/>
	<path d="M24.6,1.5c0-0.3,0.1-0.6,0.1-0.9c0-0.1,0-0.1,0.1-0.1c0.1,0,0.2,0,0.3,0c0.1,0,0.1,0,0.1,0.1c0,0.2,0,0.4,0.1,0.6
		c0,0.3,0.1,0.7,0.1,1c0,0.1,0,0.1-0.1,0.1c0,0-0.1,0-0.1,0c-0.1,0-0.2,0-0.2-0.2c0-0.3,0-0.6-0.1-0.9c0,0.2-0.1,0.4-0.1,0.6
		c0,0.1-0.1,0.3-0.1,0.4c0,0.1,0,0.1-0.1,0.1c0,0,0,0,0,0c-0.2,0-0.2,0-0.2-0.2c-0.1-0.3-0.1-0.6-0.1-0.9c0,0.1,0,0.1,0,0.2
		c0,0.2,0,0.4,0,0.5c0,0.1,0,0.2,0,0.3c0,0.1,0,0.1-0.1,0.1c-0.1,0-0.1,0-0.2,0c-0.1,0-0.1,0-0.1-0.1c0-0.2,0-0.4,0.1-0.6
		c0-0.3,0.1-0.7,0.1-1c0-0.1,0-0.1,0.1-0.1c0.1,0,0.2,0,0.3,0c0.1,0,0.1,0,0.1,0.1C24.5,0.9,24.6,1.2,24.6,1.5
		C24.6,1.4,24.6,1.4,24.6,1.5z"/>
	<path d="M10.3,1.4c0,0.2,0,0.3,0,0.5c0,0.1,0,0.2,0,0.3c0,0.1,0,0.1-0.1,0.1c-0.4,0-0.3,0-0.3-0.3c0-0.5,0-1,0-1.4
		c0-0.1,0-0.1,0.1-0.1c0.3,0,0.2,0,0.3,0.2c0.1,0.2,0.2,0.5,0.3,0.7c0,0,0,0,0-0.1c0-0.2,0-0.5,0-0.7c0-0.1,0-0.1,0.1-0.1
		c0.1,0,0.1,0,0.2,0c0.1,0,0.1,0,0.1,0.1c0,0.5,0,1.1,0,1.6c0,0.1,0,0.1-0.1,0.1c-0.3,0-0.2,0-0.3-0.2C10.5,1.9,10.4,1.7,10.3,1.4z"
		/>
	<path d="M8.7,1.6c0,0.2,0,0.4,0,0.6c0,0.1,0,0.1-0.1,0.1c-0.3,0-0.3,0-0.3-0.3c0-0.5,0-1,0-1.5c0-0.1,0-0.1,0.1-0.1
		c0.2,0,0.4,0,0.6,0C9.2,0.6,9.3,0.7,9.3,1c0,0.2,0,0.4-0.2,0.5c-0.1,0,0,0.1,0,0.1C9.2,1.8,9.3,2,9.4,2.2c0,0.1,0,0.1-0.1,0.1
		C9,2.4,9,2.4,8.9,2.1C8.8,1.9,8.8,1.8,8.7,1.6C8.7,1.6,8.7,1.6,8.7,1.6z M9,1c0-0.1-0.1-0.2-0.2-0.2c-0.1,0-0.1,0-0.1,0.1
		c0,0.1,0,0.2,0,0.3c0,0.1,0,0.1,0.1,0.1C8.9,1.3,9,1.2,9,1z"/>
	<path d="M23.3,1.3c0,0.2,0,0.4,0,0.6c0,0.2-0.1,0.4-0.4,0.5c-0.1,0-0.3,0-0.4,0c-0.2-0.1-0.4-0.2-0.4-0.5c0-0.4,0-0.9,0-1.3
		c0-0.1,0-0.1,0.1-0.1c0.1,0,0.1,0,0.2,0c0.1,0,0.1,0,0.1,0.1c0,0.4,0,0.8,0,1.1c0,0.1,0,0.1,0,0.2C22.6,2,22.7,2,22.7,2
		c0.1,0,0.1,0,0.1-0.1c0-0.1,0-0.1,0-0.2c0-0.4,0-0.8,0-1.1c0-0.1,0-0.1,0.1-0.1c0.3,0,0.3,0,0.3,0.3C23.3,0.9,23.3,1.1,23.3,1.3
		C23.3,1.3,23.3,1.3,23.3,1.3z"/>
	<path d="M18.9,1.3c0,0.2,0,0.4,0,0.6c0,0.3-0.1,0.4-0.4,0.5c-0.1,0-0.2,0-0.3,0c-0.3,0-0.4-0.2-0.4-0.5c0-0.4,0-0.9,0-1.3
		c0-0.1,0-0.1,0.1-0.1c0.4,0,0.3-0.1,0.3,0.3c0,0.3,0,0.6,0,1c0,0.1,0,0.1,0,0.2C18.2,2,18.3,2,18.3,2c0.1,0,0.1,0,0.1-0.1
		c0,0,0-0.1,0-0.1c0-0.4,0-0.8,0-1.2c0-0.1,0-0.1,0.1-0.1c0.3,0,0.3,0,0.3,0.3C18.9,0.9,18.9,1.1,18.9,1.3z"/>
	<path d="M2.1,1.2C2.1,1,2.2,0.9,2.2,0.7c0.1-0.2,0.1-0.2,0.3-0.2c0.2,0,0.2,0,0.1,0.2C2.6,0.9,2.5,1.1,2.4,1.3c0,0.1,0,0.1,0,0.2
		C2.5,1.7,2.6,2,2.7,2.3c0,0.1,0,0.1-0.1,0.1c-0.3,0-0.3,0.1-0.4-0.3C2.2,2,2.2,1.8,2.1,1.7c0,0,0-0.1-0.1-0.1c0,0.1,0,0.2,0,0.3
		C2,2,2,2.2,2,2.3c0,0.1,0,0.1-0.1,0.1c-0.4,0-0.3,0.1-0.3-0.3c0-0.5,0-1,0-1.5c0-0.1,0-0.1,0.1-0.1C2,0.5,2,0.5,2,0.8
		C2,0.9,2,1,2.1,1.2C2,1.2,2.1,1.2,2.1,1.2z"/>
	<path d="M12.2,0.5c0.2,0,0.2,0,0.2,0.2c0.1,0.5,0.2,1,0.4,1.5c0,0.1,0,0.1-0.1,0.1c-0.1,0-0.2,0-0.3,0c-0.1,0,0-0.2-0.1-0.2
		c0,0,0,0,0,0c-0.1-0.1-0.2,0-0.3,0C12,2,12,2.1,12,2.1c0,0.1,0,0.1,0,0.2c0,0.1,0,0.1-0.1,0.1c-0.1,0-0.1,0-0.2,0
		c-0.1,0-0.1,0-0.1-0.1c0.1-0.5,0.2-1,0.4-1.5c0,0,0,0,0-0.1C12,0.5,11.9,0.5,12.2,0.5z M12.2,1.1C12.2,1.1,12.2,1.1,12.2,1.1
		c0,0,0,0.1,0,0.1c0,0.1,0,0.3-0.1,0.4c0,0.1,0.1,0.1,0.1,0.1c0.1,0,0.1,0,0.1-0.1C12.2,1.5,12.2,1.3,12.2,1.1z"/>
	<path d="M20.8,1.4c0-0.3,0-0.5,0-0.8c0-0.1,0-0.1,0.1-0.1c0.2,0,0.4,0,0.5,0c0.1,0,0.1,0,0.1,0.1c0,0.3,0,0.3-0.3,0.3
		c-0.1,0-0.1,0-0.1,0.1c0,0.1,0,0.1,0,0.2c0,0.1,0,0.1,0.1,0.1c0.3,0,0.2,0,0.2,0.2c0,0.1,0,0.1-0.1,0.1c-0.2,0-0.2,0-0.2,0.2
		c0,0.2,0,0.2,0.2,0.2c0.2,0,0.2,0,0.2,0.2c0,0.2,0,0.2-0.2,0.2c-0.2,0-0.3,0-0.5,0c-0.1,0-0.1,0-0.1-0.1c0-0.1,0-0.3,0-0.4
		C20.8,1.7,20.8,1.6,20.8,1.4C20.8,1.4,20.8,1.4,20.8,1.4z"/>
	<path d="M7.3,0.5c0.1,0,0.2,0,0.3,0c0.1,0,0.1,0,0.1,0.1c0,0.3,0,0.3-0.3,0.3c-0.1,0-0.1,0-0.1,0.1c0,0.1,0,0.1,0,0.2
		c0,0.1,0,0.1,0.1,0.1c0.2,0,0.2,0,0.2,0.2c0,0.1,0,0.1-0.1,0.1c-0.2,0-0.2,0-0.2,0.2C7.4,2,7.3,2,7.6,2c0.2,0,0.2,0,0.2,0.2
		c0,0.3,0,0.2-0.2,0.2c-0.1,0-0.3,0-0.4,0C7,2.4,7,2.3,7,2.3c0-0.6,0-1.1,0-1.7c0-0.1,0-0.1,0.1-0.1C7.2,0.5,7.3,0.5,7.3,0.5z"/>
	<path d="M6.4,0.8c0,0,0,0.1,0,0.1c0,0-0.1,0-0.1-0.1c0,0-0.1,0-0.1,0C6,0.8,5.9,0.9,5.9,1C5.9,1.1,6,1.2,6,1.2
		c0.1,0.1,0.1,0.1,0.2,0.2c0.2,0.1,0.2,0.3,0.2,0.6C6.4,2.3,6.2,2.4,5.8,2.4c0,0-0.1,0-0.1,0c-0.1,0-0.1-0.1-0.1-0.2
		c0-0.1,0-0.1,0-0.2c0-0.1,0-0.1,0.1,0C5.7,2,5.8,2,5.9,2C6,2,6,2,6.1,1.9c0-0.1,0-0.2-0.1-0.2C5.9,1.6,5.9,1.6,5.8,1.5
		C5.5,1.3,5.5,1,5.6,0.7c0.2-0.3,0.5-0.3,0.7-0.2c0,0,0.1,0,0,0.1C6.4,0.7,6.4,0.7,6.4,0.8z"/>
	<path d="M0.3,2.1c0-0.2,0-0.2,0.2-0.1c0.1,0,0.1,0,0.2,0c0.1,0,0.1,0,0.2-0.1c0-0.1,0-0.1,0-0.2C0.6,1.6,0.5,1.6,0.4,1.5
		C0.2,1.2,0.2,0.9,0.3,0.7C0.5,0.4,0.8,0.4,1,0.5c0,0,0.1,0.1,0.1,0.1c0,0.1,0,0.2,0,0.2c0,0.1,0,0.1-0.1,0c0,0-0.1,0-0.1-0.1
		c-0.1,0-0.2,0-0.2,0c0,0.1,0,0.2,0,0.2c0.1,0.1,0.1,0.1,0.2,0.2C1,1.4,1.2,1.6,1.2,1.7c0,0.2,0,0.4-0.2,0.5c-0.2,0.1-0.4,0.1-0.6,0
		c0,0-0.1-0.1-0.1-0.1C0.3,2.2,0.3,2.1,0.3,2.1z"/>
	<path d="M5,0.8c0,0,0,0.1,0,0.1c0,0-0.1,0-0.1-0.1c-0.1,0-0.2,0-0.3,0c-0.1,0.1,0,0.2,0,0.3c0.1,0.1,0.2,0.2,0.3,0.2
		C5.1,1.5,5.2,1.7,5.1,2C5,2.2,4.9,2.3,4.7,2.4c-0.1,0-0.3,0-0.4,0c-0.1,0-0.1-0.1-0.1-0.1c0-0.1,0-0.1,0-0.2c0-0.1,0-0.1,0.1-0.1
		C4.4,2,4.5,2,4.6,2c0.1,0,0.1,0,0.2-0.1c0-0.1,0-0.1,0-0.2C4.6,1.6,4.5,1.6,4.4,1.5C4.2,1.3,4.1,1,4.3,0.7C4.4,0.5,4.7,0.4,5,0.5
		c0,0,0,0,0,0.1C5,0.7,5,0.7,5,0.8z"/>
	<path d="M14,0.8c0,0.2,0,0.2-0.1,0.1c-0.1-0.1-0.2,0-0.3,0c-0.1,0.1,0,0.2,0.1,0.3c0,0,0.1,0.1,0.1,0.1c0.1,0.1,0.1,0.1,0.2,0.2
		c0.2,0.2,0.2,0.7-0.1,0.9c-0.2,0.1-0.4,0.1-0.6,0c0,0-0.1-0.1-0.1-0.1c0-0.1,0-0.2,0-0.2c0-0.1,0-0.1,0.1,0C13.4,2,13.5,2,13.6,2
		c0.1,0,0.1,0,0.2-0.1c0-0.1,0-0.2,0-0.2c-0.1-0.1-0.2-0.1-0.3-0.2c-0.3-0.2-0.3-0.6-0.1-0.8c0.1-0.2,0.5-0.2,0.7-0.1c0,0,0,0,0,0.1
		C14,0.7,14,0.7,14,0.8z"/>
	<path d="M20.2,0.7c0,0.1,0,0.1,0,0.1c0,0,0,0,0,0.1c0,0,0,0-0.1,0c0,0-0.1-0.1-0.1-0.1c-0.1,0-0.2,0-0.2,0.1c-0.1,0.1,0,0.2,0,0.2
		c0.1,0.1,0.2,0.2,0.3,0.2c0.2,0.2,0.3,0.4,0.2,0.6c-0.1,0.3-0.5,0.4-0.8,0.3c0,0-0.1-0.1-0.1-0.1c0-0.1,0-0.2,0-0.2
		c0-0.1,0-0.1,0.1,0C19.6,2,19.7,2,19.7,2c0.1,0,0.2,0,0.2-0.1c0-0.1,0-0.2-0.1-0.2c-0.1-0.1-0.2-0.2-0.3-0.2
		c-0.2-0.2-0.2-0.6-0.1-0.8c0.2-0.2,0.5-0.2,0.7-0.1C20.3,0.6,20.2,0.7,20.2,0.7z"/>
	<path d="M37.3,4.6c-1.1,0-2.1-0.9-2-2.1c0-1.1,0.9-2.1,2.2-2c1.1,0,2,1,2,2.1C39.3,3.7,38.4,4.6,37.3,4.6z M35.3,2.6
		c0,1,0.8,2,2.1,2c1,0,1.9-0.9,1.9-2c0-1.1-0.9-2-2.1-2C36.2,0.6,35.3,1.5,35.3,2.6z"/>
	<path d="M3.7,1.4c0,0.3,0,0.5,0,0.8c0,0.1,0,0.1-0.1,0.1c-0.1,0-0.1,0-0.2,0c-0.1,0-0.1,0-0.1-0.1c0-0.6,0-1.1,0-1.7
		c0-0.1,0-0.1,0.1-0.1c0,0,0,0,0,0c0.3,0,0.3,0,0.3,0.3C3.7,1,3.7,1.2,3.7,1.4C3.7,1.4,3.7,1.4,3.7,1.4z"/>
	<path d="M39,5.1c0.2,0,0.3,0,0.5,0.1c0.2,0.1,0.3,0.3,0.3,0.6c0,0.2-0.2,0.4-0.4,0.4c-0.2,0-0.4,0-0.6,0c0,0-0.1,0,0-0.1
		c0.1-0.2,0.1-0.3,0.1-0.5c0-0.1,0-0.1,0-0.2c0-0.1,0-0.1-0.1-0.2c0-0.1,0-0.1,0-0.1C38.8,5.1,38.9,5.1,39,5.1z M39,5.6
		c0,0.1,0,0.2,0,0.3c0,0,0,0.1,0,0.1c0.1,0.1,0.4,0,0.4-0.1c0.1-0.2,0.1-0.3,0-0.5c-0.1-0.2-0.2-0.2-0.4-0.2c-0.1,0-0.1,0-0.1,0.1
		C39,5.3,39,5.4,39,5.6z"/>
	<path d="M36.1,5.5c0-0.1,0-0.3-0.1-0.4c0,0,0-0.1,0-0.1c0.1,0,0.1,0,0.2,0c0.1,0,0.1,0,0,0.1c-0.1,0.2-0.1,0.5,0,0.7
		c0,0.1,0.2,0.2,0.3,0.2c0.2,0,0.2-0.1,0.2-0.3c0-0.1,0-0.3,0-0.4c0-0.1,0-0.1-0.1-0.2c0,0,0-0.1,0-0.1c0.1,0,0.2,0,0.2,0
		c0.1,0,0.1,0,0,0.1C37,5.2,37,5.3,37,5.4c0,0.2,0,0.3,0,0.5C37,5.9,37,6,37,6c0,0,0,0.1,0,0.1c-0.1,0-0.2,0-0.2-0.1
		c0,0-0.1,0-0.1,0c-0.1,0.1-0.3,0.1-0.4,0c-0.1,0-0.2-0.2-0.2-0.3C36.1,5.7,36.1,5.6,36.1,5.5z"/>
	<path d="M37.6,5.4c0,0.2,0,0.3,0,0.5c0,0.1,0,0.1,0.1,0.1c0,0,0,0,0,0c0,0,0,0-0.1,0c-0.1,0-0.1,0-0.2,0c0,0-0.1,0,0-0.1
		c0.1-0.1,0.1-0.2,0.1-0.2c0-0.2,0-0.4,0-0.6c0,0,0-0.1,0-0.1c0,0,0.1,0,0.1,0c0.2,0.2,0.3,0.4,0.5,0.6c0,0,0.1,0.1,0.1,0.1
		c0.1,0,0-0.1,0-0.1c0-0.1,0-0.2,0-0.2c0-0.1,0-0.2-0.1-0.3c0,0,0,0,0-0.1c0,0,0,0,0.1,0c0.1,0,0.1,0,0.2,0c0.1,0,0.1,0,0,0.1
		c-0.1,0.1-0.1,0.2-0.1,0.3c0,0.2,0,0.4,0,0.6c0,0,0,0.1,0,0.1c0,0-0.1,0-0.1,0C38,5.8,37.8,5.6,37.6,5.4
		C37.6,5.4,37.6,5.4,37.6,5.4z"/>
	<path d="M35.3,6.1c-0.1,0-0.3,0-0.4,0c0,0,0,0-0.1,0c0,0,0,0,0-0.1C35,5.9,35,5.9,35,5.8c0-0.2,0-0.5,0-0.7c0-0.1,0-0.1-0.1-0.2
		c0,0,0,0,0-0.1c0,0,0,0,0.1,0c0.1,0,0.2,0,0.3,0c0,0,0,0,0.1,0c0,0,0,0,0,0.1c-0.1,0.1-0.1,0.2-0.1,0.3c0,0.2,0,0.5,0,0.7
		c0,0.1,0,0.1,0.1,0.1c0.2,0,0.4,0,0.5-0.1c0,0,0,0,0.1,0c0,0,0,0,0,0.1c0,0.1,0,0.1,0,0.2c0,0-0.1,0.1-0.1,0
		C35.6,6.1,35.4,6.1,35.3,6.1z"/>
	<path d="M19,4.7c0,0.1,0,0.2,0,0.2c0,0,0,0.1-0.1,0.1c0,0-0.1,0-0.1-0.1c0-0.1,0-0.1,0-0.2c0,0.1,0,0.1-0.1,0.2c0,0,0,0.1-0.1,0.1
		c-0.1,0-0.1-0.1-0.1-0.1c0-0.1,0-0.3,0-0.4c0,0,0-0.1,0.1-0.1c0.1,0,0.1,0,0.1,0.1c0,0,0,0.1,0,0c0,0,0,0,0,0
		c0-0.1,0.1-0.1,0.1-0.1c0.1,0,0.1,0.1,0.1,0.1c0,0.2,0,0.3,0,0.5c0,0,0,0.1,0,0.1C19.1,5,19,5,19,5C19,4.9,19,4.8,19,4.7z"/>
	<path d="M38.7,6.7c0,0,0,0.1,0,0.2c0,0,0,0.1,0,0.1c0,0-0.1,0-0.1,0c0,0,0,0,0-0.1c0-0.1,0-0.3,0-0.4c0,0,0,0,0,0
		c0.2,0,0.5,0,0.7,0c0.1,0,0.1,0,0.1,0.1c0,0,0,0.1,0.1,0.1c0,0,0,0,0.1-0.1c0,0,0-0.1,0-0.1c0,0,0,0,0.1,0c0,0,0,0,0,0.1
		c0,0,0,0.1-0.1,0.1c-0.1,0.1-0.1,0.2,0,0.2c0,0,0,0.1,0,0.1c0,0-0.1,0-0.1,0c0,0,0-0.1,0-0.1c0-0.1-0.1-0.3-0.1-0.3c0,0,0,0-0.1,0
		c0,0,0,0-0.1,0c-0.1,0-0.1,0-0.1,0.1c0,0.1,0,0.1,0,0.2c0,0,0,0,0,0.1c0,0-0.1,0-0.1,0c0,0,0,0,0-0.1c0-0.1,0-0.2,0-0.3
		c0,0,0-0.1-0.1,0c0,0-0.1,0-0.1,0c-0.1,0-0.1,0-0.1,0.1C38.7,6.6,38.7,6.7,38.7,6.7z"/>
	<path d="M22.2,5.6c0-0.1,0-0.1,0-0.2c0-0.1,0-0.1,0.1-0.1c0.1,0,0.1,0.1,0.1,0.1c0,0.1,0,0.3,0,0.4c0,0,0,0.1-0.1,0.1
		c-0.1,0-0.1,0-0.1-0.1c0,0,0-0.1-0.1-0.2c0,0.1,0,0.1,0,0.2c0,0,0,0.1-0.1,0.1c0,0-0.1,0-0.1-0.1c0-0.2,0-0.3,0-0.5
		c0,0,0-0.1,0.1-0.1c0,0,0.1,0,0.1,0.1C22.1,5.5,22.2,5.6,22.2,5.6z"/>
	<path d="M22.5,5.7c0-0.1,0-0.2,0-0.2c0-0.1,0-0.1,0.1-0.1c0.2,0,0.3,0.1,0.3,0.3c0,0,0,0.1,0,0.1c0,0.2-0.2,0.3-0.3,0.2
		c0,0,0,0,0-0.1C22.5,5.9,22.5,5.8,22.5,5.7z"/>
	<path d="M18,5.7c0-0.1,0-0.2,0-0.2c0-0.1,0-0.1,0.1-0.1c0.1,0,0.1,0,0.2,0c0.1,0,0.2,0.1,0.1,0.2c0,0.1,0,0.2,0,0.2c0,0,0,0,0,0.1
		c0,0,0.1,0.1,0,0.1c-0.1,0-0.1,0-0.1-0.1c0,0,0-0.1-0.1-0.1c0,0,0,0,0,0.1c0,0-0.1,0.1-0.1,0.1C18,6,18,6,18,5.9
		C18,5.9,18,5.8,18,5.7C18,5.7,18,5.7,18,5.7z"/>
	<path d="M14.1,5.8c0,0.1,0,0.1,0,0.2c0,0,0,0.1-0.1,0.1C14,6,14,6,14,6c0-0.2,0-0.3,0-0.5c0,0,0,0,0,0c0.1,0,0.2,0,0.3,0
		c0.1,0,0.1,0.1,0,0.2c-0.1,0.1,0,0.2,0,0.3c0,0,0.1,0.1,0,0.1c-0.1,0-0.1,0-0.1-0.1C14.2,5.9,14.2,5.8,14.1,5.8z"/>
	<path d="M18.9,5.7c0,0.1,0,0.1,0,0.2C18.9,6,18.8,6,18.7,6c-0.1,0-0.2,0-0.2-0.1c-0.1-0.1-0.1-0.2,0-0.4c0-0.1,0.1-0.2,0.2-0.2
		c0.1,0,0.2,0.1,0.2,0.2C18.9,5.6,18.9,5.7,18.9,5.7z M18.7,5.7c0,0.1,0,0.2,0.1,0.2c0.1,0,0.1-0.1,0.1-0.2c0-0.1,0-0.2-0.1-0.2
		C18.6,5.5,18.7,5.6,18.7,5.7C18.7,5.7,18.7,5.7,18.7,5.7z"/>
	<path d="M16.9,4.7c0,0.1,0,0.1,0,0.2c0,0.1,0,0.2-0.2,0.2c-0.1,0-0.2,0-0.2-0.1c0-0.2,0-0.3,0-0.5c0,0,0-0.1,0.1-0.1
		c0,0,0.1,0,0.1,0.1c0,0.1,0,0.2,0,0.3c0,0,0,0.1,0,0.1c0,0,0-0.1,0-0.1c0-0.1,0-0.2,0-0.3c0-0.1,0-0.1,0.1-0.1c0,0,0.1,0,0.1,0.1
		C16.9,4.5,16.9,4.6,16.9,4.7C16.9,4.7,16.9,4.7,16.9,4.7z"/>
	<path d="M19.8,6.8c0,0.1,0,0.1,0,0.2c0,0,0,0.1-0.1,0.1c0,0-0.1,0-0.1-0.1c0-0.2,0-0.4,0-0.5c0,0,0,0,0,0c0.1,0,0.2,0,0.3,0
		c0.1,0,0.1,0.1,0,0.2c-0.1,0.1,0,0.2,0,0.2c0,0,0,0.1,0,0.1c0,0,0,0.1,0,0.1c0,0-0.1,0-0.1-0.1C19.9,6.9,19.8,6.8,19.8,6.8
		C19.8,6.8,19.8,6.8,19.8,6.8z"/>
	<path d="M16.7,6.7c0,0.1,0,0.1,0,0.2c0,0.1,0,0.2-0.1,0.2c-0.1,0-0.2,0-0.2-0.1c0-0.1,0-0.2,0-0.2c0-0.1,0-0.1,0-0.2
		c0-0.1,0-0.1,0.1-0.1c0.1,0,0.1,0.1,0.1,0.1c0,0.1,0,0.2,0,0.3c0,0,0,0.1,0,0.1c0,0,0-0.1,0-0.1c0-0.1,0-0.2,0-0.2c0,0,0-0.1,0-0.1
		c0,0,0,0,0.1,0c0,0,0,0,0,0.1C16.7,6.5,16.7,6.6,16.7,6.7C16.7,6.7,16.7,6.7,16.7,6.7z"/>
	<path d="M20.1,4.7c0,0.1,0,0.2-0.1,0.2c-0.1,0.1-0.3,0.1-0.4-0.1c0-0.1,0-0.2,0-0.3c0-0.1,0.1-0.2,0.2-0.2c0.1,0,0.2,0.1,0.2,0.2
		C20.1,4.6,20.1,4.7,20.1,4.7z M19.8,4.7c0,0.1,0,0.2,0.1,0.2c0.1,0,0.1-0.1,0.1-0.2c0-0.1,0-0.2-0.1-0.2
		C19.8,4.6,19.8,4.6,19.8,4.7z"/>
	<path d="M18,4.7c0-0.1,0-0.2,0-0.2c0,0,0-0.1,0.1-0.1c0,0,0.1,0,0.1,0.1c0,0,0,0.1,0,0.1c0,0.1,0,0.1,0,0.2c0,0,0,0.1,0.1,0.1
		c0.1,0,0-0.1,0-0.1c0-0.1,0-0.2,0-0.3c0-0.1,0-0.1,0.1-0.1c0.1,0,0.1,0,0.1,0.1c0,0.1,0,0.2,0,0.4c0,0.1-0.1,0.2-0.2,0.2
		C18.1,5,18,5,18,4.9C18,4.8,18,4.7,18,4.7C18,4.7,18,4.7,18,4.7z"/>
	<path d="M16.9,6.7c0-0.1,0-0.2,0-0.3c0-0.1,0-0.1,0.1-0.1c0,0,0.1,0,0.1,0c0.1,0,0.1,0.1,0.1,0.2c0,0.1,0,0.1,0,0.2
		c0.1,0.1,0,0.2-0.1,0.2c-0.2,0-0.2,0-0.2-0.2C16.9,6.8,16.9,6.7,16.9,6.7C16.9,6.7,16.9,6.7,16.9,6.7z"/>
	<path d="M19.5,6.9c0,0.1,0,0.1-0.1,0.1c0,0,0,0-0.1-0.1c0-0.1-0.1-0.1-0.1,0c0,0,0,0,0,0.1c0,0,0,0-0.1,0c0,0,0,0,0-0.1
		c0,0,0-0.1,0-0.1c0-0.1,0.1-0.3,0.1-0.4c0-0.1,0-0.1,0.1-0.1c0.1,0,0.1,0,0.1,0.1C19.4,6.6,19.4,6.8,19.5,6.9z"/>
	<path d="M13.4,5.9c0-0.2,0.1-0.3,0.1-0.5c0,0,0-0.1,0.1-0.1c0.1,0,0.1,0,0.1,0.1c0,0.2,0.1,0.3,0.1,0.5c0,0,0,0.1,0,0.1
		c0,0-0.1,0-0.1,0c0,0,0,0,0,0c-0.1-0.1-0.1-0.1-0.1,0C13.5,6,13.5,6,13.4,5.9C13.4,6,13.4,6,13.4,5.9z"/>
	<path d="M21.8,6C21.8,6,21.8,6,21.8,6C21.7,6,21.7,6,21.7,6c-0.1-0.1-0.1-0.1-0.2,0c0,0-0.1,0-0.1,0c0,0,0-0.1,0-0.1
		c0-0.2,0.1-0.3,0.1-0.5c0-0.1,0-0.1,0.1-0.1c0.1,0,0.1,0,0.1,0.1C21.7,5.6,21.8,5.8,21.8,6z"/>
	<path d="M15.8,4.9c0-0.1,0-0.3,0-0.4c0,0,0-0.1,0.1-0.1c0,0,0.1,0,0.1,0.1c0,0.1,0.1,0.3,0.1,0.4c0,0,0,0.1,0,0.1
		c0,0,0,0.1-0.1,0.1C16,5,16,5,15.9,5C15.8,5,15.8,5,15.8,4.9C15.8,4.9,15.8,4.9,15.8,4.9z"/>
	<path d="M34.9,6.6c0-0.1,0-0.1,0-0.2c0,0,0,0,0,0c0,0,0.1,0,0.1,0c0,0,0,0,0,0.1c0,0.1,0,0.2,0,0.3c0,0.1,0.1,0.1,0.2,0.1
		c0.1,0,0.1,0,0.1-0.1c0-0.1,0-0.2,0-0.3c0,0,0,0,0-0.1c0,0,0.1,0,0.1,0c0,0,0,0,0,0.1c0,0.1,0,0.2,0,0.3c0,0.1,0,0.1,0,0.2
		c0,0.1,0,0.1-0.1,0.1c-0.1,0-0.1,0-0.2,0C35,7,34.9,6.9,34.9,6.6C34.9,6.7,34.9,6.6,34.9,6.6z"/>
	<path d="M17.4,5.7c0-0.1,0-0.2,0-0.2c0,0,0-0.1,0-0.1c0.1,0,0.3,0,0.3,0.1c0.1,0.1,0,0.2-0.1,0.3c-0.1,0-0.1,0-0.1,0.1
		c0,0,0,0.1,0,0.1c0,0,0,0.1-0.1,0.1c-0.1,0-0.1,0-0.1-0.1C17.4,5.9,17.4,5.8,17.4,5.7C17.4,5.7,17.4,5.7,17.4,5.7z"/>
	<path d="M15.9,6.3c0.2,0,0.3,0.1,0.2,0.3c0,0.1,0,0.1-0.1,0.1c-0.1,0-0.1,0-0.1,0.1c0,0,0,0.1,0,0.1C16,7,16,7,15.9,7
		c0,0-0.1,0-0.1-0.1c0-0.2,0-0.3,0-0.5C15.8,6.3,15.9,6.3,15.9,6.3z"/>
	<path d="M20.7,6C20.7,6,20.6,6,20.7,6c-0.1,0-0.1,0-0.1-0.1c0,0,0-0.1,0.1-0.1c0.1,0,0.1,0,0-0.1c0-0.1-0.1-0.1-0.1-0.2
		c0-0.1,0-0.1,0.1-0.2c0.1,0,0.1,0,0.2,0c0,0,0.1,0.1,0.1,0.1c0,0,0,0-0.1,0c0,0,0,0-0.1,0c0,0,0,0,0,0.1c0.1,0.1,0.1,0.1,0.1,0.3
		C20.8,6,20.8,6,20.7,6z"/>
	<path d="M15.7,5.8c0,0.1,0,0.1-0.1,0.1c-0.1,0-0.1,0-0.2,0c0,0,0,0,0-0.1c0,0,0,0,0.1-0.1c0.1,0,0.1,0,0-0.1
		c-0.1-0.1-0.1-0.1-0.1-0.2c0-0.1,0.1-0.2,0.2-0.1c0,0,0.1,0,0.1,0.1c0,0.1,0,0.1-0.1,0.1c-0.1,0-0.1,0,0,0.1
		C15.6,5.7,15.7,5.7,15.7,5.8z"/>
	<path d="M37.6,6.8c0-0.1,0-0.2,0-0.2c0-0.1,0-0.1,0.1-0.1c0.1,0,0.1,0,0.2,0c0.1,0,0.1,0.1,0,0.2c-0.1,0.1-0.1,0.1,0,0.2
		c0,0,0,0,0,0c0,0,0,0,0,0.1c0,0,0,0-0.1,0c-0.1,0-0.2,0-0.2,0c-0.1,0-0.1,0-0.1-0.1C37.6,6.8,37.6,6.8,37.6,6.8z"/>
	<path d="M17.6,4.7c0-0.1,0-0.1,0-0.2c0-0.1,0-0.1,0.1-0.1c0,0,0.1,0,0.1,0c0,0,0.1,0,0.1,0c0,0,0,0.1,0,0.1c-0.1,0.1-0.1,0.1,0,0.1
		c0,0,0,0.1,0,0.1c-0.1,0.1-0.1,0.1,0,0.1c0,0,0.1,0,0.1,0.1c0,0,0,0-0.1,0.1c0,0,0,0-0.1,0c-0.2,0-0.2,0-0.2-0.2
		C17.6,4.8,17.6,4.8,17.6,4.7z"/>
	<path d="M20.2,6C20.2,6,20.1,6,20.2,6c-0.1-0.1-0.1-0.1-0.1-0.1c0.1,0,0.1-0.1,0-0.1c-0.1-0.1-0.1-0.2-0.1-0.3
		c0-0.1,0.1-0.2,0.2-0.1c0,0,0.1,0.1,0.1,0.1c0,0-0.1,0-0.1,0c0,0,0,0-0.1,0c0,0,0,0,0,0.1c0.1,0.1,0.1,0.1,0.1,0.2
		C20.4,6,20.3,6,20.2,6z"/>
	<path d="M17.3,4.4C17.3,4.4,17.3,4.4,17.3,4.4c0.1,0,0.1,0.1,0.1,0.1c0,0,0,0-0.1,0c0,0-0.1,0-0.1,0c0,0,0,0.1,0.1,0.1
		c0.1,0.1,0.1,0.1,0.1,0.2C17.4,5,17.4,5,17.3,5c0,0-0.1,0-0.1,0c0,0,0-0.1,0-0.1c0,0,0,0,0.1,0c0.1,0,0.1,0,0-0.1
		c-0.1-0.1-0.1-0.1-0.1-0.2C17.1,4.4,17.2,4.4,17.3,4.4z"/>
	<path d="M19.6,5.7c0-0.1,0-0.2,0-0.2c0-0.1,0-0.1,0.1-0.1c0,0,0.1,0,0.1,0c0,0,0.1,0,0.1,0.1c0,0,0,0.1-0.1,0.1c0,0,0,0-0.1,0
		c-0.1,0,0,0,0,0.1c0.1,0.1,0.1,0.1,0,0.2c0,0,0,0,0,0.1c0,0,0,0,0,0c0,0,0.1,0,0.1,0.1C19.9,6,19.8,6,19.8,6c-0.1,0-0.1,0-0.1-0.1
		C19.6,5.8,19.6,5.8,19.6,5.7C19.6,5.7,19.6,5.7,19.6,5.7z"/>
	<path d="M19.1,5.7c0-0.2,0.1-0.3,0.2-0.3c0.1,0,0.1,0,0.1,0.1c0,0.1,0,0.1-0.1,0.1c-0.1,0-0.1,0.1-0.1,0.1c0,0.1,0,0.1,0.1,0.2
		c0,0,0.1,0,0.1,0c0,0,0.1,0,0.1,0.1C19.5,6,19.4,6,19.4,6c-0.1,0-0.1,0-0.2-0.1C19.1,5.8,19.1,5.8,19.1,5.7z"/>
	<path d="M16.8,5.4C16.9,5.4,16.9,5.4,16.8,5.4c0.1,0.1,0.1,0.2,0,0.2c-0.1,0-0.1,0-0.1,0.1c0,0.1,0,0.2,0.1,0.2c0,0,0,0,0.1,0
		c0,0,0,0,0,0.1c0,0,0,0-0.1,0c0,0-0.1,0-0.1,0c-0.1,0-0.2-0.2-0.2-0.4C16.6,5.5,16.7,5.4,16.8,5.4C16.8,5.4,16.8,5.4,16.8,5.4z"/>
	<path d="M36,6.8c0-0.1,0-0.2,0-0.3c0,0,0-0.1,0-0.1c0,0,0.1,0,0.1,0c0,0,0,0,0,0.1C36.1,6.6,36.1,6.8,36,6.8c0.1,0.1,0.1,0.2,0,0.2
		c0,0,0,0-0.1,0c-0.1-0.1-0.1-0.2-0.2-0.2c0,0,0,0,0,0c0,0,0,0,0,0c0,0.1,0,0.1,0,0.2c0,0,0,0,0,0.1c0,0-0.1,0-0.1,0c0,0,0,0,0-0.1
		c0-0.1,0-0.3,0-0.4c0,0,0,0,0,0c0,0,0,0,0.1,0C35.9,6.6,36,6.7,36,6.8z"/>
	<path d="M14.6,5.8c0,0,0-0.1,0-0.1c0,0,0-0.1-0.1-0.1c0,0-0.1-0.1,0-0.1c0,0,0.1,0,0.1,0c0.1,0,0.1,0,0.2,0c0,0,0.1,0,0.1,0
		c0,0,0,0.1,0,0.1c-0.1,0.1-0.1,0.1-0.1,0.2c0,0.1,0,0.2,0,0.2c0,0.1,0,0.1-0.1,0.1c0,0-0.1,0-0.1-0.1C14.6,5.9,14.6,5.8,14.6,5.8
		C14.6,5.8,14.6,5.8,14.6,5.8z"/>
	<path d="M18.2,6.7c0-0.1,0.1-0.3,0.2-0.3c0.1,0,0.1,0,0.1,0c0,0.1,0,0.1-0.1,0.1c-0.1,0.1-0.2,0.2-0.1,0.3c0,0,0.1,0.1,0.1,0.1
		c0.1,0,0.1,0.1,0.1,0.1c0,0.1-0.1,0.1-0.1,0C18.3,7,18.2,6.8,18.2,6.7z"/>
	<path d="M20.3,4.7c0-0.1,0-0.2,0-0.2c0-0.1,0-0.1,0.1-0.1c0,0,0,0,0.1,0c0,0,0.1,0,0.1,0c0,0.1,0,0.1-0.1,0.1c-0.1,0,0,0.1,0,0.1
		c0.1,0.1,0.1,0.1,0,0.1c0,0,0,0.1,0,0.1c0,0,0,0.1,0,0.1c0,0,0,0.1-0.1,0.1c0,0-0.1,0-0.1-0.1C20.3,4.9,20.3,4.8,20.3,4.7
		C20.3,4.7,20.3,4.7,20.3,4.7z"/>
	<path d="M15.8,5.8c0-0.1,0-0.2-0.1-0.3c0,0,0-0.1,0-0.1c0.1,0,0.1,0,0.2,0c0,0,0.1,0,0.1,0.1c0,0,0,0.1,0,0.1C16,5.5,16,5.6,16,5.6
		c0,0.1,0,0.2,0,0.3C16,6,16,6,15.9,6c-0.1,0-0.1,0-0.1-0.1C15.8,5.9,15.8,5.8,15.8,5.8z"/>
	<path d="M37.2,6.4c0,0,0.1,0,0.1,0c0,0,0.1,0,0.1,0c0,0,0,0.1,0,0.1c0,0-0.1,0-0.1,0C37.3,6.5,37.3,6.5,37.2,6.4c0,0.1,0,0.1,0,0.2
		c0,0,0,0,0.1,0c0,0,0.1,0,0.1,0c0,0,0,0.1,0,0.1c0,0-0.1,0-0.1,0c0,0,0-0.1-0.1,0c0,0,0,0.1,0,0.1c0,0,0,0.1,0.1,0c0,0,0.1,0,0.1,0
		c0,0,0.1,0,0.1,0c0,0,0,0.1,0,0.1c-0.1,0-0.2,0-0.3,0c0,0,0,0,0-0.1C37.2,6.8,37.1,6.7,37.2,6.4C37.1,6.5,37.1,6.4,37.2,6.4z"/>
	<path d="M20.2,6.7c0,0,0-0.1,0-0.1c0-0.1,0-0.1-0.1-0.1c0,0-0.1,0,0-0.1c0,0,0-0.1,0.1-0.1c0.1,0,0.2,0,0.2,0c0.1,0,0.1,0.1,0,0.1
		c-0.1,0-0.1,0.1-0.1,0.2c0,0.1,0,0.2,0,0.3c0,0.1,0,0.1-0.1,0.1c-0.1,0-0.1,0-0.1-0.1C20.2,6.8,20.2,6.8,20.2,6.7
		C20.2,6.7,20.2,6.7,20.2,6.7z"/>
	<path d="M16.1,4.6c0,0,0-0.1,0-0.1c0-0.1,0-0.1,0.1-0.1c0.1,0,0.1,0,0.1,0.1c0,0.1,0,0.1,0,0.2c0,0.1,0,0.2,0,0.3
		c0,0,0,0.1-0.1,0.1c0,0-0.1,0-0.1,0C16.2,4.9,16.1,4.8,16.1,4.6C16.1,4.6,16.1,4.6,16.1,4.6z"/>
	<path d="M17.4,6.7c0-0.1,0-0.2,0-0.2c0,0,0-0.1,0.1-0.1c0.1,0,0.1,0,0.1,0.1c0,0.1,0,0.2,0,0.3c0,0.1,0,0.1,0.1,0.1
		c0,0,0.1,0,0.1,0.1c0,0.1,0,0-0.1,0.1c-0.2,0-0.2,0-0.2-0.2C17.4,6.8,17.4,6.7,17.4,6.7C17.4,6.7,17.4,6.7,17.4,6.7z"/>
	<path d="M38.2,7C38.2,6.9,38.2,6.9,38.2,7c-0.1,0-0.1-0.1-0.1-0.1c0,0,0,0,0.1,0C38.2,6.9,38.2,6.9,38.2,7c0-0.1,0.1-0.1,0.1-0.1
		c0,0,0,0,0-0.1c0,0-0.1,0-0.1-0.1c-0.1,0-0.1-0.1-0.1-0.1c0-0.1,0.1-0.1,0.1-0.1c0.1,0,0.1,0,0.2,0c0,0,0,0,0,0.1c0,0,0,0-0.1,0
		c0,0-0.1-0.1-0.1,0c0,0.1,0.1,0.1,0.1,0.1c0.1,0,0.1,0.1,0.1,0.2C38.4,6.9,38.3,7,38.2,7z"/>
	<path d="M36.8,6.8c0.1-0.1,0.1-0.2,0.1-0.3c0,0,0,0,0.1-0.1c0,0,0.1,0,0.1,0c0,0,0,0,0,0.1c-0.1,0.1-0.1,0.2-0.2,0.4
		c0,0,0,0.1-0.1,0.1c0,0,0,0-0.1-0.1c-0.1-0.1-0.1-0.2-0.2-0.4c0,0,0,0,0-0.1c0,0,0.1,0,0.1,0c0,0,0,0,0,0
		C36.7,6.6,36.8,6.7,36.8,6.8z"/>
	<path d="M16.4,5.7c0,0.1,0,0.2,0,0.2c0,0,0,0.1-0.1,0.1c0,0-0.1,0-0.1-0.1c0-0.2,0-0.3,0-0.5c0,0,0-0.1,0.1-0.1c0,0,0.1,0,0.1,0.1
		C16.4,5.5,16.4,5.6,16.4,5.7C16.4,5.7,16.4,5.7,16.4,5.7z"/>
	<path d="M18,6.7c0,0.1,0,0.2,0,0.2C18,6.9,18,7,18,7c-0.1,0-0.1,0-0.1-0.1c0-0.2,0-0.3,0-0.5c0,0,0-0.1,0.1-0.1
		C18,6.3,18,6.4,18,6.4C18,6.5,18,6.6,18,6.7C18,6.7,18,6.7,18,6.7z"/>
	<path d="M15.1,5.7c0,0.1,0,0.2,0,0.2c0,0,0,0.1-0.1,0.1C15,6,15,6,15,5.9c0-0.2,0-0.3,0-0.5c0,0,0-0.1,0.1-0.1c0,0,0.1,0,0.1,0.1
		C15.2,5.5,15.1,5.6,15.1,5.7z"/>
	<path d="M36.4,6.7c0,0.1,0,0.2,0,0.2c0,0.1,0,0.1-0.1,0.1c0,0-0.1,0-0.1-0.1c0-0.1,0-0.2,0-0.3c0-0.1,0-0.1,0.1-0.1
		c0.1,0,0.1,0.1,0.1,0.1C36.4,6.6,36.4,6.6,36.4,6.7z"/>
	<path d="M35.7,2.6c0-0.4,0.1-0.8,0.4-1.1c0.2-0.2,0.3-0.3,0.6-0.4c0,0,0,0,0,0c0,0,0,0,0-0.1c0,0,0,0-0.1,0
		c-0.1,0.1-0.1,0.1-0.2,0.1c0,0,0,0,0,0c0,0.1-0.2,0.1-0.2,0.2c0,0-0.1,0.1-0.1,0.1c0,0,0,0-0.1,0c0,0-0.1-0.1-0.1-0.1
		c0,0,0,0,0-0.1c0,0,0.1,0,0.1,0c0,0,0,0,0,0c0,0,0.1,0,0.1,0c0,0,0-0.1,0-0.1c0,0-0.1,0,0-0.1c0,0,0.1,0,0.1,0c0,0,0.1,0.1,0.1,0.1
		c0.1,0,0-0.1,0-0.1c0-0.1-0.1-0.1,0-0.1c0,0,0.1,0,0.1,0c0.1,0,0.1,0,0.1,0c0,0,0,0.1,0,0.1c0,0,0,0,0-0.1c0-0.1,0-0.1,0.1-0.1
		c0.1-0.1,0.1-0.1,0.2,0c0,0,0,0,0,0c0,0,0.1,0,0.1,0c0,0,0,0,0,0c0,0,0-0.1,0.1-0.1c0.1,0,0,0.1,0,0.2c0,0,0,0,0,0
		C37,1,37.1,1,37.1,1c0,0,0.1,0,0.1,0c0.1,0,0.2,0,0.4,0c0.2,0.1,0.2,0,0.2-0.2c0,0,0-0.1,0.1-0.1c0,0,0,0,0,0c0,0,0,0.1,0,0.1
		c0,0.1-0.1,0.1-0.1,0.2c0,0.1,0.1,0.1,0.1,0.1c0.5,0.3,0.8,0.7,0.9,1.3c0.1,0.4-0.1,0.8-0.3,1.1c-0.2,0.3-0.4,0.4-0.7,0.5
		c-0.1,0.1-0.2,0-0.3-0.1c0-0.1,0-0.1,0.1-0.1c0,0,0,0,0,0c0,0,0,0,0,0c0,0.2,0,0.2,0.2,0.1c0.1,0,0.2-0.1,0.3-0.2c0,0,0,0,0,0
		c0,0,0,0,0,0c-0.2,0-0.5,0-0.7,0c0,0-0.1,0-0.1,0.1c0,0,0,0.1,0,0.1c0,0,0,0.1,0,0.1c0,0-0.1,0-0.1,0c0,0,0-0.1,0-0.1
		c0,0,0-0.1,0-0.1c0,0-0.1,0-0.1,0c0,0,0,0,0,0.1c0,0,0,0,0,0c0,0,0,0.1,0,0.1c0,0-0.1,0-0.1,0c0,0,0-0.1,0-0.1c0,0,0-0.1,0-0.1
		c0,0-0.1,0-0.1,0c0,0-0.1,0,0,0.1c0,0,0,0,0,0C37,3.9,37,4,37,4c-0.1,0-0.1,0.1-0.2,0c-0.3-0.1-0.5-0.3-0.7-0.5
		C35.8,3.3,35.7,2.9,35.7,2.6z M37.3,1.2L37.3,1.2c0,0.1,0,0.1-0.1,0.1c0,0-0.1,0.1-0.1,0c0,0,0-0.1,0-0.1c0,0,0,0,0,0
		c0,0,0-0.1,0-0.1c0,0,0,0,0,0.1c0,0.2-0.1,0.4-0.1,0.6c0,0.1,0,0.2-0.1,0.3c0,0,0,0.1,0,0.1c0,0,0,0,0.1,0C36.9,2.2,37,2.2,37,2
		c0,0,0-0.1,0.1-0.1c0,0,0.1,0,0.1,0c0,0,0-0.1,0-0.1c-0.1-0.1,0-0.1,0-0.2c0.1,0,0.1-0.1,0.2-0.1c0,0,0.1,0,0.1-0.1
		c0.1-0.1,0-0.2,0-0.3c0-0.1,0-0.1,0.1,0c0,0,0,0,0,0.1c0,0,0,0.1,0.1,0c0,0,0.1,0,0-0.1c0,0-0.1,0-0.1,0c0,0-0.1,0-0.1,0
		c-0.2,0-0.3-0.1-0.5,0c0,0-0.1,0,0,0c0,0,0,0,0,0C37.2,1.1,37.2,1.1,37.3,1.2C37.2,1.2,37.2,1.3,37.3,1.2z M38.3,1.7
		c0,0,0.1,0.1,0,0.1c0,0-0.1,0-0.1-0.1c0,0,0-0.1,0-0.1c0,0,0,0,0,0c0,0-0.1,0-0.1,0c-0.1,0-0.1,0-0.1-0.1c0,0,0-0.1-0.1-0.1
		c0,0,0,0-0.1,0c-0.1,0-0.1,0-0.2,0c0,0,0,0-0.1,0c0,0,0,0,0,0.1c0,0,0,0.1,0,0.1c-0.1,0.1,0,0.1,0,0.1c0,0,0.1,0.1,0.1,0.1
		c0.1,0.1,0.1,0.1-0.1,0.2c-0.1,0-0.1,0.1-0.1,0.1c0,0.1,0,0.2,0,0.3c0,0.2,0.1,0.2,0.2,0.1c0,0,0,0,0.1,0c0.2-0.1,0.4,0,0.5,0.2
		c0,0,0,0,0,0c0.1,0,0.1,0.1,0.1,0.1c0,0.1,0,0.2-0.1,0.2c-0.1,0-0.2,0.1-0.3,0.2c0,0,0,0,0,0c-0.1,0,0,0.1,0,0.1c0,0,0.1,0,0.1,0
		c0,0,0,0,0,0c0,0,0,0,0,0.1c0,0,0,0,0.1,0c0,0,0-0.1,0.1-0.1c0.3-0.3,0.4-0.7,0.3-1.1c-0.1-0.5-0.4-0.9-0.8-1.1c0,0-0.1,0-0.1,0
		c-0.1,0-0.1,0-0.1,0.1c0,0,0,0.1,0,0.1c0,0,0.1,0,0.1,0c0-0.1,0.1,0,0.1,0c0,0.1,0.1,0.1,0.1,0.1c0.1,0,0.1,0,0.2,0.1
		c0.1,0.1,0.1,0.1,0.1,0.2c0,0,0,0,0,0.1C38.5,1.8,38.4,1.8,38.3,1.7C38.4,1.8,38.4,1.7,38.3,1.7z M36.1,3.4
		C36.1,3.4,36.1,3.4,36.1,3.4c0-0.2-0.1-0.4-0.1-0.5c0-0.1,0-0.2-0.1-0.2c0,0,0,0,0,0C36,2.6,36,2.6,35.9,2.4c0,0,0,0,0,0
		c0,0,0,0,0.1,0c0,0,0,0,0,0c0,0.1,0.1,0.1,0.2,0.1c0.1,0,0.1,0,0.1-0.1c0,0-0.1-0.1,0-0.1c0,0,0.1,0.1,0.1,0.1c0,0,0,0,0,0
		c0,0,0.1,0.1,0.1,0.1c0,0,0-0.1,0-0.1c0,0,0,0,0,0c0,0,0-0.1,0-0.1c0.1,0,0.1-0.1,0.1-0.1c0-0.1,0.1-0.2,0.1-0.3
		c0.1-0.2,0.1-0.2-0.1-0.4c0-0.1-0.1,0-0.1,0c0,0,0,0.1,0,0.1c0,0,0,0.1,0,0.1c-0.1,0-0.1,0-0.2-0.1c0,0,0-0.1,0-0.1
		c0.1,0,0.1,0,0.1-0.1c0-0.1,0.1-0.1,0.2-0.1c0,0,0.1,0,0.1-0.1c0,0-0.1,0-0.1,0c-0.2,0.1-0.3,0.2-0.5,0.4c-0.1,0.1,0,0.2,0.1,0.2
		c0,0,0,0,0,0c0,0-0.1,0,0-0.1c0,0,0.1,0,0.1,0c0,0,0.1,0.1,0,0.1c0,0.1-0.1,0.2-0.1,0.3c0,0,0,0.1-0.1,0.1c-0.1,0,0-0.1-0.1-0.1
		c0,0,0,0,0,0c0,0,0-0.1,0-0.1c0,0,0.1,0,0.1,0c0,0,0.1,0,0-0.1c-0.1,0-0.1-0.1-0.2-0.1C35.6,2.4,35.8,3.1,36.1,3.4z M38.2,3
		c0.1,0,0.2-0.1,0.2-0.2c0-0.1-0.1-0.2-0.2-0.2c-0.1,0-0.2,0-0.4,0.1c-0.1,0-0.2,0.1-0.3,0.2c0,0,0,0.1,0,0.1c0,0,0.1,0,0.1,0
		c0.1,0,0.1,0,0.2-0.1c0,0,0-0.1,0-0.1c0.1-0.1,0.2-0.2,0.4-0.2c0,0,0.1,0,0.1,0c0,0,0,0,0,0c0,0-0.1,0-0.1,0c-0.1,0-0.2,0-0.3,0.1
		C37.7,3,37.8,3.1,38,3.1c0,0,0,0,0,0c0,0,0.1,0,0.1,0c0,0,0,0-0.1,0c0,0-0.1,0-0.1,0c-0.1,0-0.2,0-0.3,0c0,0-0.1,0-0.1,0.1
		c0,0,0,0.1,0.1,0.1c0.2,0,0.3,0,0.5,0c0,0,0.1,0,0.1,0c0,0,0-0.1-0.1-0.1C38.2,3.1,38.1,3.1,38.2,3c-0.1,0-0.1,0-0.1,0
		C38,3,38.1,3,38.2,3C38.1,3,38.1,3,38.2,3z M36.4,3c0.1,0,0.1,0,0.2-0.1c0-0.1,0-0.1,0.1,0c0.1,0,0.1,0.1,0.2,0
		c0,0,0.1-0.1,0.1-0.1c0-0.1-0.1-0.1-0.2-0.1c-0.1,0-0.1,0-0.2,0.1C36.5,2.8,36.4,2.9,36.4,3z M36.6,3.8c0,0-0.1,0-0.1,0
		c0,0,0,0,0,0c0,0,0,0,0,0c0.1,0.1,0.2,0.1,0.3,0.2c0,0,0.1,0,0.1-0.1c0-0.1,0-0.1-0.1-0.1C36.8,3.8,36.7,3.7,36.6,3.8z M37.5,3.7
		C37.5,3.7,37.6,3.7,37.5,3.7c0.1,0,0.1,0,0.1,0c0-0.1-0.1-0.1-0.1-0.1C37.5,3.5,37.5,3.5,37.5,3.7c-0.1,0-0.1-0.1-0.2-0.1
		c0,0-0.2,0-0.2,0c0,0,0,0,0,0.1c0,0,0.1,0,0.1,0.1C37.3,3.7,37.4,3.6,37.5,3.7z M36.1,2.7C36.1,2.7,36,2.7,36.1,2.7
		C36,2.9,36,3,36.1,3c0,0,0.1,0,0.1,0c0-0.1,0.1-0.2,0.1-0.3c0,0,0.1-0.1,0-0.1c-0.1,0-0.1,0.1-0.1,0.1c0,0,0,0.1-0.1,0.1
		C36,2.8,36.1,2.8,36.1,2.7z M36.8,2.9C36.8,2.9,36.8,2.9,36.8,2.9c-0.1,0-0.2,0-0.2,0c0,0,0,0.1,0.1,0.1c0,0,0,0,0.1,0
		c0.1,0,0.2,0,0.2,0c0,0,0,0,0.1,0c0,0,0,0,0,0C37,2.9,36.9,2.9,36.8,2.9z M36.6,3.5C36.6,3.5,36.6,3.5,36.6,3.5c0-0.1,0-0.3,0-0.4
		c0,0,0-0.1-0.1-0.1c0,0,0,0,0,0.1C36.5,3.2,36.5,3.3,36.6,3.5C36.5,3.5,36.5,3.5,36.6,3.5z M36.3,3.3c0,0,0,0.1,0,0.1
		c0,0,0,0.1,0.1,0.1c0.1,0,0,0,0-0.1c0-0.1,0-0.2,0-0.3c0,0,0-0.1,0-0.1c0,0-0.1,0-0.1,0.1C36.3,3.2,36.3,3.2,36.3,3.3z M36.5,2.6
		c-0.1,0-0.1,0.1-0.2,0.2c0,0.1-0.1,0.1-0.1,0.2c0,0,0,0.1,0,0.1c0,0,0.1,0,0.1-0.1C36.4,2.9,36.4,2.8,36.5,2.6
		C36.5,2.7,36.5,2.7,36.5,2.6z M37.4,2.5C37.4,2.4,37.4,2.4,37.4,2.5c0-0.2-0.1-0.2,0-0.3c0,0,0,0,0,0c-0.1,0-0.1,0-0.2-0.1
		C37.2,2.2,37.3,2.3,37.4,2.5z M36.9,3.6c-0.1,0-0.1,0-0.1,0.1c0,0,0,0,0,0c0,0,0.1,0.1,0.1,0.1c0.1,0,0.2,0,0.2-0.1
		C37.1,3.5,37,3.6,36.9,3.6z M37.2,3.5C37.2,3.5,37.3,3.5,37.2,3.5c0.1-0.1,0.1-0.2,0-0.2c-0.1,0-0.1,0-0.1,0.1
		C37,3.5,37.1,3.5,37.2,3.5z"/>
	<path d="M35.7,3c-0.1,0-0.1-0.1-0.2,0c0,0,0,0,0,0.1c0,0,0,0,0,0c0.1,0,0.2,0.1,0.2,0.2c0,0.1,0.2,0.2,0.1,0.4c0,0,0.1-0.1,0.1,0
		c0,0,0,0.1,0,0.1c0,0,0,0,0,0.1c0,0,0,0,0.1,0c0,0,0,0,0.1,0c0,0,0,0,0.1,0c0,0,0,0,0,0.1c0,0-0.1,0.1-0.1,0.1c0,0,0,0-0.1,0
		c0,0,0,0,0-0.1c0-0.1,0-0.2-0.1-0.2c0,0,0,0,0-0.1c0,0,0,0,0,0c0,0,0.1-0.1,0-0.1c0,0-0.1,0-0.1,0c0,0-0.1,0-0.1,0
		c0,0-0.1-0.1,0-0.1c0,0,0.1-0.1,0.1-0.1c0,0,0,0,0,0c0,0,0,0,0,0c0,0,0,0.1-0.1,0.1c0,0-0.1-0.1,0-0.1c0,0,0,0,0-0.1
		c-0.1-0.1-0.1-0.2,0-0.3c0,0,0,0-0.1,0c0,0,0,0,0-0.1c0,0,0,0,0.1,0c0.1,0,0.1,0,0-0.1c0,0,0,0,0-0.1c0-0.1,0-0.2-0.1-0.2
		c0-0.1,0-0.1,0-0.1c0,0,0,0,0,0c0,0,0,0,0,0c0,0,0,0,0,0.1c0,0,0,0,0.1,0c0,0,0,0,0-0.1c0-0.1,0-0.1-0.1-0.2c0,0-0.1,0-0.1-0.1
		c0,0,0.1,0,0.1,0c0,0,0,0,0,0c0,0,0.1,0,0.1-0.1c0,0,0,0,0-0.1c0,0-0.1,0-0.1-0.1c0-0.1,0.1-0.1,0.2-0.1c0,0,0,0,0.1,0
		c0.1,0,0,0,0,0.1c-0.1,0.2-0.2,0.3-0.1,0.5c0,0,0,0.1-0.1,0.1c-0.1,0.1-0.1,0.2,0,0.3c0,0,0,0,0,0C35.6,2.8,35.7,2.9,35.7,3z"/>
	<path d="M36.7,4.3C36.8,4.1,37,4,37.1,4.1c0.1,0,0.2,0,0.4,0c0.2,0,0.2,0,0.2,0.2c0,0,0,0.1,0.1,0.1c0,0,0,0,0,0c0,0,0,0,0,0
		c-0.1,0-0.2,0.1-0.3,0.1c-0.1,0-0.1,0-0.1-0.1c0,0,0,0,0-0.1c0,0,0-0.1,0.1-0.1c0,0,0,0,0,0.1c0,0,0,0,0,0c0,0,0,0.1,0.1,0.1
		c0,0,0.1,0,0.1-0.1c0-0.1,0-0.2-0.2-0.2c-0.2,0-0.3,0-0.5,0c0,0-0.1,0-0.1,0c0,0,0,0.1,0.1,0.1c0,0,0,0,0.1,0c0,0,0,0,0,0
		c0,0,0,0.1-0.1,0c-0.1-0.1-0.1,0-0.2,0C36.8,4.4,36.7,4.4,36.7,4.3c-0.1,0-0.1,0-0.1-0.1c0,0,0-0.1-0.1-0.1c0,0,0,0,0,0
		c0,0,0,0.1,0,0.1c0,0,0,0,0,0.1c0,0,0,0-0.1,0c-0.1,0-0.1-0.1-0.1-0.1c0,0,0,0,0,0C36.5,4,36.7,4.1,36.7,4.3
		C36.7,4.2,36.7,4.2,36.7,4.3z"/>
	<path d="M38.9,1.7c-0.1,0-0.2-0.1-0.2-0.2c-0.1-0.1-0.1-0.1-0.2-0.2c-0.1,0-0.1-0.1,0-0.1c0,0,0-0.1,0.1-0.1c0,0,0,0,0.1,0
		c0,0,0,0,0,0.1c0,0,0,0,0,0.1c0,0-0.1,0-0.1,0.1c0,0,0.1,0.1,0.1,0.1c0,0,0,0,0.1,0c0,0,0-0.1,0.1,0c0,0,0,0,0.1,0c0,0,0,0,0,0.1
		c0,0-0.1,0.1-0.1,0.1c0,0,0,0.1,0.1,0.1c0,0,0.1,0,0.1-0.1c0,0,0-0.1,0.1-0.1c0,0,0,0,0,0.1c0,0.1,0.1,0.1,0.1,0.2c0,0,0,0,0,0.1
		C39,1.9,39,1.9,39.1,2c0,0,0,0,0,0c0,0.1-0.1,0.1-0.2,0.1c0,0-0.1,0-0.1-0.1c0-0.1,0-0.1,0-0.2c0,0,0-0.1,0-0.1c0,0,0.1,0,0.1-0.1
		C39,1.7,38.9,1.7,38.9,1.7z"/>
	<path d="M39.2,2.6c0,0.1,0,0.1,0,0.2c0,0,0,0,0,0c0,0-0.1,0-0.1,0c0,0,0,0-0.1,0c0,0,0,0,0-0.1c0.1,0,0.1,0,0-0.1c0,0,0,0,0-0.1
		c0,0,0,0,0.1,0C39.1,2.6,39.1,2.6,39.2,2.6c-0.1-0.1-0.1-0.1-0.1-0.1c0,0-0.1,0-0.1-0.1c0-0.1,0-0.1,0.1-0.1c0.1,0,0.1,0,0-0.1
		c0,0-0.1,0,0-0.1c0,0,0.1,0,0.1,0c0.1,0,0.1,0.1,0.1,0.2C39.2,2.4,39.2,2.5,39.2,2.6z"/>
	<path d="M38.9,3.6c0,0.1-0.1,0.1-0.2,0.1c0,0,0,0-0.1,0c0,0-0.1,0-0.1,0c0,0,0,0,0,0.1c0,0,0,0,0,0.1c0,0,0,0.1,0,0.1
		c0,0-0.1,0-0.1,0c-0.1-0.1-0.1-0.1,0-0.2c0,0,0.1-0.1,0.1-0.2c0,0,0.1-0.1,0.1,0C38.8,3.5,38.8,3.5,38.9,3.6
		C38.8,3.6,38.9,3.6,38.9,3.6z"/>
	<path d="M36.2,4C36.3,4,36.3,4,36.2,4c0.1-0.1,0.1-0.2,0.2-0.1c0.1,0,0,0.1,0,0.1c0,0,0,0,0,0.1c0,0-0.1,0.1,0,0.1c0,0,0,0,0,0.1
		c0,0,0,0-0.1,0C36.2,4.1,36.1,4,36,4c0,0,0-0.1,0-0.1c0,0,0.1-0.1,0.1-0.1c0,0,0,0,0.1,0c0,0,0,0,0,0.1c0,0,0,0,0,0.1
		C36.1,3.9,36.1,4,36.2,4C36.2,4,36.2,4,36.2,4z"/>
	<path d="M38.2,4.2c0,0,0-0.1,0-0.1c0,0,0-0.1,0-0.1c0,0,0.1,0,0.1,0c0,0,0,0.1,0.1,0.1c0,0,0.1,0,0.1,0c0,0,0-0.1,0-0.1
		c0,0,0,0-0.1-0.1c0,0,0,0,0-0.1c0,0,0.1,0,0.1,0c0,0,0.1,0.1,0.1,0.2c0,0,0,0,0,0.1C38.4,4.1,38.3,4.2,38.2,4.2
		C38.2,4.2,38.2,4.3,38.2,4.2C38.1,4.2,38.2,4.2,38.2,4.2z"/>
	<path d="M39,3.3c0,0.1,0,0.1-0.1,0.1c0,0,0,0,0,0c0,0,0,0,0,0.1c0,0,0,0,0,0c0,0,0,0-0.1-0.1c-0.1-0.1-0.1-0.1-0.1-0.2
		c0-0.1,0.1-0.1,0.1,0C38.9,3.3,39,3.3,39,3.3L39,3.3z"/>
	<path d="M38.1,0.9C38.1,0.9,38.2,0.9,38.1,0.9c0.1,0,0.2,0,0.1,0.1c0,0,0,0,0,0c0,0,0,0.1-0.1,0.1c-0.1,0-0.1,0-0.2-0.1
		c0,0,0-0.1,0-0.1C38,0.9,38.1,0.9,38.1,0.9z"/>
	<path d="M35.9,1.6c0,0.1-0.1,0.1-0.1,0.1c-0.1,0-0.1,0-0.1-0.1c0-0.1,0.1-0.1,0.1-0.1C35.9,1.4,35.9,1.5,35.9,1.6z"/>
	<path d="M39,3.3c0-0.1-0.1-0.1-0.1-0.1c0,0,0,0,0-0.1c0,0,0,0,0.1,0c0.1,0,0.1,0,0.2,0C39.1,3.1,39.1,3.2,39,3.3
		C39,3.3,39,3.3,39,3.3z"/>
	<path d="M37.2,0.8c0-0.1,0-0.1,0.1-0.1c0.1,0,0.1,0.1,0.1,0.1c0,0.1-0.1,0.1-0.1,0.1C37.2,0.9,37.2,0.8,37.2,0.8z"/>
	<path d="M38,4.1c0,0.1,0,0.1,0,0.2c0,0.1,0,0.1-0.1,0c-0.1,0-0.1-0.1-0.1-0.1c0,0,0,0,0-0.1c0,0,0,0,0,0C37.9,4.1,37.9,4.1,38,4.1
		C38,4,38.1,4.1,38,4.1z"/>
	<path d="M37.8,0.8c0,0,0,0.1-0.1,0.1c0,0-0.1,0-0.1,0c0,0,0,0,0-0.1c0-0.1,0-0.1,0.1-0.2C37.7,0.7,37.7,0.7,37.8,0.8
		C37.8,0.7,37.8,0.8,37.8,0.8z"/>
	<path d="M37.2,4.3c0,0,0-0.1,0-0.1c0,0,0.1,0,0.1,0c0,0,0,0.1,0,0.1c0,0,0,0,0,0c0,0,0,0.1-0.1,0.1C37.2,4.4,37.2,4.4,37.2,4.3z"/>
	<path d="M38.2,2.5c-0.1,0-0.1-0.1-0.2-0.1c0,0-0.1-0.1-0.1-0.1c-0.1,0-0.1-0.1-0.2-0.1c0,0,0-0.1,0-0.1C37.9,2,38,2,38,2
		c0.1,0,0.2-0.1,0.3,0c0,0,0,0,0,0c0.1-0.1,0.2,0,0.2-0.1c0.1,0,0.1,0,0.1,0.1c0,0.1,0,0.2-0.1,0.2c-0.1,0,0,0.1,0,0.1
		C38.4,2.4,38.4,2.5,38.2,2.5z"/>
	<path d="M37.3,1.2C37.3,1.2,37.3,1.2,37.3,1.2c0,0-0.1-0.1,0-0.1C37.3,1.1,37.4,1.1,37.3,1.2c0.1-0.1,0.1-0.1,0.1-0.1
		c0,0,0,0,0.1,0c0,0,0,0,0,0.1c0,0.1-0.1,0.1-0.1,0.1c0,0,0,0-0.1,0C37.3,1.3,37.3,1.3,37.3,1.2C37.3,1.3,37.3,1.2,37.3,1.2
		C37.3,1.2,37.3,1.2,37.3,1.2z"/>
</g>
</svg>
