<?xml version="1.0" encoding="utf-8"?>
<!-- Generator: $$$/GeneralStr/196=Adobe Illustrator 27.6.0, SVG Export Plug-In . SVG Version: 6.00 Build 0)  -->
<svg version="1.1" id="Ebene_1" xmlns="http://www.w3.org/2000/svg" xmlns:xlink="http://www.w3.org/1999/xlink" x="0px" y="0px"
	 viewBox="0 0 40 14.4" style="enable-background:new 0 0 40 14.4;" xml:space="preserve">
<style type="text/css">
	.st0{fill:#FFFFFF;}
	.st1{fill:#070707;}
</style>
<g>
	<path d="M5.8,4.3c0-0.7,0-1.5,0-2.2c0-0.1,0-0.1,0-0.2c0-0.3,0.1-0.3,0.3-0.3c0.1,0,0.3,0,0.4,0c0.6,0,1.1,0,1.7,0
		c0.4,0,0.8,0,1.2,0.1c0.3,0.1,0.5,0.2,0.7,0.5c0.3,0.4,0.4,0.9,0.5,1.4c0.1,0.2,0.1,0.2,0.3,0.2c0,0,0.1,0,0.1,0
		c0.1,0,0.1-0.1,0.1-0.2c-0.1-0.6-0.1-1.1-0.2-1.7c0,0,0-0.1,0-0.1c0.1,0,0.1,0,0.1,0.1c1.2,1.2,2,2.6,2.2,4.3
		c0.3,2.9-1.3,5.7-4,6.9c-0.5,0.2-1,0.4-1.6,0.5c-0.1,0-0.2,0-0.2-0.2c0-0.2,0-0.2-0.2-0.3c-0.3,0-0.7-0.1-1-0.2
		c-0.3-0.1-0.5-0.3-0.6-0.6c-0.1-0.2-0.1-0.4-0.1-0.6c0-1.3,0-2.6,0-3.9c0-0.1,0.1-0.2,0.2-0.2c0.7,0,1.5,0,2.2,0
		c0.2,0,0.4,0,0.6,0.1c0.4,0.1,0.6,0.3,0.7,0.6c0.1,0.2,0.1,0.4,0.2,0.7C9.8,9,9.8,9,9.9,9c0.1,0,0.3,0,0.4,0c0,0,0-0.1,0-0.1
		c0-1.1,0-2.2,0-3.4c0-0.1,0-0.2-0.2-0.2c0,0-0.1,0-0.1,0c-0.3,0-0.3,0-0.3,0.3c0,0.2-0.1,0.3-0.1,0.4C9.5,6.5,9.2,6.7,8.8,6.7
		C8.4,6.8,8,6.8,7.6,6.8c-0.5,0-1,0-1.6,0c-0.2,0-0.2,0-0.2-0.2C5.8,5.8,5.8,5,5.8,4.3C5.8,4.3,5.8,4.3,5.8,4.3z M7.6,10.8
		C7.6,10.8,7.6,10.8,7.6,10.8c0-0.2,0-0.3,0-0.5c0-0.1,0-0.2-0.1-0.2c-0.1,0-0.1,0.1-0.1,0.2c0,0.1,0,0.1,0,0.2c0,0.1,0,0.1-0.1,0.1
		c-0.3,0.1-0.4,0-0.4-0.3c0,0,0-0.1,0-0.1c0-0.1-0.1-0.1-0.1-0.1c-0.1,0-0.1,0-0.1,0.1c0,0.4,0,0.7,0,1.1c0,0.1,0.1,0.1,0.1,0.1
		c0.1,0,0.1,0,0.1-0.1c0-0.1,0-0.1,0-0.2c0-0.2,0-0.2,0.2-0.2c0.2,0,0.2,0,0.2,0.2c0,0.1,0,0.1,0,0.2c0,0.1,0,0.1,0.1,0.1
		c0.1,0,0.1,0,0.1-0.1C7.6,11.1,7.6,11,7.6,10.8z M9.3,10.8c0,0.2,0,0.3,0,0.5c0,0.1,0.1,0.2,0.1,0.2c0.1,0,0.1-0.1,0.1-0.1
		c0-0.1,0-0.2,0.1-0.2c0.1-0.1,0.1-0.1,0.2,0c0.1,0.1,0.1,0.2,0.2,0.3c0.1,0.1,0.2,0.1,0.3,0.1c0.1,0,0-0.1,0-0.2
		c-0.1-0.2-0.2-0.3-0.2-0.5c-0.1-0.1-0.1-0.2,0-0.3c0.1-0.1,0.1-0.1,0.2-0.2c0,0,0.1-0.1,0-0.1c0,0-0.1,0-0.1,0
		c-0.1,0-0.2,0.1-0.2,0.2c-0.1,0.1-0.1,0.2-0.2,0.3c0,0,0,0.1-0.1,0c0,0,0-0.1,0-0.1c0-0.1,0-0.2,0-0.3c0-0.1,0-0.1-0.1-0.1
		c-0.1,0-0.1,0.1-0.1,0.1C9.3,10.4,9.3,10.6,9.3,10.8z M8.1,10.8c0,0.2,0,0.3,0,0.5c0,0.1,0,0.2,0.1,0.2c0.1,0,0.1-0.1,0.2-0.2
		c0-0.1,0-0.2,0-0.3c0.1-0.1,0.2,0,0.3,0c0.1,0,0.1,0,0.1-0.1c0-0.1,0-0.1-0.1-0.1c-0.1,0-0.1,0-0.2,0c-0.1,0-0.2,0-0.2-0.2
		c0-0.2,0.1-0.1,0.2-0.1c0.1,0,0.2,0,0.2,0c0.1,0,0.1,0,0.1-0.1c0-0.1-0.1-0.1-0.1-0.1c-0.2,0-0.4,0-0.5,0c-0.1,0-0.2,0.1-0.2,0.2
		C8.1,10.5,8.1,10.6,8.1,10.8z"/>
	<path d="M4.2,7.2c0,1.4,0,2.8,0,4.2c0,0.3,0,0.5-0.1,0.7c0,0.2-0.1,0.3-0.2,0.5c-0.1,0.1-0.2,0.1-0.3,0.1c-1.1-0.6-2-1.5-2.6-2.6
		C0.5,9.3,0.2,8.5,0.1,7.6C0,6.3,0.2,5,0.8,3.8c0.4-0.9,1-1.6,1.8-2.2c0.2-0.1,0.3-0.2,0.5-0.1c0.1,0,0.2,0,0.3,0.1
		c0.5,0.1,0.7,0.4,0.8,0.9c0,0.5,0,0.9,0,1.4C4.2,4.9,4.2,6,4.2,7.2C4.2,7.2,4.2,7.2,4.2,7.2z"/>
	<path d="M3.8,0.8c0.7-0.4,1.5-0.6,2.4-0.7C7.4,0,8.7,0.3,9.8,0.8C9.7,0.9,4.1,0.9,3.8,0.8z"/>
	<path d="M22.7,10.3c0-0.4,0-0.7,0-1.1c0-0.1,0-0.2,0.2-0.2c0.3,0,0.6,0,0.9,0c0.3,0,0.5,0.1,0.6,0.4c0.1,0.3,0,0.5-0.2,0.7
		c-0.1,0.1-0.1,0.1,0,0.2c0.3,0.2,0.3,0.5,0.2,0.8c-0.1,0.3-0.3,0.4-0.6,0.4c-0.3,0-0.6,0-0.9,0c-0.1,0-0.2-0.1-0.2-0.2
		C22.7,11,22.7,10.7,22.7,10.3C22.7,10.3,22.7,10.3,22.7,10.3z M23.4,10.4C23.4,10.4,23.4,10.4,23.4,10.4c-0.1,0-0.2,0-0.3,0
		c-0.1,0-0.1,0-0.1,0.1c0,0.2,0,0.4,0,0.6c0,0.1,0,0.1,0.1,0.1c0.2,0,0.4,0,0.6,0c0.2,0,0.4-0.2,0.4-0.4c0-0.3-0.1-0.5-0.4-0.5
		C23.6,10.4,23.5,10.4,23.4,10.4z M23,9.7c0,0.1,0,0.2,0,0.3c0,0.1,0,0.1,0.1,0.1c0.2,0,0.4,0,0.6,0c0.3,0,0.4-0.2,0.4-0.5
		c0-0.2-0.2-0.3-0.4-0.3c-0.1,0-0.2,0-0.3,0C22.9,9.3,23,9.3,23,9.7z"/>
	<path d="M28.1,10.7c0-0.2,0-0.4,0-0.7c0-0.2,0.1-0.2,0.2-0.2c0.1,0,0.2,0,0.3,0c0.2-0.1,0.5-0.1,0.7,0.1c0.1,0.1,0.1,0.1,0.2,0
		c0.2-0.2,0.5-0.2,0.7-0.1c0.2,0.1,0.3,0.3,0.3,0.6c0,0.3,0,0.6,0,0.9c0,0.1,0,0.2-0.1,0.2c-0.1,0-0.1-0.1-0.1-0.2
		c0-0.3,0-0.5,0-0.8c0-0.1,0-0.2,0-0.2c-0.1-0.2-0.2-0.3-0.4-0.3c-0.2,0-0.4,0.2-0.4,0.4c0,0.3,0,0.6,0,0.9c0,0.1,0,0.2-0.1,0.2
		c-0.1,0-0.2,0-0.2-0.2c0-0.3,0-0.6,0-0.8c0-0.3-0.2-0.5-0.4-0.5c-0.2,0-0.4,0.2-0.4,0.4c0,0.3,0,0.6,0,0.9c0,0.1,0,0.2-0.1,0.2
		c-0.1,0-0.2,0-0.2-0.2C28.2,11.2,28.2,10.9,28.1,10.7C28.2,10.7,28.2,10.7,28.1,10.7z"/>
	<path d="M16,10.3c0-0.4,0-0.7,0-1.1c0-0.1,0-0.2,0.1-0.2c0.1,0,0.2,0.1,0.2,0.2c0,0.2,0,0.5,0,0.7c0,0.1,0,0.2,0.2,0.2
		c0.3,0,0.5,0,0.8,0c0.1,0,0.2,0,0.2-0.2c0-0.3,0-0.5,0-0.8c0-0.1,0-0.2,0.1-0.2c0.1,0,0.2,0.1,0.2,0.2c0,0.7,0,1.5,0,2.2
		c0,0.1,0,0.2-0.2,0.2c-0.1,0-0.2-0.1-0.2-0.2c0-0.3,0-0.5,0-0.8c0-0.1,0-0.2-0.1-0.2c-0.3,0-0.6,0-0.8,0c-0.1,0-0.2,0-0.2,0.2
		c0,0.3,0,0.5,0,0.8c0,0.1,0,0.2-0.1,0.2c-0.1,0-0.2-0.1-0.2-0.2C16,11,16,10.7,16,10.3C16,10.3,16,10.3,16,10.3z"/>
	<path d="M19.9,10.4c0.2-0.3,0.4-0.5,0.6-0.8c0.1-0.1,0.2-0.3,0.3-0.4c0,0,0.1-0.1,0.1-0.1c0.1,0,0.2,0,0.2,0c0.1,0.1,0,0.1-0.1,0.2
		c-0.2,0.2-0.3,0.4-0.5,0.6c-0.1,0.1-0.1,0.2,0,0.3c0.2,0.4,0.5,0.8,0.7,1.2c0.1,0.1,0,0.1-0.1,0.2c-0.1,0-0.2,0-0.3-0.2
		c-0.2-0.3-0.4-0.7-0.6-1c-0.1-0.1-0.1-0.1-0.2,0c-0.1,0.1-0.2,0.3-0.3,0.4c-0.1,0.1-0.1,0.1-0.1,0.2c0,0.1,0,0.3,0,0.4
		c0,0.1-0.1,0.1-0.2,0.1c-0.1,0-0.1-0.1-0.1-0.2c0-0.7,0-1.4,0-2.1c0-0.1,0-0.2,0.1-0.2c0.1,0,0.2,0,0.2,0.2c0,0.3,0,0.6,0,0.9
		C19.9,10.2,19.9,10.3,19.9,10.4z"/>
	<path d="M22.5,6.3c0,0.4,0,0.7,0,1.1c0,0.2-0.1,0.2-0.2,0.2c-0.1,0-0.2,0-0.3,0c-0.5,0.2-0.8-0.1-0.9-0.6c0-0.2,0-0.4,0-0.6
		c0.1-0.4,0.5-0.7,0.9-0.5c0.2,0.1,0.2,0,0.2-0.1c0-0.2,0-0.3,0-0.5c0-0.1,0-0.2,0.2-0.2c0.1,0,0.2,0.1,0.2,0.2
		C22.5,5.5,22.5,5.9,22.5,6.3z M22.2,6.7c0-0.2,0-0.3-0.1-0.5C22,6,21.9,6,21.7,6c-0.1,0-0.2,0.1-0.2,0.2c-0.1,0.3-0.1,0.5,0,0.8
		c0.1,0.2,0.2,0.3,0.4,0.3c0.2,0,0.3-0.2,0.3-0.4C22.2,6.8,22.2,6.7,22.2,6.7z"/>
	<path d="M39.5,2.2c0,0.4,0,0.7,0,1.1c0,0.2-0.1,0.2-0.2,0.1c-0.1,0-0.1,0-0.1,0c-0.1,0-0.1,0-0.2,0.1c-0.4,0.1-0.7-0.1-0.8-0.5
		c-0.1-0.3-0.1-0.5,0-0.8c0.1-0.5,0.4-0.6,0.9-0.5c0.2,0.1,0.2,0.1,0.2-0.1c0-0.1,0-0.3,0-0.4c0-0.1,0-0.2,0.1-0.2
		c0.1,0,0.1,0.1,0.1,0.2c0,0.2,0,0.3,0,0.5C39.5,1.8,39.5,2,39.5,2.2C39.5,2.2,39.5,2.2,39.5,2.2z M38.4,2.5c0,0.1,0,0.3,0.1,0.4
		c0.1,0.2,0.2,0.2,0.4,0.2c0.2,0,0.3-0.1,0.3-0.3c0.1-0.2,0.1-0.4,0-0.7c-0.1-0.2-0.2-0.3-0.4-0.3c-0.2,0-0.3,0.1-0.4,0.3
		C38.4,2.3,38.4,2.4,38.4,2.5z"/>
	<path d="M36.2,6.3c0,0.3,0,0.7,0,1c0,0.2,0,0.3-0.2,0.2c-0.1,0-0.1,0-0.2,0c-0.4,0.2-0.9,0-0.9-0.6c0-0.2,0-0.4,0-0.6
		c0-0.5,0.6-0.7,0.9-0.5c0.1,0.1,0.2,0,0.2-0.1c0-0.2,0-0.3,0-0.5c0-0.1,0-0.2,0.1-0.2c0.1,0,0.1,0.1,0.1,0.2
		C36.2,5.5,36.2,5.9,36.2,6.3C36.2,6.3,36.2,6.3,36.2,6.3z M35.9,6.6c0-0.1,0-0.3-0.1-0.4C35.8,6.1,35.7,6,35.5,6
		c-0.2,0-0.3,0.1-0.3,0.2c-0.1,0.3-0.1,0.5,0,0.8c0.1,0.2,0.2,0.3,0.4,0.3c0.2,0,0.3-0.1,0.4-0.3C35.9,6.9,35.9,6.8,35.9,6.6z"/>
	<path d="M26.9,2.2c0,0.4,0,0.7,0,1.1c0,0.2-0.1,0.2-0.3,0.1c-0.1,0-0.1,0-0.2,0c-0.1,0-0.2,0.1-0.4,0.1c-0.4,0-0.5-0.2-0.6-0.6
		c0-0.2,0-0.4,0-0.6c0.1-0.5,0.4-0.7,0.8-0.6c0.2,0.1,0.2,0.1,0.2-0.2c0-0.1,0-0.3,0-0.4c0-0.1,0-0.2,0.2-0.2c0.1,0,0.1,0.1,0.1,0.2
		C26.9,1.5,26.9,1.8,26.9,2.2C26.9,2.2,26.9,2.2,26.9,2.2z M25.8,2.6c0,0.1,0,0.2,0,0.3c0.1,0.2,0.2,0.3,0.4,0.3
		c0.2,0,0.3-0.1,0.4-0.3c0.1-0.2,0.1-0.5,0-0.7c-0.1-0.2-0.2-0.3-0.3-0.3c-0.2,0-0.3,0.1-0.4,0.2C25.8,2.3,25.8,2.4,25.8,2.6z"/>
	<path d="M26.4,6.3c0-0.3,0-0.7,0-1c0-0.1,0-0.2,0.2-0.2c0.2,0,0.2,0.1,0.2,0.2c0,0.4,0,0.8,0,1.1c0,0.1,0,0.1,0,0.1
		c0.1,0,0.1-0.1,0.1-0.1c0.1-0.2,0.3-0.3,0.4-0.5c0-0.1,0.1-0.1,0.2-0.1c0.1,0,0.2-0.1,0.2,0c0,0.1-0.1,0.1-0.1,0.2
		c-0.1,0.1-0.2,0.2-0.3,0.4c-0.1,0.1-0.1,0.1,0,0.2c0.2,0.2,0.3,0.5,0.5,0.7c0,0.1,0.2,0.1,0.1,0.2c-0.1,0.1-0.2,0.1-0.3-0.1
		c-0.1-0.1-0.1-0.2-0.2-0.2c-0.1-0.1-0.2-0.3-0.3-0.4c0-0.1-0.1-0.1-0.2,0c-0.2,0.2-0.3,0.3-0.2,0.6c0,0.1,0,0.2-0.1,0.2
		c-0.1,0-0.2-0.1-0.2-0.2C26.4,7,26.4,6.6,26.4,6.3C26.4,6.3,26.4,6.3,26.4,6.3z"/>
	<path d="M16,2.2c0-0.4,0-0.7,0-1.1c0-0.1,0-0.2,0.2-0.2c0.4,0,0.8,0,1.2,0c0.1,0,0.2,0,0.2,0.1c0,0.1-0.1,0.1-0.2,0.1
		c-0.3,0-0.6,0-0.9,0c-0.1,0-0.2,0-0.2,0.2c0,0.2,0,0.3,0,0.5c0,0.1,0,0.2,0.2,0.2c0.2,0,0.5,0,0.7,0c0.1,0,0.1,0,0.2,0
		c0,0,0,0.1,0,0.1c0,0.1-0.1,0.1-0.1,0.1c-0.3,0-0.5,0-0.8,0c-0.1,0-0.2,0-0.2,0.2c0,0.2,0,0.5,0,0.7c0,0.1,0,0.2-0.2,0.2
		C16,3.4,16,3.4,16,3.3C16,2.9,16,2.5,16,2.2C16,2.2,16,2.2,16,2.2z"/>
	<path d="M16,6.2c0-0.4,0-0.7,0-1.1C16,5,16.1,5,16.2,5c0.4,0,0.8,0,1.1,0c0.1,0,0.1,0,0.2,0c0.1,0,0.1,0,0.1,0.1
		c0,0.1-0.1,0.1-0.1,0.1c-0.3,0-0.7,0-1,0c-0.1,0-0.2,0.1-0.2,0.2c0,0.2,0,0.3,0,0.5c0,0.1,0,0.2,0.2,0.2c0.2,0,0.4,0,0.6,0
		c0,0,0.1,0,0.1,0c0.1,0,0.1,0.1,0.1,0.2c0,0.1-0.1,0.1-0.2,0.1c-0.2,0-0.4,0-0.7,0c-0.3,0-0.3,0-0.3,0.3c0,0.2,0,0.4,0,0.6
		c0,0.1,0,0.2-0.2,0.2C16,7.5,16,7.4,16,7.3C16,6.9,16,6.6,16,6.2C16,6.2,16,6.2,16,6.2z"/>
	<path d="M27.1,10.8c-0.1,0-0.3,0-0.4,0c-0.1,0-0.1,0.1-0.1,0.2c0,0.2,0.1,0.3,0.3,0.4c0.2,0.1,0.3,0.1,0.5-0.1c0,0,0.1-0.1,0.1-0.1
		c0.1,0,0.1,0,0.2,0.1c0,0.1,0,0.1-0.1,0.2c-0.5,0.4-1.2,0.1-1.3-0.5c-0.1-0.6,0.1-1,0.5-1.1c0.3-0.1,0.5,0,0.7,0.2
		c0.2,0.2,0.2,0.4,0.2,0.7c0,0.1-0.1,0.1-0.1,0.1C27.4,10.8,27.2,10.8,27.1,10.8C27.1,10.8,27.1,10.8,27.1,10.8z M27,10.5
		c0.1,0,0.2,0,0.3,0c0.1,0,0.1,0,0.1-0.1c0-0.2-0.2-0.4-0.4-0.4c-0.2,0-0.4,0.2-0.4,0.4c0,0.1,0,0.1,0.1,0.1
		C26.8,10.5,26.9,10.5,27,10.5z"/>
	<path d="M32,10.8c-0.1,0-0.3,0-0.4,0c-0.1,0-0.1,0-0.1,0.1c0,0.4,0.4,0.5,0.7,0.4c0,0,0.1,0,0.1-0.1c0.1,0,0.2,0,0.2,0.1
		c0.1,0.1,0,0.1-0.1,0.2c-0.4,0.3-1.2,0.3-1.3-0.5c0-0.3,0-0.5,0.1-0.8c0.1-0.3,0.4-0.4,0.7-0.4c0.4,0.1,0.6,0.3,0.6,0.6
		c0.1,0.4,0.1,0.4-0.3,0.4C32.2,10.8,32.1,10.8,32,10.8z M31.9,10.5c0.1,0,0.2,0,0.3,0c0.1,0,0.1-0.1,0.1-0.1c0-0.2-0.2-0.4-0.4-0.3
		c-0.2,0-0.4,0.2-0.4,0.4c0,0.1,0,0.1,0.1,0.1C31.6,10.5,31.8,10.5,31.9,10.5z"/>
	<path d="M30.4,6.7c-0.1,0-0.3,0-0.4,0c-0.1,0-0.1,0-0.1,0.1c0.1,0.3,0.4,0.5,0.7,0.4c0.1,0,0.1-0.1,0.2-0.1c0.1,0,0.1,0,0.2,0.1
		c0,0.1,0,0.1,0,0.2c-0.3,0.2-0.5,0.2-0.8,0.1c-0.3-0.1-0.4-0.3-0.5-0.6c0-0.3,0-0.5,0.1-0.8c0.1-0.3,0.4-0.4,0.7-0.4
		c0.3,0,0.5,0.2,0.6,0.4c0,0,0,0,0,0.1c0.1,0.4,0.1,0.5-0.3,0.5C30.5,6.7,30.5,6.7,30.4,6.7z M30.3,6.5C30.3,6.5,30.3,6.5,30.3,6.5
		c0.1,0,0.2,0,0.3,0c0.1,0,0.1-0.1,0.1-0.2c0-0.2-0.2-0.3-0.4-0.3c-0.2,0-0.3,0.1-0.4,0.3c0,0.2,0,0.2,0.2,0.2
		C30.1,6.5,30.2,6.5,30.3,6.5z"/>
	<path d="M28.4,2.6c-0.1,0-0.3,0-0.4,0c-0.1,0-0.1,0.1-0.1,0.2c0.1,0.3,0.4,0.5,0.7,0.3c0.1,0,0.1-0.1,0.2-0.1c0.1,0,0.1,0,0.2,0.1
		c0,0.1,0,0.1-0.1,0.2c-0.3,0.2-0.6,0.2-0.9,0.1c-0.3-0.1-0.4-0.3-0.4-0.6c0-0.2,0-0.4,0-0.6c0.1-0.4,0.4-0.6,0.8-0.6
		c0.3,0,0.6,0.3,0.6,0.7c0,0.3,0,0.3-0.3,0.3C28.6,2.6,28.5,2.6,28.4,2.6C28.4,2.6,28.4,2.6,28.4,2.6z M28.2,2.4
		C28.2,2.4,28.2,2.4,28.2,2.4c0.1,0,0.2,0,0.3,0c0.1,0,0.1,0,0.1-0.1c0-0.2-0.2-0.4-0.4-0.4c-0.2,0-0.4,0.1-0.4,0.3
		c0,0.1,0,0.2,0.2,0.2C28.1,2.4,28.2,2.4,28.2,2.4z"/>
	<path d="M20.3,2.6c-0.1,0-0.3,0-0.4,0c-0.1,0-0.1,0.1-0.1,0.2c0.1,0.3,0.4,0.5,0.7,0.3c0,0,0.1-0.1,0.1-0.1c0.1,0,0.1,0,0.2,0.1
		c0,0.1,0,0.1,0,0.2c-0.3,0.3-1.1,0.3-1.3-0.4c-0.1-0.3-0.1-0.6,0-0.8c0.1-0.3,0.3-0.4,0.7-0.4c0.3,0,0.5,0.2,0.6,0.5
		c0.2,0.4,0.1,0.5-0.4,0.5C20.4,2.6,20.3,2.6,20.3,2.6C20.3,2.6,20.3,2.6,20.3,2.6z M20.1,2.4C20.1,2.4,20.1,2.4,20.1,2.4
		c0.1,0,0.2,0,0.3,0c0.1,0,0.1,0,0.1-0.1c0-0.2-0.2-0.4-0.4-0.4c-0.2,0-0.4,0.1-0.5,0.3c0,0.1,0,0.2,0.1,0.2
		C19.9,2.4,20,2.4,20.1,2.4z"/>
	<path d="M23.9,6.7c-0.1,0-0.3,0-0.4,0c-0.1,0-0.1,0-0.1,0.2c0.1,0.3,0.4,0.5,0.7,0.3c0.1,0,0.2-0.2,0.3,0c0.1,0.2-0.1,0.2-0.2,0.3
		c-0.5,0.2-1.1,0.1-1.1-0.6c0-0.2,0-0.4,0-0.6c0.1-0.3,0.4-0.5,0.7-0.5c0.3,0,0.6,0.3,0.6,0.6c0.1,0.4,0.1,0.4-0.3,0.4
		C24,6.7,24,6.7,23.9,6.7z M23.7,6.5C23.7,6.5,23.7,6.5,23.7,6.5c0.1,0,0.2,0,0.3,0c0.1,0,0.1,0,0.1-0.1C24.1,6.2,24,6,23.8,6
		c-0.2,0-0.4,0.1-0.4,0.3c-0.1,0.2,0,0.2,0.2,0.2C23.6,6.5,23.7,6.5,23.7,6.5z"/>
	<path d="M19.4,6.6c0,0.1,0,0.3-0.1,0.4c-0.1,0.3-0.4,0.5-0.7,0.5C18.3,7.5,18,7.3,18,7c0-0.2-0.1-0.4,0-0.6C18,6,18.3,5.7,18.6,5.7
		c0.3,0,0.6,0.2,0.7,0.6C19.4,6.4,19.4,6.5,19.4,6.6z M19,6.6C19,6.6,19,6.6,19,6.6c0-0.1,0-0.1,0-0.2C19,6.2,18.9,6,18.7,6
		c-0.2,0-0.4,0.2-0.4,0.4c0,0.1,0,0.3,0,0.4c0,0.3,0.2,0.4,0.4,0.4c0.2,0,0.4-0.2,0.4-0.4C19,6.8,19,6.7,19,6.6z"/>
	<path d="M37.6,6.7c-0.2,0-0.3,0-0.5,0c-0.1,0-0.1,0-0.1,0.1c0.1,0.4,0.5,0.5,0.8,0.3c0.1-0.1,0.1,0,0.2,0c0.1,0.1,0.1,0.1,0,0.2
		c-0.5,0.3-1.2,0.2-1.3-0.5c0-0.2,0-0.4,0-0.6c0.1-0.3,0.3-0.5,0.7-0.5c0.3,0,0.6,0.2,0.7,0.5c0.2,0.4,0.1,0.5-0.4,0.5
		C37.7,6.7,37.6,6.7,37.6,6.7C37.6,6.7,37.6,6.7,37.6,6.7z M37.4,6.5c0.1,0,0.2,0,0.3,0c0.1,0,0.2-0.1,0.1-0.2
		c0-0.2-0.3-0.4-0.4-0.3C37.2,6,37,6.2,37,6.4c0,0.1,0,0.1,0.1,0.1C37.2,6.5,37.3,6.5,37.4,6.5z"/>
	<path d="M23.5,2.6c0-0.2,0-0.4,0-0.7c0-0.2,0-0.2,0.2-0.2c0.1,0,0.2,0,0.3,0c0.5-0.2,0.8,0,0.9,0.6c0,0.3,0,0.7,0,1
		c0,0.1-0.1,0.2-0.2,0.2c-0.1,0-0.1-0.1-0.1-0.2c0-0.3,0-0.6,0-0.9c0-0.3-0.1-0.4-0.4-0.4c-0.3,0-0.4,0.1-0.4,0.4c0,0.3,0,0.6,0,0.9
		c0,0.1,0,0.2-0.2,0.2c-0.1,0-0.2-0.1-0.2-0.2C23.5,3,23.5,2.8,23.5,2.6C23.5,2.6,23.5,2.6,23.5,2.6z"/>
	<path d="M22.8,2.6c0,0.2,0,0.4,0,0.6c0,0.2-0.1,0.3-0.3,0.2c-0.1,0-0.1,0-0.2,0c-0.2,0.1-0.3,0.1-0.5,0c-0.3,0-0.4-0.2-0.4-0.5
		c-0.1-0.4,0-0.8,0-1.1c0-0.1,0.1-0.2,0.2-0.1c0.1,0,0.1,0.1,0.1,0.2c0,0.3,0,0.6,0,0.9c0,0.2,0,0.3,0.2,0.4c0.2,0.1,0.3,0.1,0.4,0
		C22.5,3,22.5,3,22.5,2.8c0-0.3,0-0.6,0-0.9c0-0.1,0-0.2,0.1-0.2c0.1,0,0.2,0.1,0.2,0.2C22.8,2.1,22.8,2.3,22.8,2.6z"/>
	<path d="M35.4,2.6c0,0.2,0,0.5,0,0.7c0,0.2-0.1,0.2-0.2,0.1c-0.1-0.1-0.1,0-0.2,0c-0.1,0.1-0.3,0.1-0.5,0.1c-0.3,0-0.4-0.2-0.5-0.5
		c-0.1-0.4,0-0.8,0-1.2c0-0.1,0.1-0.1,0.2-0.1c0.1,0,0.2,0,0.2,0.1c0,0.2,0,0.4,0,0.6c0,0.1,0,0.2,0,0.3c0,0.3,0.1,0.4,0.4,0.4
		c0.2,0,0.4-0.2,0.4-0.4c0-0.3,0-0.5,0-0.8c0,0,0-0.1,0-0.1c0-0.1,0-0.1,0.1-0.1c0.1,0,0.1,0.1,0.1,0.1C35.4,2.1,35.4,2.3,35.4,2.6
		C35.4,2.6,35.4,2.6,35.4,2.6z"/>
	<path d="M30.2,1.7c0.2,0,0.3,0,0.4,0.1c0.1,0,0.1,0,0.1,0.1C30.7,2,30.6,2,30.5,2c-0.1,0-0.2-0.1-0.3-0.1c-0.1,0-0.2,0-0.3,0
		c-0.1,0-0.2,0.1-0.1,0.2c0,0.1,0.1,0.2,0.2,0.2c0.1,0,0.3,0,0.4,0c0.4,0,0.5,0.3,0.5,0.6c0,0.2-0.2,0.2-0.3,0.3
		c-0.3,0.1-0.7,0.1-1,0c-0.1,0-0.2-0.1-0.1-0.2c0.1-0.1,0.2-0.1,0.3,0c0.2,0.1,0.4,0.1,0.6,0.1c0.2,0,0.3-0.1,0.3-0.2
		c0-0.2-0.1-0.2-0.3-0.2c-0.1,0-0.3,0-0.4,0c-0.2,0-0.4-0.2-0.4-0.4c0-0.2,0.1-0.4,0.3-0.5C29.9,1.7,30,1.7,30.2,1.7z"/>
	<path d="M33,5.7c0.2,0,0.3,0,0.4,0.1c0.1,0,0.2,0.1,0.1,0.2c0,0.1-0.1,0.1-0.2,0.1C33.1,6,33,6,32.8,6c-0.1,0-0.2,0.1-0.2,0.2
		c0,0.1,0.1,0.2,0.2,0.2c0.1,0,0.3,0,0.4,0.1c0.2,0,0.4,0.2,0.4,0.4c0,0.2-0.1,0.4-0.3,0.5c-0.3,0.2-0.7,0.1-1,0
		c-0.1,0-0.2-0.1-0.1-0.2c0.1-0.1,0.1-0.1,0.2,0c0.2,0.1,0.4,0.1,0.6,0.1c0.1,0,0.2-0.1,0.3-0.2c0-0.2,0-0.2-0.2-0.3
		c-0.2,0-0.3,0-0.5-0.1c-0.2,0-0.4-0.2-0.4-0.4c0-0.2,0.1-0.4,0.3-0.5C32.7,5.7,32.8,5.7,33,5.7z"/>
	<path d="M36.2,2.6c0-0.2,0-0.5,0-0.7c0-0.2,0.1-0.2,0.2-0.1c0.1,0,0.1,0,0.2,0c0.2-0.1,0.4-0.1,0.6,0c0.2,0.1,0.3,0.2,0.3,0.4
		c0.1,0.4,0,0.8,0,1.2c0,0.1-0.1,0.1-0.1,0.1c-0.1,0-0.1-0.1-0.1-0.1c0-0.2,0-0.3,0-0.5c0-0.1,0-0.3,0-0.4c0-0.3-0.1-0.4-0.4-0.4
		c-0.3,0-0.4,0.1-0.4,0.4c0,0.3,0,0.6,0,0.9c0,0.1,0,0.1-0.1,0.2c-0.1,0-0.2,0-0.2-0.2C36.2,3,36.2,2.8,36.2,2.6
		C36.2,2.6,36.2,2.6,36.2,2.6z"/>
	<path d="M33.1,10.7c0-0.2,0-0.5,0-0.7c0-0.2,0.1-0.2,0.2-0.1c0.1,0,0.1,0,0.2,0c0.2-0.1,0.3-0.1,0.5-0.1c0.3,0.1,0.5,0.3,0.5,0.6
		c0,0.3,0,0.7,0,1c0,0.1,0,0.2-0.1,0.2c-0.1,0-0.1-0.1-0.1-0.2c0-0.3,0-0.6,0-0.9c0-0.3-0.2-0.4-0.5-0.4c-0.2,0-0.3,0.2-0.4,0.4
		c0,0.3,0,0.6,0,0.9c0,0.1,0,0.1-0.1,0.2c-0.1,0-0.2,0-0.2-0.1C33.1,11.2,33.1,10.9,33.1,10.7z"/>
	<path d="M18.8,10.8c0,0.2,0,0.4,0,0.6c0,0.1,0,0.2-0.1,0.2c-0.1,0-0.1-0.1-0.1-0.2c0-0.4,0-0.7,0-1.1c0-0.1,0-0.2-0.1-0.2
		c-0.1,0-0.1-0.1-0.1-0.1c0-0.1,0-0.1,0.1-0.1c0.1,0,0.1-0.1,0.1-0.2c0-0.1,0-0.2,0-0.2c0-0.3,0.2-0.4,0.5-0.4c0.1,0,0.2,0,0.2,0.1
		c0,0.1-0.1,0.1-0.2,0.1c-0.2,0-0.3,0.3-0.2,0.5c0,0.1,0.1,0,0.2,0c0.1,0,0.2,0,0.2,0.1c0,0.1-0.1,0.1-0.2,0.1c-0.1,0-0.2,0-0.2,0.2
		C18.8,10.4,18.8,10.6,18.8,10.8C18.8,10.8,18.8,10.8,18.8,10.8z"/>
	<path d="M19.8,6.6c0-0.2,0-0.5,0-0.7c0-0.2,0.1-0.2,0.2-0.2c0.1,0,0.2,0,0.3,0c0.2-0.1,0.4-0.1,0.5,0C21,5.8,21,5.9,21,6
		c0,0.1-0.1,0.1-0.2,0.1c0,0-0.1,0-0.1,0c-0.3-0.1-0.5,0-0.5,0.3c0,0.3,0,0.6,0,1c0,0.1,0,0.2-0.1,0.2c-0.1,0-0.2,0-0.2-0.2
		C19.8,7.1,19.8,6.9,19.8,6.6z"/>
	<path d="M18.3,2.8c0,0.2,0,0.3,0,0.5c0,0.1-0.1,0.2-0.2,0.2c-0.1,0-0.1-0.1-0.1-0.2c0-0.5,0-1,0-1.4c0-0.1,0.1-0.2,0.2-0.1
		c0.1,0,0.3,0,0.4,0c0.2-0.1,0.3,0,0.5,0c0.1,0,0.2,0.1,0.1,0.1C19.1,2,19.1,2,19,2c0,0-0.1,0-0.1,0c-0.3-0.1-0.5,0-0.5,0.3
		C18.3,2.5,18.3,2.6,18.3,2.8C18.3,2.8,18.3,2.8,18.3,2.8z"/>
	<path d="M28.3,6.6c0-0.2,0-0.5,0-0.7c0-0.2,0.1-0.2,0.2-0.2c0.1,0,0.2,0,0.3,0c0.2-0.1,0.3-0.1,0.5,0c0.1,0,0.2,0.1,0.1,0.2
		c0,0.1-0.1,0.1-0.2,0.1c-0.5-0.1-0.6,0-0.6,0.5c0,0.2,0,0.5,0,0.7c0,0.1,0,0.2-0.2,0.2c-0.2,0-0.2-0.1-0.2-0.2
		C28.3,7.1,28.3,6.8,28.3,6.6C28.3,6.6,28.3,6.6,28.3,6.6z"/>
	<path d="M24.9,6.6c0-0.2,0-0.5,0-0.7c0-0.2,0.1-0.2,0.2-0.1c0.1,0,0.2,0,0.3,0c0.2-0.1,0.3-0.1,0.5,0c0.1,0,0.2,0.1,0.1,0.2
		c0,0.1-0.1,0.2-0.3,0.1c0,0-0.1,0-0.1,0c-0.3-0.1-0.5,0-0.5,0.3c0,0.3,0,0.6,0,0.9c0,0.1,0,0.2-0.1,0.2C25,7.5,25,7.4,25,7.3
		C25,7.1,25,6.9,24.9,6.6C25,6.6,25,6.6,24.9,6.6z"/>
	<path d="M38.9,6.9c0,0.1,0,0.3,0,0.4c0,0.1-0.1,0.1-0.1,0.1c-0.1,0-0.1,0-0.1-0.1c0-0.5,0-1,0-1.5c0-0.1,0.1-0.2,0.2-0.1
		c0.1,0.1,0.2,0,0.3,0c0.2-0.1,0.3-0.1,0.5,0c0.1,0,0.1,0.1,0.1,0.1c0,0.1-0.1,0.1-0.2,0.1c-0.1,0-0.1,0-0.2,0C39.2,6,39,6.1,39,6.3
		C38.9,6.5,38.9,6.7,38.9,6.9z"/>
	<path d="M25,10.7c0-0.2,0-0.4,0-0.7c0-0.2,0-0.2,0.2-0.2c0.1,0,0.2,0,0.3,0c0.2-0.1,0.3-0.1,0.5,0c0.1,0,0.2,0.1,0.1,0.1
		c0,0.1-0.1,0.2-0.2,0.2c0,0-0.1,0-0.1,0c-0.3-0.1-0.5,0-0.5,0.4c0,0.3,0,0.6,0,0.9c0,0.1,0,0.1-0.1,0.2c-0.1,0.1-0.2,0-0.2-0.1
		C25,11.2,25,10.9,25,10.7C25,10.7,25,10.7,25,10.7z"/>
	<path d="M31.5,6.6c0-0.2,0-0.5,0-0.7c0-0.1,0-0.1,0.1-0.1c0.1,0,0.2,0,0.2,0.1c0,0.1,0,0.2,0,0.3c0,0.4,0,0.7,0,1.1
		c0,0.1,0,0.2-0.2,0.2c-0.1,0-0.2-0.1-0.2-0.2C31.5,7.1,31.5,6.8,31.5,6.6C31.5,6.6,31.5,6.6,31.5,6.6z"/>
	<path d="M31.8,2.3c0.1,0,0.2,0,0.4,0c0.1,0,0.2,0,0.2,0.1c0,0.1-0.1,0.1-0.2,0.1c-0.2,0-0.4,0-0.6,0c-0.1,0-0.2,0-0.2-0.1
		c0-0.1,0.1-0.1,0.2-0.1C31.6,2.3,31.7,2.3,31.8,2.3C31.8,2.3,31.8,2.3,31.8,2.3z"/>
</g>
</svg>
