<?xml version="1.0" encoding="utf-8"?>
<!-- Generator: $$$/GeneralStr/196=Adobe Illustrator 27.6.0, SVG Export Plug-In . SVG Version: 6.00 Build 0)  -->
<svg version="1.1" id="Ebene_1" xmlns="http://www.w3.org/2000/svg" xmlns:xlink="http://www.w3.org/1999/xlink" x="0px" y="0px"
	 viewBox="0 0 40 13.9" style="enable-background:new 0 0 40 13.9;" xml:space="preserve">
<style type="text/css">
	.st0{fill:#FFFFFF;}
	.st1{fill:#070707;}
</style>
<g>
	<path d="M0.3,7c0-2.2,0-4.5,0-6.7c0-0.2,0-0.2,0.2-0.2c3.8,0,7.7,0,11.5,0c0.1,0,0.1,0,0.1,0.1c0,0.6,0,1.1,0,1.7
		c0,0.1,0,0.1-0.2,0.1c-3.1,0-6.3,0-9.4,0c-0.2,0-0.2,0-0.2,0.2c0,1.2,0,2.3,0,3.5c0,0.1,0,0.1,0.1,0.1c2.7,0,5.4,0,8,0
		c0.3,0,0.2,0,0.2,0.2c0,0.5,0,1.1,0,1.6c0,0.1,0,0.1-0.1,0.1c-2.7,0-5.4,0-8.1,0c0,0-0.1,0-0.1,0c-0.1,0-0.1,0-0.1,0.1
		c0,0.1,0,0.1,0,0.2c0,1.1,0,2.3,0,3.4c0,0.2,0,0.2,0.2,0.2c3.1,0,6.3,0,9.4,0c0,0,0.1,0,0.1,0c0.1,0,0.1,0,0.1,0.1
		c0,0.6,0,1.2,0,1.8c0,0.1,0,0.1-0.1,0.1c0,0-0.1,0-0.1,0c-3.8,0-7.6,0-11.4,0c0,0-0.1,0-0.1,0c-0.1,0-0.1,0-0.1-0.1
		c0-0.1,0-0.2,0-0.3C0.3,11.4,0.3,9.2,0.3,7C0.3,7,0.3,7,0.3,7z"/>
	<path d="M32.8,10.6c-1.6,0-3.3,0-4.9,0c-0.2,0-0.2,0-0.2,0.2c0,1,0,2,0,3c0,0.2,0,0.2-0.2,0.2c-0.6,0-1.1,0-1.7,0
		c-0.1,0-0.1,0-0.1-0.1c0-2.2,0-4.4,0-6.6c0-0.8,0.3-1.5,0.9-2c0.2-0.2,0.5-0.5,0.7-0.7c0.8-0.7,1.5-1.4,2.3-2.2
		c0.6-0.6,1.3-1.2,1.9-1.9c0.1-0.1,0.1-0.1,0.2-0.1c0,0,0.1-0.1,0.2-0.1c0.6,0,1.2,0,1.8,0c0.1,0,0.1,0,0.2,0.1
		c0.4,0.3,0.7,0.7,1.1,1c0.8,0.7,1.5,1.5,2.3,2.2c0.6,0.6,1.3,1.2,1.9,1.8c0.5,0.5,0.8,1.2,0.8,1.9c0,2.2,0,4.4,0,6.6
		c0,0.1,0,0.1-0.2,0.1c-0.6,0-1.1,0-1.7,0c-0.1,0-0.1,0-0.1-0.1c0-1,0-2,0-3.1c0-0.1,0-0.1-0.1-0.1C36,10.6,34.4,10.6,32.8,10.6
		C32.8,10.6,32.8,10.6,32.8,10.6z M32.8,8.6c1.6,0,3.3,0,4.9,0c0.1,0,0.1,0,0.1-0.1c0-0.4,0-0.8,0-1.2c0-0.1,0-0.2-0.1-0.3
		c-0.1-0.2-0.2-0.3-0.4-0.5c-0.3-0.3-0.6-0.6-0.9-0.9c-0.4-0.4-0.9-0.8-1.3-1.2c-0.8-0.8-1.6-1.5-2.4-2.3c-0.1-0.1-0.1-0.1-0.2,0
		c-0.3,0.3-0.6,0.6-0.9,0.9c-0.7,0.7-1.4,1.4-2.1,2c-0.3,0.3-0.6,0.6-1,0.9c-0.2,0.2-0.5,0.5-0.7,0.7c-0.2,0.2-0.3,0.4-0.3,0.6
		c0,0.4,0,0.8,0,1.1c0,0.2,0,0.2,0.2,0.2C29.5,8.6,31.2,8.6,32.8,8.6z"/>
	<path d="M14,7.1c0-2.2,0-4.5,0-6.7c0-0.2,0-0.2,0.2-0.2c0.6,0,1.1,0,1.7,0c0.1,0,0.1,0,0.1,0.1c0,1.9,0,3.8,0,5.7
		c0,0.1,0,0.1,0.1,0.1c0.6,0,1.2,0,1.8,0c1.3,0,2.5-0.4,3.6-1.3c1.1-0.9,1.8-2.1,2.1-3.5c0.1-0.3,0.1-0.6,0.1-0.9
		c0-0.1,0-0.1,0.1-0.1c0.6,0,1.1,0,1.7,0c0.1,0,0.1,0,0.1,0.1c0,0.9-0.2,1.8-0.5,2.7c-0.4,1.1-1.1,2.1-2,3c-0.7,0.6-1.4,1.1-2.3,1.5
		c-0.1,0.1-0.1,0.1-0.1,0.2c0.7,1.5,1.4,3,2.2,4.5c0.3,0.6,0.5,1.1,0.8,1.7c0,0.1,0,0.1-0.1,0.1c-0.7,0-1.3,0-2,0
		c-0.1,0-0.1,0-0.2-0.1c-0.4-0.9-0.8-1.8-1.3-2.7c-0.5-1-0.9-1.9-1.4-2.9C18.8,8.1,18.7,8,18.5,8c-0.8,0.1-1.6,0-2.3,0
		c-0.1,0-0.1,0-0.1,0.1c0,1.9,0,3.7,0,5.6c0,0.1,0,0.1-0.1,0.1c-0.6,0-1.1,0-1.7,0c-0.1,0-0.1,0-0.1-0.1C14,11.5,14,9.3,14,7.1z"/>
</g>
</svg>
