<?xml version="1.0" encoding="utf-8"?>
<!-- Generator: $$$/GeneralStr/196=Adobe Illustrator 27.6.0, SVG Export Plug-In . SVG Version: 6.00 Build 0)  -->
<svg version="1.1" id="Ebene_1" xmlns="http://www.w3.org/2000/svg" xmlns:xlink="http://www.w3.org/1999/xlink" x="0px" y="0px"
	 viewBox="0 0 40 9.3" style="enable-background:new 0 0 40 9.3;" xml:space="preserve">
<style type="text/css">
	.st0{fill:#FFFFFF;}
	.st1{fill:#070707;}
	.st2{fill:#25303B;}
</style>
<g>
	<path d="M10.7,1.8C10.7,1.8,10.7,1.8,10.7,1.8c0,0.8,0,1.5,0,2.2c0,0.1,0,0.2,0,0.3c0,0.1,0,0.1-0.1,0.1c-0.2,0-0.5,0-0.7,0
		c-0.1,0-0.1,0-0.1-0.1c0-1.3,0-2.6,0-4c0-0.1,0-0.1,0.1-0.1c0.2,0,0.5,0,0.7,0c0.1,0,0.1,0,0.1,0.1c0.6,0.8,1.2,1.6,1.7,2.5
		c0,0.1,0.1,0.1,0.1,0.2c0,0,0,0,0,0c0,0,0,0,0,0c0-0.4,0-0.8,0-1.3c0-0.4,0-0.8,0-1.2c0-0.2,0-0.2,0.2-0.2c0.2,0,0.4,0,0.6,0
		c0.1,0,0.1,0,0.1,0.1c0,1.3,0,2.6,0,3.9c0,0.1,0,0.2-0.2,0.2c-0.2,0-0.4,0-0.7,0c-0.1,0-0.1,0-0.2-0.1c-0.4-0.5-0.8-1.1-1.2-1.6
		C11.2,2.5,11,2.2,10.7,1.8C10.8,1.8,10.8,1.8,10.7,1.8z"/>
	<path d="M4.9,2.4c0-0.3,0-0.5,0-0.8c0-0.2,0-0.4,0.1-0.5C5,0.6,5.3,0.4,5.7,0.3c0.2,0,0.3-0.1,0.5-0.1c0.4,0,0.7,0,1.1,0
		c0.2,0,0.3,0,0.5,0.1c0.4,0.1,0.7,0.4,0.7,0.8c0,0.2,0,0.3,0,0.5c0,0.5,0,1.1,0,1.6c0,0.2,0,0.4-0.1,0.5C8.4,4.2,8.1,4.4,7.7,4.5
		c-0.2,0-0.4,0.1-0.6,0.1c-0.3,0-0.5,0-0.8,0c-0.2,0-0.4,0-0.6-0.1C5.3,4.4,5,4.1,4.9,3.7c-0.1-0.3,0-0.6,0-0.9
		C4.9,2.6,4.9,2.5,4.9,2.4C4.9,2.4,4.9,2.4,4.9,2.4z M5.8,2.4C5.8,2.4,5.8,2.4,5.8,2.4c0,0.1,0,0.3,0,0.4c0,0.1,0,0.3,0,0.4
		c0,0.3,0.1,0.5,0.4,0.5c0.3,0,0.7,0,1,0c0.2,0,0.3-0.1,0.3-0.3c0-0.1,0-0.2,0-0.3c0-0.5,0-1,0-1.4c0-0.1,0-0.1,0-0.2
		c0-0.2-0.1-0.3-0.4-0.3c-0.3,0-0.7,0-1,0c-0.3,0-0.4,0.2-0.4,0.5c0,0,0,0.1,0,0.1C5.8,1.9,5.8,2.1,5.8,2.4z"/>
	<path d="M16.4,4.5c-0.2,0-0.5,0-0.8,0c-0.5,0-0.7-0.3-0.8-0.8c0-0.1,0-0.2,0-0.4c0-0.1,0-0.1,0.1-0.1c0.2,0,0.4,0,0.6,0
		c0.1,0,0.1,0,0.1,0.1c0,0,0,0,0,0.1c0,0.2,0.1,0.3,0.3,0.3c0.3,0,0.7,0,1,0c0,0,0.1,0,0.1,0c0.1,0,0.2-0.1,0.2-0.2
		c0-0.1,0-0.2,0-0.3c0-0.1-0.1-0.2-0.2-0.3c-0.2-0.1-0.4-0.1-0.6-0.1c-0.3-0.1-0.6-0.1-1-0.2c-0.4-0.1-0.6-0.4-0.7-0.8
		c0-0.3,0-0.5,0-0.8c0.1-0.3,0.3-0.5,0.5-0.6c0.2-0.1,0.4-0.1,0.5-0.1c0.4,0,0.7,0,1.1,0c0.2,0,0.3,0,0.5,0.1
		c0.2,0.1,0.4,0.2,0.5,0.5c0.1,0.2,0.1,0.4,0.1,0.6c0,0.1,0,0.1-0.1,0.1c-0.2,0-0.4,0-0.6,0c-0.1,0-0.1,0-0.1-0.1
		c0-0.3-0.1-0.3-0.3-0.3c-0.3,0-0.5,0-0.8,0c0,0,0,0,0,0c-0.2,0-0.3,0.1-0.3,0.3c0,0.3,0,0.4,0.4,0.5C16.3,1.9,16.6,2,16.9,2
		c0.2,0,0.5,0.1,0.7,0.2c0.3,0.1,0.5,0.3,0.6,0.7c0,0.3,0,0.6,0,1c-0.1,0.4-0.3,0.6-0.7,0.7C17.1,4.5,16.7,4.5,16.4,4.5z"/>
	<path d="M0.4,2.4c0-0.6,0-1.3,0-1.9c0-0.1,0-0.1,0.1-0.1c0.2,0,0.4,0,0.7,0c0.1,0,0.1,0,0.1,0.1c0,0.4,0,0.9,0,1.3
		c0,0.1,0,0.1,0.1,0.1c0.2,0,0.4,0,0.6,0c0.1,0,0.1,0,0.1-0.1c0.2-0.5,0.5-0.9,0.7-1.4C2.9,0.3,3,0.3,3,0.3c0.3,0,0.5,0,0.8,0
		c0.1,0,0.2,0,0.1,0.2C3.8,0.7,3.7,0.9,3.5,1.2C3.3,1.5,3.2,1.8,3,2.2C2.9,2.3,2.9,2.3,3,2.4C3.3,3,3.6,3.5,4,4.1
		c0,0.1,0.1,0.1,0.1,0.2c0,0.1,0,0.1-0.1,0.1c-0.3,0-0.6,0-0.8,0c-0.1,0-0.1,0-0.1-0.1c-0.3-0.5-0.6-1-0.9-1.5
		c0-0.1-0.1-0.1-0.2-0.1c-0.2,0-0.4,0-0.6,0c-0.1,0-0.1,0-0.1,0.1c0,0.5,0,0.9,0,1.4c0,0,0,0.1,0,0.1c0,0.1,0,0.1-0.1,0.1
		c-0.2,0-0.5,0-0.7,0c-0.1,0-0.1,0-0.1-0.1C0.4,3.7,0.4,3,0.4,2.4z"/>
	<path d="M36,2.4c0-0.6,0-1.3,0-1.9c0-0.1,0-0.1,0.1-0.1c0.2,0,0.5,0,0.7,0c0.1,0,0.1,0,0.1,0.1c0,0.5,0,0.9,0,1.4
		c0,0.1,0,0.1,0.1,0.1c0.2,0,0.4,0,0.6,0c0.1,0,0.1,0,0.1-0.1c0.2-0.5,0.5-0.9,0.7-1.4c0-0.1,0.1-0.1,0.2-0.1c0.3,0,0.5,0,0.8,0
		c0.2,0,0.2,0,0.1,0.2c-0.2,0.3-0.3,0.6-0.5,0.9c-0.2,0.3-0.3,0.5-0.5,0.8c0,0.1,0,0.1,0,0.2c0.2,0.4,0.5,0.8,0.7,1.2
		c0.1,0.2,0.3,0.4,0.4,0.7c0.1,0.1,0,0.2-0.1,0.2c-0.3,0-0.5,0-0.8,0c-0.1,0-0.1,0-0.1-0.1c-0.3-0.5-0.6-1-0.9-1.6
		c0-0.1-0.1-0.1-0.1-0.1c-0.2,0-0.4,0-0.6,0c-0.1,0-0.1,0-0.1,0.1c0,0.5,0,1,0,1.5c0,0.1,0,0.1-0.1,0.1c-0.2,0-0.4,0-0.7,0
		c-0.1,0-0.1,0-0.1-0.1c0,0,0-0.1,0-0.1C36,3.6,36,3,36,2.4C36,2.4,36,2.4,36,2.4z"/>
	<path d="M31.2,2.3c0-0.4,0-0.7,0-1.1c0-0.2,0-0.3,0.1-0.5c0.1-0.3,0.3-0.4,0.6-0.5c0.2,0,0.3-0.1,0.5-0.1c0.4,0,0.9,0,1.3,0
		c0.2,0,0.5,0,0.7,0.2c0.2,0.2,0.3,0.4,0.4,0.6c0,0.2,0,0.3,0,0.5c0,0.1,0,0.2-0.2,0.2c-0.2,0-0.4,0-0.6,0c-0.1,0-0.1,0-0.1-0.1
		c0,0,0-0.1,0-0.1c0-0.2-0.2-0.4-0.4-0.4c-0.3,0-0.5,0-0.8,0c-0.3,0-0.4,0.1-0.5,0.4c0,0.5,0,1.1,0,1.6c0,0.1,0,0.2,0,0.3
		c0,0.2,0.1,0.3,0.3,0.3c0.4,0,0.8,0,1.1,0c0.2,0,0.3-0.1,0.3-0.3c0-0.1,0-0.2,0-0.2c0-0.1,0-0.1,0.1-0.1c0.2,0,0.5,0,0.7,0
		c0.1,0,0.1,0,0.1,0.1c0,0.3,0,0.5-0.1,0.8c-0.1,0.3-0.3,0.5-0.7,0.6c-0.4,0-0.7,0-1.1,0c-0.3,0-0.6,0-1-0.1c-0.2,0-0.4-0.1-0.6-0.3
		c-0.1-0.2-0.1-0.3-0.2-0.5C31.2,3.2,31.2,2.8,31.2,2.3z"/>
	<path d="M29.9,4.5c-0.1,0-0.2,0-0.3,0c-0.1,0-0.1,0-0.1-0.1c-0.1-0.3-0.2-0.5-0.3-0.8c0-0.1-0.1-0.1-0.1-0.1c-0.5,0-1,0-1.4,0
		c-0.1,0-0.1,0-0.1,0.1c-0.1,0.3-0.2,0.5-0.3,0.8c0,0.1-0.1,0.1-0.1,0.1c-0.2,0-0.4,0-0.7,0c-0.1,0-0.2,0-0.1-0.2
		c0.1-0.4,0.3-0.9,0.4-1.3c0.3-0.9,0.6-1.7,0.8-2.6c0-0.1,0-0.1,0.2-0.1c0.4,0,0.7,0,1.1,0c0.2,0,0.2,0,0.2,0.1
		c0.3,0.9,0.6,1.8,0.9,2.7c0.1,0.4,0.2,0.7,0.4,1.1c0,0,0,0.1,0,0.1c0,0.1,0,0.1-0.1,0.1C30.1,4.5,30,4.5,29.9,4.5z M28.3,1
		C28.2,1.1,28.2,1.1,28.3,1c-0.2,0.6-0.4,1-0.5,1.5c0,0.1,0,0.1,0.1,0.1c0.3,0,0.6,0,0.9,0c0.1,0,0.1,0,0.1-0.1
		c-0.2-0.4-0.3-0.9-0.5-1.3C28.3,1.2,28.3,1.1,28.3,1z"/>
	<path d="M23,2.4c0-0.6,0-1.2,0-1.9c0,0,0,0,0-0.1c0-0.1,0-0.1,0.1-0.1c0.4,0,0.7,0,1.1,0c0.5,0,0.9,0,1.4,0c0.1,0,0.1,0,0.1,0.1
		c0,0.2,0,0.4,0,0.6c0,0.1,0,0.1-0.1,0.1c-0.5,0-1,0-1.5,0c0,0-0.1,0-0.1,0c-0.1,0-0.1,0-0.1,0.1c0,0.2,0,0.5,0,0.7
		c0,0.1,0.1,0.1,0.1,0.1c0.4,0,0.8,0,1.3,0c0,0,0.1,0,0.1,0c0.1,0,0.1,0,0.1,0.1c0,0.2,0,0.3,0,0.5c0,0.1,0,0.1-0.1,0.1
		c-0.4,0-0.9,0-1.3,0c-0.2,0-0.2,0-0.2,0.2c0,0.4,0,0.8,0,1.3c0,0.1,0,0.1-0.1,0.1c-0.2,0-0.4,0-0.6,0c-0.1,0-0.1,0-0.1-0.1
		c0-0.1,0-0.1,0-0.2C23,3.5,23,3,23,2.4C23,2.4,23,2.4,23,2.4z"/>
	<path d="M20,2.8c0-0.5,0-1,0-1.5c0-0.1,0-0.1-0.1-0.1c-0.3,0-0.6,0-0.9,0c-0.1,0-0.1,0-0.1-0.1c0-0.2,0-0.5,0-0.7
		c0-0.1,0-0.1,0.1-0.1c0.1,0,0.2,0,0.3,0c0.9,0,1.8,0,2.6,0c0.1,0,0.1,0,0.1,0.1c0,0.2,0,0.4,0,0.6c0,0.1,0,0.1-0.1,0.1
		c-0.3,0-0.5,0-0.8,0c-0.2,0-0.2,0-0.2,0.2c0,0.9,0,1.9,0,2.8c0,0,0,0.1,0,0.1c0,0.1,0,0.1-0.1,0.1c-0.2,0-0.4,0-0.7,0
		c-0.1,0-0.1,0-0.1-0.1C20,3.8,20,3.3,20,2.8z"/>
	<path d="M33.5,6.1c0.1,0,0.3,0,0.5,0c0.4,0.1,0.6,0.5,0.6,0.9c-0.1,0.5-0.4,0.9-0.9,1c-0.3,0.1-0.5,0-0.8,0c-0.1,0-0.2,0-0.3,0
		c0,0-0.1,0-0.1,0c0,0,0-0.1,0.1-0.1c0.2,0,0.3-0.1,0.3-0.3c0.1-0.4,0.2-0.8,0.2-1.2c0-0.1,0-0.1-0.1-0.1c0,0-0.1,0-0.1,0
		c0,0-0.1,0-0.1-0.1c0,0,0,0,0.1,0c0.1,0,0.2,0,0.3,0C33.2,6.1,33.3,6.1,33.5,6.1z M33.4,7.9c0.3,0,0.5-0.1,0.6-0.3
		c0.2-0.2,0.2-0.5,0.2-0.8c0-0.3-0.2-0.5-0.5-0.5c-0.1,0-0.2,0-0.2,0c-0.1,0-0.1,0-0.2,0.1c0,0.2-0.1,0.4-0.1,0.6
		c-0.1,0.3-0.1,0.5-0.2,0.8c0,0.1,0,0.1,0.1,0.1C33.2,7.9,33.3,7.9,33.4,7.9z"/>
	<path d="M25.5,6.7c0.1,0,0.1,0,0.2,0c0.1,0,0.1,0,0.1-0.1c0,0,0-0.1,0-0.1c0-0.1,0-0.1,0.2-0.1c0.1,0,0.1,0,0.1,0.1
		c0,0.1,0,0.1,0,0.2c0,0.1,0,0.1,0.1,0.1c0,0,0.1,0,0.1,0c0.1,0,0.1,0,0.1,0.1c0,0.1,0,0.1-0.1,0.1c0,0,0,0,0,0
		c-0.2,0-0.2,0-0.3,0.2c-0.1,0.2-0.1,0.4-0.2,0.6c0,0,0,0,0,0.1c0,0,0,0,0.1,0c0.1,0,0.1-0.1,0.2-0.1c0,0,0.1,0,0.1,0
		c0,0,0,0.1,0,0.1C25.9,7.9,25.8,8,25.6,8c-0.1,0-0.2,0-0.2-0.2c0-0.2,0.1-0.5,0.2-0.7c0-0.1,0-0.1,0.1-0.2c0-0.1,0-0.1-0.1-0.1
		c-0.1,0-0.2,0-0.4,0c-0.1,0-0.1,0-0.1,0.1c-0.1,0.3-0.1,0.7-0.2,1c0,0.2-0.1,0.3-0.2,0.5c-0.1,0.2-0.3,0.2-0.5,0.2
		c-0.1,0,0-0.1,0-0.1c0,0,0-0.1,0.1,0c0,0,0.1,0,0.1,0c0.1,0,0.1,0,0.1-0.1c0.1-0.2,0.1-0.5,0.2-0.7c0-0.2,0.1-0.4,0.1-0.6
		c0-0.1,0-0.1-0.1-0.1c0,0-0.1,0-0.1-0.1c0,0,0-0.1,0.1-0.1c0.2,0,0.2,0,0.2-0.2c0-0.1,0.1-0.3,0.1-0.4c0.1-0.2,0.3-0.2,0.5-0.2
		c0.1,0,0.1,0,0.2,0c0,0,0.1,0,0,0.1c-0.1,0.1-0.1,0.1-0.2,0.1c0,0-0.1,0-0.1,0c-0.1,0-0.1,0-0.2,0.1c-0.1,0.2-0.1,0.4-0.1,0.5
		c0,0,0,0.1,0.1,0.1C25.3,6.7,25.4,6.7,25.5,6.7z"/>
	<path d="M0.8,6.1c0.1,0,0.2,0,0.3,0c0,0,0.1,0,0.1,0c0,0,0.1,0,0.1,0c0,0,0,0-0.1,0c0,0-0.1,0-0.1,0c-0.1,0-0.2,0-0.2,0.2
		c-0.1,0.3-0.1,0.7-0.1,1c0,0.2,0.1,0.4,0.2,0.4c0.2,0.1,0.5,0,0.6-0.2c0.1-0.1,0.1-0.3,0.1-0.4c0-0.3,0.1-0.5,0.1-0.8
		c0-0.1,0-0.2-0.1-0.2c0,0-0.1,0-0.1,0c0,0,0,0,0,0c0,0,0,0,0,0c0,0,0,0,0.1,0c0.2,0,0.3,0,0.5,0c0,0,0,0,0,0c0,0,0.1,0,0.1,0
		c0,0,0,0-0.1,0.1C2.1,6.3,2.1,6.4,2,6.5C2,6.8,1.9,7.1,1.8,7.4c0,0.2-0.1,0.4-0.4,0.5c0,0-0.1,0-0.1,0C1.2,8,1,8,0.9,8
		C0.6,7.9,0.4,7.7,0.5,7.4c0-0.3,0.1-0.7,0.1-1c0-0.1,0-0.1-0.1-0.1c0,0-0.1,0-0.1,0c0,0-0.1,0-0.1-0.1c0,0,0,0,0.1,0
		C0.5,6.1,0.7,6.1,0.8,6.1z"/>
	<path d="M16.1,8c-0.1,0-0.2,0-0.3,0c0,0-0.1,0-0.1-0.1c0-0.1,0-0.1,0.1-0.1c0.2,0,0.2,0,0.2-0.3c0-0.1,0-0.2,0-0.2
		c0-0.1,0-0.1-0.1-0.1c-0.1,0-0.3,0-0.4,0c0,0-0.1,0-0.1,0.1c-0.1,0.1-0.2,0.3-0.3,0.4c-0.1,0.1,0,0.1,0.1,0.1c0,0,0.1,0,0.1,0
		c0,0,0.1,0,0.1,0.1c0,0,0,0.1-0.1,0.1c-0.2,0-0.4,0-0.6,0c0,0-0.1,0-0.1,0c0,0,0-0.1,0.1-0.1c0.2,0,0.3-0.2,0.4-0.3
		c0.3-0.5,0.7-1,1-1.4c0-0.1,0.1-0.1,0.2-0.1c0,0,0,0,0,0.1c0,0.4,0,0.7,0,1.1c0,0.1,0,0.3,0,0.4c0,0.1,0,0.1,0.1,0.2c0,0,0,0,0.1,0
		c0,0,0.1,0,0.1,0.1c0,0,0,0-0.1,0C16.4,8,16.2,8,16.1,8C16.1,8,16.1,8,16.1,8z M16.1,6.4C16,6.5,16,6.5,16.1,6.4
		c-0.2,0.2-0.3,0.4-0.5,0.6c0,0,0,0.1,0,0.1c0.1,0,0.2,0,0.3,0C16,7.1,16,7.1,16,7c0-0.1,0-0.1,0-0.2C16.1,6.7,16.1,6.6,16.1,6.4z"
		/>
	<path d="M31.1,7.7C31,7.8,31,7.9,30.8,8C30.8,8,30.7,8,30.7,8c-0.1,0-0.2,0-0.2-0.1c0-0.1,0-0.2,0-0.4c0.1-0.3,0.2-0.5,0.4-0.7
		c0.1-0.1,0.3-0.2,0.5-0.1c0,0,0.1,0,0.1,0c0-0.2,0.1-0.3,0.1-0.5c0,0,0-0.1-0.1-0.1c0,0-0.1,0-0.1,0c0,0-0.1,0-0.1-0.1
		c0,0,0,0,0.1-0.1c0.1,0,0.2,0,0.3-0.1c0.1,0,0.1,0,0.1,0.1c-0.1,0.4-0.2,0.8-0.3,1.2c0,0.2-0.1,0.3-0.1,0.5c0,0,0,0,0,0.1
		c0,0,0,0,0.1,0c0,0,0.1,0,0.1-0.1c0,0,0.1,0,0.1,0c0,0,0,0.1,0,0.1C31.5,7.9,31.4,8,31.3,8c-0.1,0-0.2,0-0.2-0.1
		C31.1,7.9,31.1,7.8,31.1,7.7z M30.7,7.7C30.7,7.7,30.7,7.7,30.7,7.7c0,0.2,0.1,0.2,0.2,0.2c0.1,0,0.1-0.1,0.1-0.1
		c0.2-0.2,0.3-0.5,0.4-0.7c0-0.1,0-0.1-0.1-0.1c-0.1,0-0.1,0-0.2,0.1C30.8,7.1,30.7,7.4,30.7,7.7z"/>
	<path d="M20.6,7.2c0-0.6,0.4-1,0.9-1.1c0.2,0,0.4,0,0.6,0.1c0,0,0.1,0.1,0.1,0c0,0,0,0,0.1,0c0,0,0,0,0,0.1c0,0.2-0.1,0.3-0.1,0.5
		c0,0,0,0.1-0.1,0.1c0,0,0-0.1-0.1-0.1c0,0,0-0.1,0-0.1c-0.1-0.3-0.3-0.4-0.5-0.3c-0.2,0-0.3,0.1-0.4,0.3c-0.2,0.3-0.3,0.7-0.2,1.1
		c0.1,0.3,0.5,0.4,0.8,0.3C21.9,7.8,22,7.6,22,7.5c0,0,0-0.1,0.1-0.1c0,0,0.1,0,0.1,0.1c0,0.1-0.1,0.3-0.1,0.4c0,0,0,0,0,0
		c-0.3,0.1-0.6,0.2-0.9,0C20.8,7.8,20.7,7.6,20.6,7.2C20.6,7.3,20.6,7.2,20.6,7.2z"/>
	<path d="M38.1,7.8c0,0-0.1,0.1-0.1,0.1C37.9,7.9,37.8,8,37.8,8c-0.1,0.1-0.2,0-0.3-0.1c0-0.1-0.1-0.2,0-0.3c0-0.3,0.2-0.5,0.4-0.7
		c0.1-0.1,0.3-0.2,0.5-0.1c0,0,0.1,0,0.1,0c0,0,0.1,0,0.1,0c0,0,0,0.1,0,0.1c-0.1,0.4-0.2,0.7-0.3,1.1c0,0.1-0.1,0.2-0.1,0.3
		c-0.1,0.3-0.3,0.4-0.7,0.4c0,0,0,0-0.1,0c-0.1,0-0.1,0-0.1-0.1c0-0.1,0-0.1,0.1-0.1c0.1,0,0.2,0,0.2,0.1c0.1,0,0.1,0,0.1,0
		C38,8.2,38,8,38.1,7.8z M37.7,7.7C37.7,7.7,37.7,7.7,37.7,7.7c0,0.1,0,0.1,0.1,0.2c0,0,0.1,0,0.1,0c0,0,0.1-0.1,0.1-0.1
		c0.2-0.2,0.3-0.5,0.3-0.7c0-0.1-0.1-0.1-0.1-0.1c-0.1,0-0.1,0-0.2,0.1C37.8,7.1,37.7,7.4,37.7,7.7z"/>
	<path d="M2.6,7.1C2.7,7,2.7,6.9,2.8,6.9C2.8,6.8,2.9,6.7,3,6.7c0.2,0,0.3,0.1,0.2,0.2c0,0.2-0.1,0.4-0.2,0.7c0,0.1,0,0.1,0,0.2
		c0,0,0,0.1,0.1,0c0,0,0.1,0,0.1-0.1c0,0,0,0,0.1,0c0,0,0,0.1,0,0.1C3.2,7.9,3.2,7.9,3.1,8C3,8,3,8,2.9,8c-0.1,0-0.1,0-0.1-0.1
		C2.9,7.7,2.9,7.4,3,7.2C3,7.1,3,7.1,3,7c0,0,0-0.1,0-0.1c0,0-0.1,0-0.1,0C2.8,7,2.8,7,2.7,7.1C2.5,7.4,2.4,7.6,2.4,7.9
		c0,0,0,0.1-0.1,0.1C2.1,8,2.1,8,2.2,7.9C2.2,7.6,2.3,7.3,2.4,7c0,0,0,0,0-0.1c0,0,0,0-0.1,0c0,0-0.1,0-0.1,0.1c0,0,0,0-0.1,0
		c0,0,0-0.1,0-0.1c0.1-0.1,0.2-0.2,0.2-0.2c0.1,0,0.1,0,0.2,0c0.1,0,0.1,0,0.1,0.1C2.6,6.9,2.6,7,2.6,7.1z"/>
	<path d="M29.6,7.1c0.1-0.1,0.1-0.1,0.2-0.2c0.1-0.1,0.1-0.1,0.2-0.1c0.2,0,0.3,0.1,0.2,0.2c-0.1,0.2-0.1,0.5-0.2,0.7
		c0,0-0.1,0.1,0,0.1c0,0,0.1,0,0.1-0.1c0,0,0.1-0.1,0.1,0c0,0,0,0.1,0,0.1C30.1,7.9,30,8,29.9,8c-0.1,0-0.2,0-0.1-0.1
		C29.8,7.6,29.9,7.3,30,7c0,0,0-0.1,0-0.1c0,0-0.1,0-0.1,0c-0.1,0-0.1,0.1-0.2,0.2c-0.2,0.2-0.3,0.5-0.3,0.8c0,0,0,0.1-0.1,0.1
		c-0.1,0-0.2,0-0.1-0.1c0.1-0.3,0.1-0.6,0.2-0.9c0,0,0,0,0-0.1c0,0,0,0-0.1,0C29.2,7,29.2,7,29.1,7c0,0,0,0,0,0c0,0,0,0,0,0
		c0,0,0,0,0,0c0.1-0.1,0.3-0.2,0.5-0.3c0.1,0,0.1,0,0.1,0.1C29.6,6.9,29.6,6.9,29.6,7.1C29.6,7,29.5,7,29.6,7.1z"/>
	<path d="M14.1,6.9c-0.2,0-0.2,0-0.2,0.2c-0.1,0.4-0.1,0.8-0.3,1.2c0,0.1-0.1,0.1-0.1,0.2c-0.1,0.1-0.3,0.2-0.5,0.1c0,0,0-0.1,0-0.1
		c0,0,0-0.1,0.1-0.1c0.1,0,0.1,0,0.2,0c0.1,0,0.1,0,0.1-0.1c0.1-0.3,0.1-0.5,0.2-0.8c0-0.2,0.1-0.4,0.1-0.6c0-0.1,0-0.1-0.1-0.1
		c-0.1,0-0.1,0-0.1-0.1c0,0,0.1,0,0.1,0c0.1,0,0.1,0,0.1-0.1c0-0.1,0-0.2,0-0.2c0.1-0.4,0.3-0.5,0.7-0.4c0,0,0,0,0,0
		c0,0,0.1,0,0.1,0.1c0,0.1,0,0.1-0.1,0.1c0,0-0.1,0-0.1,0c-0.1,0-0.1-0.1-0.2-0.1c-0.1,0-0.1,0-0.1,0.1C14,6.3,14,6.5,14,6.7
		c0,0,0,0,0.1,0c0.1,0,0.1,0,0.2,0c0,0,0.1,0,0.1,0.1c0,0,0,0.1-0.1,0.1C14.2,6.9,14.1,6.9,14.1,6.9z"/>
	<path d="M39.2,7.1c0.1-0.1,0.1-0.2,0.2-0.3c0.1-0.1,0.2-0.1,0.2-0.1c0.1,0,0.2,0.1,0.2,0.2c0,0.1,0,0.2-0.1,0.4
		c0,0.2-0.1,0.4-0.1,0.5c0,0,0,0.1,0,0.1c0,0,0,0,0.1,0c0,0,0.1,0,0.1-0.1c0,0,0.1,0,0.1,0c0,0,0,0.1,0,0.1
		c-0.1,0.1-0.1,0.1-0.2,0.1C39.6,8,39.5,8,39.5,8c-0.1,0-0.1,0-0.1-0.1c0-0.1,0.1-0.3,0.1-0.4c0-0.2,0.1-0.3,0.1-0.5
		c0,0,0-0.1,0-0.1c0,0-0.1,0-0.1,0C39.4,7,39.3,7.1,39.2,7.1c-0.1,0.3-0.2,0.5-0.2,0.8C38.9,8,38.8,8,38.7,8c0,0,0,0,0-0.1
		c0.1-0.3,0.2-0.6,0.2-0.9c0,0,0-0.1,0-0.1c0,0-0.1,0-0.1,0c0,0-0.1,0-0.1,0c0,0,0,0-0.1,0c0,0,0,0,0-0.1c0.1-0.1,0.2-0.2,0.4-0.2
		c0.1,0,0.1,0,0.1,0.1C39.2,6.9,39.2,7,39.2,7.1C39.2,7.1,39.1,7.1,39.2,7.1z"/>
	<path d="M24,7.7c-0.1,0.1-0.2,0.2-0.3,0.3c-0.2,0.1-0.3,0-0.3-0.2c0-0.3,0.1-0.5,0.2-0.7c0.1-0.2,0.3-0.3,0.6-0.4c0,0,0,0,0,0
		c0.1,0.1,0.2,0,0.3,0c0.1,0,0.1,0,0.1,0.1c-0.1,0.3-0.2,0.6-0.3,0.9c0,0,0,0.1,0,0.1c0,0,0.1,0,0.1,0c0,0,0.1,0,0.1,0
		c0,0,0,0,0.1,0c0,0,0,0,0,0.1C24.4,7.9,24.2,8,24.1,8C24,8.1,24,8,24,8C24,7.9,24,7.8,24,7.7z M23.5,7.7
		C23.5,7.7,23.5,7.7,23.5,7.7c0,0.1,0,0.1,0.1,0.2c0.1,0,0.1,0,0.1,0c0.2-0.2,0.3-0.4,0.4-0.6c0-0.1,0-0.1,0-0.2
		c0-0.1,0-0.1-0.1-0.1c-0.1,0-0.1,0-0.1,0.1C23.7,7.1,23.6,7.4,23.5,7.7z"/>
	<path d="M28.4,7.7c-0.1,0.1-0.2,0.2-0.3,0.2C28.1,8,28,8.1,27.9,8c-0.1-0.1-0.1-0.2-0.1-0.3c0-0.4,0.2-0.7,0.5-1
		c0.1,0,0.2-0.1,0.3-0.1c0,0,0,0,0,0c0.1,0.1,0.2,0,0.3,0c0.1,0,0.1,0,0.1,0.1c-0.1,0.3-0.2,0.6-0.3,0.9c0,0,0,0.1,0,0.1
		c0,0,0.1,0,0.1,0c0,0,0.1,0,0.1,0c0,0,0,0,0.1,0c0,0,0,0,0,0.1C28.8,7.9,28.6,8,28.4,8c-0.1,0-0.1,0-0.1-0.1
		C28.4,7.9,28.4,7.8,28.4,7.7z M28.6,7c0-0.2-0.1-0.2-0.2-0.2c0,0-0.1,0-0.1,0C28.1,7.1,28,7.4,28,7.7c0,0.1,0,0.1,0.1,0.1
		c0.1,0,0.1,0,0.1,0C28.4,7.6,28.6,7.3,28.6,7z"/>
	<path d="M11,7.7c0.1-0.2,0.2-0.3,0.3-0.5c0-0.1,0-0.2-0.1-0.3c0,0,0-0.1,0-0.1c0-0.1,0-0.1,0.1-0.1c0.1,0,0.2,0.1,0.2,0.2
		c0,0.2-0.1,0.3-0.1,0.5c-0.2,0.4-0.5,0.8-0.8,1.2c0,0-0.1,0.1-0.1,0c-0.1-0.1-0.1-0.1,0-0.2c0.1-0.1,0.2-0.2,0.3-0.3
		c0,0,0-0.1,0-0.1c0-0.3-0.1-0.6-0.2-0.9c0,0,0,0,0-0.1c0-0.1-0.1-0.1-0.2-0.1c0,0-0.1,0-0.1,0.1c0,0,0,0-0.1,0c0,0,0,0,0-0.1
		c0.1-0.1,0.2-0.2,0.4-0.2c0.1,0,0.1,0.1,0.1,0.1c0.1,0.2,0.1,0.3,0.1,0.5C11,7.5,11,7.6,11,7.7C11,7.7,11,7.7,11,7.7z"/>
	<path d="M13.2,7.2c0,0.3-0.1,0.5-0.3,0.7C12.8,8,12.6,8.1,12.4,8c-0.2-0.1-0.3-0.2-0.3-0.4c0-0.3,0.1-0.5,0.3-0.8
		c0.1-0.1,0.3-0.1,0.4-0.1c0.1,0,0.2,0.1,0.3,0.2C13.2,7.1,13.2,7.1,13.2,7.2z M13,7.1c0-0.2,0-0.3-0.1-0.3c-0.1,0-0.2,0-0.3,0.1
		c-0.2,0.2-0.2,0.5-0.2,0.8c0,0.1,0.1,0.2,0.3,0.1c0.1,0,0.1-0.1,0.1-0.1C12.9,7.6,13,7.3,13,7.1z"/>
	<path d="M4.7,6.7c0.1,0,0.1,0,0.2,0c0,0,0.1,0,0.1,0c0,0,0,0.1,0,0.1C4.9,7,4.8,7.2,4.8,7.3c0,0.1-0.1,0.2-0.1,0.3
		c0,0.1,0,0.1,0.1,0.2c0.1,0,0.1,0,0.2,0c0.1-0.1,0.2-0.2,0.3-0.4c0-0.1,0.1-0.1,0.1-0.2c0-0.1,0-0.2-0.1-0.2c-0.1-0.1,0-0.1,0-0.2
		c0-0.1,0.1-0.1,0.1-0.1c0.1,0,0.1,0.1,0.1,0.2c0,0.2,0,0.3-0.1,0.4C5.3,7.6,5.2,7.8,4.9,8c0,0-0.1,0-0.1,0C4.8,8,4.7,8.1,4.6,8
		C4.5,7.9,4.4,7.8,4.4,7.7c0-0.2,0.1-0.3,0.2-0.5C4.7,7.1,4.8,7.1,4.8,7c0,0,0-0.1,0-0.1c-0.1,0-0.2,0-0.3,0c0,0-0.1,0-0.1,0.1
		c0,0,0,0.1,0,0.1c0,0,0,0.1-0.1,0.1c0,0,0-0.1,0-0.1c0-0.1,0.1-0.2,0.1-0.2c0-0.1,0.1-0.1,0.1-0.1C4.6,6.7,4.6,6.7,4.7,6.7
		C4.7,6.7,4.7,6.7,4.7,6.7z"/>
	<path d="M34.7,7.6c0-0.4,0.3-0.8,0.7-0.9c0.1,0,0.2,0,0.3,0.1c0.1,0.1,0.1,0.2,0,0.3c-0.1,0.2-0.3,0.3-0.4,0.3
		c-0.1,0-0.1,0-0.2,0.1c0,0-0.1,0-0.1,0.1c0,0.1,0,0.1,0,0.2c0,0.1,0.1,0.2,0.3,0.1c0.1,0,0.1-0.1,0.2-0.1c0,0,0,0,0.1,0
		c0,0,0,0.1,0,0.1C35.4,7.9,35.2,8,35,8c-0.1,0-0.2,0-0.3-0.1C34.7,7.8,34.7,7.7,34.7,7.6z M35.5,6.9c0-0.1,0-0.1-0.1-0.1
		c0,0,0,0,0,0C35.1,7,35.1,7.1,35,7.3c0,0,0,0.1,0.1,0c0.1-0.1,0.3-0.1,0.3-0.2C35.4,7,35.5,7,35.5,6.9z"/>
	<path d="M5.7,7.6c0-0.4,0.3-0.8,0.7-0.8c0.1,0,0.2,0,0.2,0.1C6.7,6.9,6.7,7,6.6,7C6.5,7.2,6.4,7.3,6.2,7.4c0,0,0,0-0.1,0
		C6,7.5,6,7.4,6,7.5c0,0.1,0,0.2,0,0.3c0.1,0.1,0.1,0.1,0.2,0.1c0.1,0,0.1-0.1,0.2-0.1c0,0,0.1,0,0.1,0c0,0,0,0.1,0,0.1
		C6.4,7.9,6.3,8,6.1,8C6,8.1,5.9,8,5.8,7.9C5.7,7.8,5.7,7.7,5.7,7.6z M6.5,6.9c0-0.1,0-0.1-0.1-0.1c0,0,0,0,0,0C6.1,7,6.1,7.1,6,7.3
		c0,0.1,0,0,0.1,0c0.1-0.1,0.3-0.1,0.4-0.3C6.4,7,6.5,7,6.5,6.9z"/>
	<path d="M10.2,6.9C10,6.9,10,6.9,10,7C9.9,7.2,9.9,7.5,9.8,7.7c0,0,0,0.1,0,0.1c0,0,0.1,0,0.1,0c0.1,0,0.1-0.1,0.2-0.1
		c0,0,0,0,0.1,0c0,0,0,0.1,0,0.1C10,7.9,9.9,8,9.7,8c-0.1,0-0.1,0-0.1-0.1c0-0.1,0-0.1,0-0.2C9.6,7.5,9.7,7.2,9.8,7
		c0-0.1,0-0.1-0.1-0.1c0,0,0,0-0.1,0c0,0-0.1,0-0.1,0c0,0,0-0.1,0.1-0.1c0.2,0,0.2,0,0.2-0.2c0-0.1,0.1-0.1,0.2-0.1
		c0.1,0,0.1,0,0.1,0.1c0,0.1,0,0.1,0,0.2c0,0.1,0,0.1,0.1,0.1c0,0,0.1,0,0.1,0c0,0,0.1,0,0.1,0.1c0,0,0,0.1-0.1,0.1
		C10.2,6.9,10.2,6.9,10.2,6.9z"/>
	<path d="M18.4,6.9c-0.1,0-0.1,0-0.2,0.1c-0.1,0.2-0.1,0.5-0.2,0.7c0,0,0,0.1,0,0.1c0,0,0.1,0,0.1,0c0.1,0,0.1-0.1,0.2-0.1
		c0,0,0.1,0,0.1,0c0,0,0,0.1,0,0.1C18.3,7.9,18.1,8,18,8c-0.2,0.1-0.3,0-0.2-0.2c0-0.2,0.1-0.3,0.1-0.5C17.9,7.2,18,7.1,18,7
		c0-0.1,0-0.1-0.1-0.1c0,0,0,0-0.1,0c0,0-0.1,0-0.1-0.1c0,0,0-0.1,0.1-0.1c0,0,0.1,0,0.1,0c0.1,0,0.1,0,0.1-0.1c0-0.1,0-0.1,0-0.2
		c0-0.1,0.2-0.1,0.2-0.1c0,0,0,0,0,0.1c0,0.1,0,0.1-0.1,0.2c0,0.1,0,0.1,0.1,0.1c0,0,0.1,0,0.1,0c0,0,0.1,0,0.1,0.1
		c0,0,0,0.1-0.1,0.1C18.4,6.9,18.4,6.9,18.4,6.9z"/>
	<path d="M7.3,7c0.1-0.1,0.1-0.2,0.2-0.3c0.1-0.1,0.2-0.1,0.3,0c0.1,0.1,0,0.1,0,0.2C7.7,7,7.7,7,7.6,7c-0.1,0-0.1,0-0.2,0
		C7.3,7.2,7.2,7.5,7.2,7.8c0,0,0,0.1,0,0.1C7.1,8,7.1,8,7,8C6.9,8,6.9,8,6.9,7.9C7,7.6,7,7.3,7.1,7c0,0,0-0.1,0-0.1c0,0-0.1,0-0.1,0
		C7,7,7,7,6.9,7c0,0,0,0-0.1,0c0,0,0,0,0-0.1C7,6.8,7.1,6.7,7.3,6.7c0.1,0,0.1,0,0.1,0.1C7.4,6.9,7.3,7,7.3,7z"/>
	<path d="M17.2,7c0.1-0.1,0.1-0.2,0.2-0.2c0.1-0.1,0.2-0.1,0.3,0c0.1,0.1,0.1,0.1,0,0.2c0,0.1-0.1,0.1-0.1,0c-0.1-0.1-0.1,0-0.2,0.1
		c-0.1,0.2-0.2,0.4-0.3,0.7c0,0.1,0,0.2-0.1,0.2C17,8,17,8,16.9,8c-0.1,0-0.1,0-0.2,0c0,0,0-0.1,0-0.1C16.8,7.6,16.9,7.3,17,7
		c0,0,0-0.1,0-0.1c0,0-0.1,0-0.1,0c0,0-0.1,0-0.1,0.1c0,0-0.1,0-0.1,0c0,0,0,0,0-0.1c0.1-0.1,0.2-0.2,0.4-0.2c0.1,0,0.1,0,0.1,0.1
		C17.2,6.9,17.2,7,17.2,7z"/>
	<path d="M22.9,7.1C22.9,7,23,6.9,23,6.9c0-0.1,0.1-0.1,0.2-0.1c0.1,0,0.2,0,0.2,0.1c0,0.1,0,0.1-0.1,0.2c0,0-0.1,0-0.1,0
		c-0.1-0.1-0.1,0-0.2,0.1c-0.1,0.2-0.2,0.5-0.3,0.8c0,0,0,0.1,0,0.1C22.7,8,22.6,8,22.5,8c-0.1,0-0.1,0-0.1-0.1
		c0.1-0.3,0.2-0.6,0.2-0.9c0,0,0-0.1,0-0.1c0,0-0.1,0-0.1,0c0,0-0.1,0-0.1,0.1c0,0,0,0-0.1,0c0,0,0,0,0-0.1c0.1-0.1,0.2-0.2,0.4-0.2
		c0.1,0,0.1,0,0.1,0.1C22.9,6.9,22.9,7,22.9,7.1z"/>
	<path d="M18.8,8c-0.1,0-0.2,0-0.3-0.1c0,0-0.1,0,0-0.1c0-0.1,0-0.1,0.1-0.1c0,0,0.1,0,0.1,0c0.1,0.1,0.2,0.1,0.3,0.1
		c0.1,0,0.1,0,0.1-0.1c0-0.1,0-0.2-0.1-0.3c-0.1-0.1-0.1-0.2-0.2-0.3c-0.1-0.2,0-0.5,0.3-0.5c0.1,0,0.2,0,0.3,0.1c0,0,0,0.1,0,0.1
		c0,0,0,0,0,0.1c0,0-0.1,0-0.1,0c0,0-0.1-0.1-0.2-0.1c-0.1,0-0.1,0-0.2,0c0,0.1,0,0.1,0,0.2c0,0.1,0.1,0.1,0.1,0.2
		c0.1,0.1,0.1,0.1,0.1,0.2C19.3,7.8,19.1,8,18.8,8z"/>
	<path d="M26.4,8c-0.1,0-0.2,0-0.3-0.1c0,0-0.1,0-0.1-0.1c0-0.1,0-0.1,0.1-0.1c0,0,0.1,0,0.1,0c0.1,0.1,0.2,0.1,0.2,0.1
		c0.1,0,0.1,0,0.1-0.1c0-0.1,0-0.2-0.1-0.3c-0.1-0.1-0.1-0.2-0.2-0.3c-0.1-0.3,0-0.5,0.3-0.5c0.1,0,0.2,0,0.3,0.1
		c0.1,0.1,0,0.1,0,0.2c0,0.1-0.1,0-0.1,0c-0.1,0-0.1-0.1-0.2-0.1c-0.1,0-0.2,0.1-0.1,0.2c0,0.1,0.1,0.2,0.1,0.2
		c0,0.1,0.1,0.1,0.1,0.2C26.9,7.8,26.8,8,26.4,8z"/>
	<path d="M36,8c-0.1,0-0.2,0-0.2-0.1c0,0-0.1,0-0.1-0.1c0-0.1,0-0.1,0.1-0.1c0,0,0,0,0.1,0c0.1,0.1,0.2,0.1,0.2,0.1
		c0.1,0,0.1,0,0.1-0.1c0-0.1,0-0.2-0.1-0.2c-0.1-0.1-0.2-0.2-0.2-0.4c0-0.2,0.2-0.5,0.4-0.4c0.1,0,0.1,0,0.2,0.1
		c0.1,0,0.1,0.1,0,0.1c-0.1,0.1-0.1,0.1-0.2,0c0,0-0.1,0-0.1,0c-0.1,0-0.1,0-0.2,0c0,0.1,0,0.1,0,0.2c0,0.1,0.1,0.2,0.2,0.2
		c0.1,0.1,0.1,0.2,0.1,0.3C36.4,7.9,36.2,8,36,8z"/>
	<path d="M8,8C8,8,7.9,8,7.8,8c0,0-0.1,0-0.1-0.1c0,0,0-0.1,0.1-0.1c0,0,0.1,0,0.1,0C7.9,7.9,8,7.9,8.1,7.9c0.1,0,0.1,0,0.1-0.1
		c0-0.1,0-0.1,0-0.2C8.1,7.5,8.1,7.4,8,7.3C7.9,7.2,7.9,7.1,8,7c0.1-0.3,0.4-0.3,0.6-0.2c0.1,0,0,0.1,0,0.1c0,0.1-0.1,0-0.1,0
		c-0.1,0-0.1-0.1-0.2-0.1C8.2,6.9,8.1,7,8.1,7.1c0,0.1,0.1,0.1,0.1,0.2c0,0.1,0.1,0.1,0.1,0.2C8.5,7.7,8.4,8,8,8z"/>
	<path d="M3.7,8C3.6,8,3.6,8,3.6,7.9C3.7,7.6,3.7,7.3,3.8,7c0,0,0-0.1,0-0.1c0,0-0.1,0-0.1,0c0,0-0.1,0-0.1,0.1c0,0,0,0-0.1,0
		c0,0,0,0,0-0.1C3.6,6.9,3.9,6.7,4,6.7c0.1,0,0.1,0,0.1,0.1C4,7.1,3.9,7.4,3.9,7.7c0,0,0,0.1,0,0.1c0,0,0.1,0,0.1,0c0,0,0,0,0,0
		c0,0,0.1,0,0.1,0c0,0,0,0.1,0,0.1C4,7.9,3.9,8,3.7,8C3.7,8,3.7,8,3.7,8z"/>
	<path d="M8.9,8C8.8,8,8.8,8,8.8,7.9c0-0.2,0.1-0.4,0.2-0.6C9,7.2,9,7.1,9,7c0,0,0,0,0-0.1c0,0,0,0-0.1,0c0,0-0.1,0-0.1,0.1
		c0,0-0.1,0-0.1,0c0,0,0-0.1,0-0.1c0.1-0.1,0.2-0.2,0.3-0.2c0,0,0.1,0,0.1,0c0.1,0,0.1,0,0.1,0.1c0,0,0,0.1,0,0.1
		C9.2,7.2,9.1,7.5,9,7.8c0,0,0,0,0,0.1c0,0,0,0,0.1,0c0,0,0.1,0,0.1-0.1c0,0,0,0,0.1,0c0,0,0,0,0,0.1C9.2,7.9,9,8,8.9,8z"/>
	<path d="M37.2,6.8c0,0.1-0.1,0.3-0.1,0.5c0,0.2-0.1,0.3-0.1,0.5c0,0,0,0,0,0.1c0,0,0,0,0.1,0c0,0,0.1,0,0.1-0.1c0,0,0,0,0.1,0
		c0,0,0,0.1,0,0.1C37.1,7.9,37,8,36.8,8c-0.1,0-0.1,0-0.1-0.1c0.1-0.3,0.1-0.6,0.2-0.9c0,0,0-0.1,0-0.1c0,0-0.1,0-0.1,0
		c0,0-0.1,0-0.1,0.1c0,0,0,0-0.1,0c0,0,0,0,0-0.1c0.1-0.1,0.2-0.2,0.4-0.2C37.2,6.7,37.2,6.7,37.2,6.8z"/>
	<path d="M19.7,7.9c0,0.2-0.1,0.4-0.3,0.5c0,0-0.1,0-0.1,0c0,0,0-0.1,0-0.1c0.1-0.1,0.1-0.1,0.2-0.2c0-0.1,0-0.1-0.1-0.1
		c0,0-0.1,0-0.1-0.1c0-0.1,0-0.1,0.1-0.1c0.1,0,0.1,0,0.2,0C19.7,7.8,19.7,7.8,19.7,7.9z"/>
	<path d="M37.2,6.5c-0.1,0-0.1-0.1-0.1-0.1c0-0.1,0.1-0.1,0.1-0.1c0.1,0,0.1,0.1,0.1,0.2C37.3,6.5,37.2,6.5,37.2,6.5z"/>
	<path d="M9.4,6.4c0,0.1,0,0.1-0.1,0.1c-0.1,0-0.1-0.1-0.1-0.1c0-0.1,0.1-0.1,0.1-0.1C9.3,6.2,9.4,6.3,9.4,6.4z"/>
	<path d="M4,6.5C4,6.5,3.9,6.4,3.9,6.4C3.9,6.3,4,6.2,4,6.2c0.1,0,0.1,0.1,0.1,0.1C4.2,6.5,4.1,6.5,4,6.5z"/>
</g>
</svg>
