<?xml version="1.0" encoding="utf-8"?>
<!-- Generator: $$$/GeneralStr/196=Adobe Illustrator 27.6.0, SVG Export Plug-In . SVG Version: 6.00 Build 0)  -->
<svg version="1.1" id="Ebene_1" xmlns="http://www.w3.org/2000/svg" xmlns:xlink="http://www.w3.org/1999/xlink" x="0px" y="0px"
	 viewBox="0 0 40 31.1" style="enable-background:new 0 0 40 31.1;" xml:space="preserve">
<style type="text/css">
	.st0{fill:#FFFFFF;}
	.st1{fill:#070707;}
</style>
<g>
	<path class="st0" d="M34.2,27.7c0.2-0.1,0.5-0.2,0.7-0.3c0.3-0.1,0.5-0.3,0.8-0.4c0.3-0.1,0.4-0.3,0.2-0.6
		c-0.1-0.1-0.1-0.3-0.1-0.4c0-0.1,0.1-0.3,0.1-0.4c0-0.2,0-0.3-0.2-0.4c-0.1,0-0.3-0.1-0.3-0.2c-0.2-0.2-0.4-0.2-0.5-0.1
		c-0.3,0.3-0.6,0.5-0.8,0.9c-0.1,0.2-0.3,0.4-0.3,0.6c-0.1,0.3-0.1,0.5-0.1,0.8C33.7,27.5,33.8,27.7,34.2,27.7z M14.4,6.5
		c0.1,0,0.3,0.1,0.5,0c0.5-0.3,0.9-0.5,1.3-0.9c0.3-0.3,0.5-0.6,0.8-1C17,4.5,17,4.4,16.8,4.2c-0.2-0.1-0.3-0.2-0.5-0.3
		c-0.1,0-0.3-0.1-0.3,0c-0.3,0.2-0.7,0.5-0.9,0.8c-0.2,0.2-0.3,0.4-0.4,0.6C14.5,5.7,14.1,6,14.4,6.5z"/>
	<path class="st1" d="M2,0.4c0.6,0.4,1.1,1,1.3,1.7c0.1,0.4,0.3,0.8,0.4,1.1c0,0.3,0.2,0.4,0.3,0.6c0,0.2,0.1,0.5,0.2,0.7
		c0,0.1,0,0.1,0,0.2c0,0.1,0,0.3,0.1,0.4c0,0,0,0,0,0c0.1,0.6,0.5,1,0.6,1.6C5,7.6,5.2,8.4,5.4,9.2c0.1,0.6,0.2,1.3,0.4,2
		c0.3-0.2,0.6-0.3,0.9-0.5c0.3-0.2,0.3-0.5,0.3-0.8c0-0.9,0-1.7,0-2.6c0-0.2,0-0.4,0.1-0.7c0-0.1,0-0.2,0.1-0.2
		C7.3,6,7.6,5.6,7.9,5.3c0.1-0.1,0.3,0,0.4,0c0.1,0,0.1,0.1,0.2,0.1C9,5.4,9,5.8,9,6.1c0,0.3,0,0.6,0,0.8c0,0.6,0,1.2,0.1,1.7
		c0.1,0.8,0.1,1.5,0.2,2.3c0,0.1,0,0.2,0,0.3c0.2-0.6,0.4-1.1,0.7-1.6C10.3,9,10.7,8.5,11.2,8c0.1-0.1,0.2-0.1,0.3-0.1
		c0,0,0,0,0.1,0c0.5,0.1,0.8,0.4,0.8,1c0,0.4,0.2,0.7,0.2,1.1c0,0.3-0.1,0.6-0.1,0.9c-0.1,0.9-0.7,1.7-1.2,2.4
		c-0.1,0.1-0.1,0.2-0.1,0.4c0.1,0.2,0.2,0.4,0.3,0.5c0.2,0.2,0.5,0,0.7-0.1c0.5-0.2,0.7-0.7,0.9-1.1c0.3-0.7,0.6-1.5,0.8-2.2
		c0.1-0.2,0.1-0.4,0.1-0.6c0-0.4,0-0.7,0.1-1.1c0-0.1,0.1-0.2,0.2-0.3c0.3-0.3,0.6-0.7,0.9-1c0.1-0.1,0.2-0.1,0.2-0.1
		c0.3,0.1,0.6,0.2,0.9,0.4c0,0,0,0.1,0,0.2c-0.1,0.6-0.1,1.1-0.2,1.7c0,0.2,0,0.5,0,0.7c0,0.5,0,1.1,0,1.6c0.3-0.6,0.5-1.1,0.9-1.7
		c0.5-0.7,1-1.4,1.8-1.9c0.3-0.2,0.6-0.3,0.9,0c0.2,0.1,0.3,0.1,0.5,0c0.1-0.1,0.2,0,0.4,0c0,0,0.1,0,0.1,0.1
		c0.8,0.3,0.7,0.9,0.6,1.5c-0.1,0.5,0,1.1,0,1.6c0,0.4,0.1,0.8,0.3,1.2c0.2,0.4,0.7,0.7,1.2,0.4c0.2-0.1,0.4-0.2,0.6-0.2
		c0.1,0,0.3,0.1,0.3,0.1c0.1,0.1,0.1,0.3,0,0.3c-0.1,0.2-0.3,0.4-0.5,0.5c-0.3,0.2-0.7,0.4-1.1,0.6c-0.9,0.5-2.1,0.2-2.7-0.6
		c-0.1-0.2-0.2-0.5-0.3-0.8c-0.5,0.2-0.9,0.5-1.4,0.7c-0.4,0.2-0.8,0.2-1.1,0.1c-0.2-0.1-0.4-0.1-0.6-0.2c0,0.3-0.1,0.5-0.1,0.8
		c0,0.6-0.1,1.1-0.1,1.7c-0.1,0.6-0.1,1.3-0.3,1.9c-0.1,0.5-0.4,1-0.7,1.5c-0.2,0.3-0.6,0.5-0.8,0.7c-0.2,0.2-0.4,0.3-0.7,0.5
		c-0.2,0.2-0.9,0.3-1,0.1c-0.2-0.5-0.4-1-0.3-1.5c0.1-0.2,0.1-0.5,0.2-0.7c0-0.1,0.3-0.2,0.4-0.1c0.2,0.2,0.4,0.4,0.7,0.6
		c0.4-0.5,0.7-4,0.6-5.1c-0.7,0.5-1.4,0.9-2.1,1.4c-0.7,0.4-1.4,0.5-2.1,0.1c-0.1-0.1-0.2-0.2-0.3-0.2c-0.2,0.1-0.4,0.3-0.5,0.4
		c-0.4,0.4-0.8,0.2-0.9-0.2c-0.2-0.5-0.4-1-0.6-1.5c-0.1-0.3-0.1-0.6-0.1-0.9c0-0.6-0.1-1.1-0.1-1.8c-0.3,0.2-0.6,0.5-0.9,0.6
		c-0.5,0.3-0.3,0.7-0.2,1.1c0.1,0.5,0.2,1,0.2,1.5c0.1,1.1,0.1,2.3,0.2,3.4c0,0.4,0,0.8,0,1.3c0,0.4,0,0.9,0,1.3
		c-0.2,0-0.1,0.1-0.2,0.2c-0.1,0.4-0.1,0.7-0.2,1.1c-0.1,0.2-0.2,0.4-0.3,0.6c-0.1-0.2-0.2-0.3-0.2-0.5c-0.2-0.4-0.3-0.9-0.4-1.3
		c-0.1-0.5-0.2-1-0.2-1.4c-0.1-0.5-0.1-1-0.2-1.5c-0.1-0.9-0.3-1.7-0.4-2.6c-0.1-0.7-0.2-1.3-0.3-2c0-0.1-0.2-0.1-0.3-0.1
		c-0.7,0.1-1.3,0-2-0.1c-0.2,0-0.4,0-0.5-0.1c-0.1,0-0.2-0.2-0.2-0.3c0-0.2,0.2-0.4,0.3-0.6c0.1-0.2,0.2-0.3,0.3-0.4
		c0.2-0.4,0.5-0.5,0.9-0.4c0.4,0.1,0.8,0.1,1.2,0.1C3.5,11,3.4,10.5,3.2,10C3.1,9.3,2.9,8.6,2.7,8C2.5,7.1,2.2,6.2,2,5.3
		C1.9,4.9,1.7,4.4,1.6,4c0-0.1,0-0.2,0.1-0.2c0,0-0.1-0.1-0.2-0.1c-0.1-0.3-0.3-0.6-0.4-1c0-0.1,0-0.2,0-0.4c0,0-0.1,0-0.1,0
		C1,2.1,0.9,2,0.7,1.9c-0.1,0-0.1-0.1-0.2-0.1c0-0.1,0-0.1,0-0.2c0.3-0.4,0.6-0.8,0.9-1.2C1.6,0.4,1.8,0.4,2,0.4z M19.1,10.1
		c-0.6,0.8-0.9,1.7-0.9,2.7C18.8,12.6,19.2,11.7,19.1,10.1z"/>
	<path class="st1" d="M10.3,30.1c-0.3-0.3-0.6-0.6-0.9-0.9c-0.2-0.2-0.3-0.3-0.4-0.5c0-0.1-0.1-0.1-0.1-0.1
		c-0.1-0.3-0.3-0.6-0.4-0.9c-0.1-0.3-0.2-0.7-0.3-1C8.1,26.1,8,25.6,7.9,25c-0.2-1-0.2-1.9-0.2-2.9c0-0.6,0.1-1.3,0.2-1.9
		c0.1-0.7,0.2-1.3,0.3-2c0-0.2,0-0.4,0-0.5c0.1-0.4,0.4-0.7,0.7-1.1c0-0.1,0.1-0.1,0.1-0.1c0.3-0.4,0.8-0.4,1.1,0
		c0.1,0.1,0.1,0.3,0.1,0.4c-0.2,0.8-0.2,1.6-0.2,2.3c0,0.7,0,1.3-0.1,2c0,0.8,0.1,1.6,0.3,2.4c0.1,0.5,0.2,1.1,0.3,1.7
		c0.1,0.6,0.3,1.1,0.5,1.7c0,0.1,0.1,0.1,0.2,0.3c0.3-0.6,0.6-1.2,1-1.8c0.1-0.1,0.2-0.3,0.3-0.4c0.5-0.7,1-1.5,1-2.5
		c0-0.5,0.3-0.9,0.6-1.3c0.1-0.1,0.2-0.2,0.3-0.3c0.2-0.3,0.8-0.4,1,0c0.1,0.1,0,0.3,0,0.5c0,0.1,0,0.3,0,0.4c0,0.3-0.1,0.7-0.1,1
		c0,0.4,0,0.9,0.1,1.3c0,0.2,0.1,0.3,0.2,0.5c0.1,0.1,0.5,0,0.5-0.2c0.1-0.5,0.3-1,0.2-1.5c-0.1-0.4,0.2-0.6,0.4-0.9
		c0.2-0.3,0.4-0.5,0.7-0.8c0.2-0.3,0.4-0.3,0.8-0.1c0.2,0.1,0.5,0.3,0.7,0.4c0.1,0.1,0.1,0.3,0.1,0.4c0,0.4,0,0.8,0,1.1
		c0,0.2,0,0.3,0,0.5c0,0.1,0,0.2,0,0.3c0,0,0.1,0,0.1,0c0.2-0.3,0.3-0.5,0.5-0.8c0,0,0,0,0-0.1c0.2-0.3,0.2-0.5,0.2-0.8
		c-0.1-0.6,0.1-1.2,0.7-1.6c0.1-0.1,0.2-0.2,0.3-0.3c0.3-0.2,0.6-0.1,0.8,0.1c0.2,0.1,0.3,0.2,0.2,0.4c0,0.2,0,0.5,0,0.7
		c0.2-0.3,0.4-0.5,0.6-0.8c0.3-0.7,0.9-1.2,1.4-1.7c0.1-0.1,0.3-0.2,0.4-0.1c0.1,0.1,0.3,0.1,0.4,0.2c0.1,0.1,0.3,0.2,0.2,0.5
		c-0.1,0.3,0,0.6,0,0.9c0,0.4,0.1,0.9,0.2,1.3c0.1,0.7,0.2,1.3,0.3,2c0,0.1,0.1,0.1,0.2,0.2c0-0.2,0.1-0.3,0.1-0.5
		c0.1-0.4,0.1-0.9,0.2-1.3c0.3-0.8,0.6-1.6,1.2-2.2c0.2-0.2,0.4-0.4,0.6-0.6c0.4-0.4,0.7-0.5,1.3-0.2c0-0.1,0.1-0.1,0.1-0.2
		c0.1-0.2,0.1-0.5,0.1-0.7c0.1-0.7,0.2-1.3,0.3-2c0.2-1,0.5-2,0.9-3c0.2-0.7,0.8-1,1.3-1.5c0.2-0.2,0.5,0,0.7,0.1
		c0.3,0.1,0.2,0.4,0.2,0.6c-0.2,1-0.4,1.9-0.5,2.9c-0.2,0.8-0.3,1.6-0.4,2.5c0,0.2,0,0.5-0.1,0.7c0,0.7-0.1,1.4-0.1,2
		c0,0.7,0.1,1.3,0.4,2c0.2,0.7,0.4,1.3,0.9,1.8c0.2,0.2,0.3,0.5,0.7,0.6c0.1,0,0.2,0,0.3-0.1c0.2-0.1,0.3-0.3,0.4-0.4
		c0.1-0.1,0.3-0.1,0.4-0.1c0.1,0,0.1,0.2,0.1,0.3c0.2,0.5-0.2,0.8-0.6,1.1c-0.4,0.2-0.8,0.5-1.3,0.7c-0.5,0.3-1,0.1-1.4-0.2
		c-0.7-0.4-1.1-1-1.5-1.7c-0.1-0.2-0.2-0.4-0.3-0.6c-0.2,0.2-0.3,0.4-0.5,0.6c-0.3,0.3-0.7,0.5-1.1,0.8c-0.3,0.2-0.5,0.3-0.8,0.5
		c-0.3,0.2-0.7,0.3-1,0.1c-0.2-0.1-0.5-0.3-0.7-0.3c-0.2,0-0.4,0.3-0.6,0.4c-0.2,0.2-0.5,0.3-0.7,0.1c-0.1,0-0.2-0.1-0.3-0.2
		c-0.4-0.6-0.8-1.1-0.9-1.8c0-0.4-0.1-0.7-0.1-1.1c0-0.3,0-0.5-0.1-0.9c-0.1,0.1-0.2,0.2-0.2,0.3c-0.2,0.5-0.4,1-0.5,1.5
		c-0.1,0.4-0.4,0.8-0.7,1c-0.2,0.2-0.4,0.3-0.6,0.6c-0.1,0.2-0.3,0.2-0.4,0.2c-0.2-0.1-0.4-0.2-0.4-0.5c0-0.4,0-0.7,0-1.1
		c-0.3,0.4-0.7,0.8-1.1,1.1c-0.3,0.3-0.7,0.5-1,0.8c-0.3,0.2-0.6,0-0.8-0.3c-0.1-0.1-0.1-0.2-0.2-0.4c-0.4,0.3-0.7,0.7-1.1,1
		c-0.2,0.2-0.5,0.4-0.8,0.5c-0.3,0.1-0.6-0.1-0.9-0.4c-0.2-0.1-0.3-0.3-0.5-0.5c-0.2,0.5-0.4,1-0.6,1.5c-0.1,0.3-0.3,0.7-0.4,1
		c-0.2,0.5-0.6,0.6-0.9,0.9c-0.1,0.2-0.4,0.3-0.5,0.4c-0.1,0.1-0.3,0.2-0.4,0.3C10.5,30.1,10.4,30.1,10.3,30.1z M28.6,21.4
		C28.6,21.4,28.6,21.4,28.6,21.4c-0.1,0-0.2,0-0.2,0c-0.1,0.1-0.3,0.2-0.4,0.1c-0.2,0-0.3,0.1-0.3,0.2c0,0.3-0.1,0.6-0.1,0.9
		c-0.1,0.4-0.1,0.7-0.1,1.1c0,0.1,0.1,0.2,0.1,0.2c0.1,0,0.2-0.1,0.2-0.1c0.1-0.1,0.2-0.3,0.3-0.4c0.3-0.5,0.4-1.1,0.6-1.7
		C28.6,21.6,28.6,21.5,28.6,21.4z"/>
	<path class="st1" d="M39.7,12c-0.1,0.2-0.3,0.4-0.4,0.7c-0.6,1.3-1.3,2.6-1.8,3.9c-0.4,0.9-0.8,1.7-1.1,2.6
		c-0.2,0.7-0.4,1.4-0.3,2.2c0,0.4-0.2,0.6-0.6,0.7c-0.1,0-0.3,0.2-0.4,0.3c-0.3,0.3-0.6,0.1-0.8,0c-0.2-0.1-0.3-0.4-0.3-0.6
		c-0.1-1,0.2-2,0.6-3c0.3-0.7,0.6-1.4,0.9-2.1c0.3-0.6,0.6-1.1,0.9-1.7c0.4-0.8,0.8-1.5,1.1-2.3c0.2-0.4,0.4-0.8,0.9-1.1
		c0.2-0.1,0.3-0.3,0.5-0.4c0.3-0.1,0.6-0.1,0.8,0.2c0,0,0.1,0.1,0.1,0.1C39.7,11.7,39.7,11.8,39.7,12z"/>
	<path class="st1" d="M34.2,27.7c-0.4-0.1-0.6-0.2-0.5-0.6c0-0.3,0-0.6,0.1-0.8c0.1-0.2,0.2-0.4,0.3-0.6c0.3-0.3,0.5-0.6,0.8-0.9
		c0.2-0.1,0.4-0.1,0.5,0.1c0.1,0.1,0.2,0.2,0.3,0.2c0.2,0.1,0.3,0.2,0.2,0.4c0,0.1-0.1,0.3-0.1,0.4c0,0.1,0,0.3,0.1,0.4
		c0.2,0.3,0.1,0.5-0.2,0.6c-0.3,0.1-0.5,0.3-0.8,0.4C34.7,27.5,34.5,27.6,34.2,27.7z"/>
	<path class="st1" d="M14.4,6.5c-0.2-0.5,0.1-0.8,0.3-1.1c0.1-0.2,0.2-0.5,0.4-0.6c0.3-0.3,0.6-0.6,0.9-0.8c0.1-0.1,0.2,0,0.3,0
		c0.2,0.1,0.3,0.2,0.5,0.3C17,4.4,17,4.5,16.9,4.7c-0.3,0.3-0.5,0.7-0.8,1c-0.4,0.3-0.9,0.6-1.3,0.9C14.7,6.5,14.5,6.5,14.4,6.5z"/>
</g>
</svg>
