<?xml version="1.0" encoding="utf-8"?>
<!-- Generator: $$$/GeneralStr/196=Adobe Illustrator 27.6.0, SVG Export Plug-In . SVG Version: 6.00 Build 0)  -->
<svg version="1.1" id="Ebene_1" xmlns="http://www.w3.org/2000/svg" xmlns:xlink="http://www.w3.org/1999/xlink" x="0px" y="0px"
	 viewBox="0 0 40 8.3" style="enable-background:new 0 0 40 8.3;" xml:space="preserve">
<style type="text/css">
	.st0{fill:#FFFFFF;}
	.st1{fill:#070707;}
</style>
<g>
	<path d="M6.2,0.2c1.9,0,3.9,0,5.8,0c0,0,0,0,0,0c0.1,0,0.1,0,0.1,0.1c0,2.6,0,5.1,0,7.7c0,0.1,0,0.1-0.1,0.1c-3.8,0-7.5,0-11.3,0
		c-0.1,0-0.3,0-0.4,0c-0.1,0-0.1,0-0.1-0.1c0-0.9,0-1.9,0-2.8c0-1.6,0-3.2,0-4.9c0-0.1,0-0.1,0.2-0.1C2.3,0.2,4.3,0.2,6.2,0.2z
		 M4.7,6.6c0,0,0,0.1-0.1,0.2c0,0,0,0.1,0,0.1c0,0,0.1,0,0.1,0c0,0,0.1-0.1,0.1-0.1c0,0,0.1,0,0.1,0c0,0,0.1,0.1,0.1,0.1
		c0,0,0,0,0.1,0c0,0,0,0,0-0.1c0,0,0-0.1,0-0.1c0-0.1,0-0.1,0-0.1c0,0,0.1-0.1,0.1-0.1c0,0,0,0,0-0.1c0,0,0,0-0.1,0
		c-0.1,0-0.1,0-0.2,0c0,0-0.1,0-0.1-0.1c0-0.1,0-0.1-0.1-0.2c0,0,0-0.1-0.1,0c0,0,0,0,0,0.1c0,0.1,0,0.1-0.1,0.2c0,0,0,0-0.1,0
		c-0.1,0-0.1,0-0.2,0c0,0-0.1,0-0.1,0c0,0,0,0.1,0,0.1C4.6,6.5,4.6,6.5,4.7,6.6C4.7,6.6,4.7,6.6,4.7,6.6z M7.3,6.3
		C7.3,6.3,7.3,6.3,7.3,6.3C7.2,6.3,7.2,6.3,7.3,6.3c-0.1,0-0.1,0-0.1,0c0,0,0,0.1,0,0.1c0,0,0.1,0.1,0.1,0.1c0,0,0,0.1,0,0.1
		c0,0.1,0,0.1-0.1,0.2c0,0,0,0,0,0.1c0,0,0,0,0.1,0c0,0,0.1-0.1,0.1-0.1c0,0,0.1,0,0.1,0c0,0,0.1,0.1,0.1,0.1c0,0,0,0,0.1,0
		c0,0,0,0,0-0.1c0,0,0-0.1,0-0.1c-0.1-0.1,0-0.2,0.1-0.2c0,0,0.1,0,0.1-0.1c0,0,0,0,0-0.1c0,0,0,0-0.1,0c0,0-0.1,0-0.1,0
		c-0.1,0-0.1,0-0.1-0.1c0-0.1,0-0.1-0.1-0.1c0,0,0,0,0,0c0,0,0,0,0,0c0,0.1,0,0.1-0.1,0.2C7.4,6.3,7.4,6.3,7.3,6.3
		C7.3,6.3,7.3,6.3,7.3,6.3z M3.3,4.5C3.3,4.5,3.3,4.6,3.3,4.5C3.3,4.6,3.3,4.6,3.3,4.5c0.1,0,0.2,0,0.2-0.1c0,0,0.1,0,0.1,0
		c0,0,0.1,0.1,0.1,0.1c0,0,0,0,0.1,0c0,0,0,0,0-0.1c0-0.1,0-0.1,0-0.2c0,0,0-0.1,0-0.1c0,0,0.1-0.1,0.1-0.1c0,0,0,0,0-0.1
		c0,0,0,0-0.1,0C3.8,4,3.8,4,3.7,4C3.7,4,3.6,4,3.6,3.9c0-0.1,0-0.1-0.1-0.2c0,0,0,0,0,0c0,0,0,0,0,0c0,0.1,0,0.1-0.1,0.1
		C3.5,4,3.4,4,3.3,4C3.3,4,3.2,4,3.2,4c0,0,0,0-0.1,0c0,0,0,0,0,0.1c0,0,0.1,0,0.1,0.1C3.3,4.3,3.4,4.3,3.3,4.5
		C3.3,4.5,3.3,4.5,3.3,4.5z M5.3,1.8C5.3,1.7,5.3,1.7,5.3,1.8c-0.1,0-0.2,0-0.2,0c0,0-0.1,0-0.1-0.1c0-0.1,0-0.1-0.1-0.2
		c0,0,0,0-0.1,0c0,0,0,0,0,0c0,0.1,0,0.1-0.1,0.2c0,0,0,0.1-0.1,0.1c-0.1,0-0.1,0-0.2,0c0,0-0.1,0-0.1,0c0,0,0,0.1,0,0.1
		c0,0,0.1,0.1,0.1,0.1c0,0,0,0.1,0,0.1c0,0.1,0,0.1-0.1,0.2c0,0,0,0,0,0.1c0,0,0,0,0.1,0c0,0,0.1-0.1,0.1-0.1c0.1,0,0.1,0,0.1,0
		c0,0,0.1,0.1,0.1,0.1c0,0,0,0,0.1,0c0,0,0,0,0-0.1c0-0.1,0-0.1-0.1-0.2c0,0,0-0.1,0-0.1C5.2,1.9,5.2,1.9,5.3,1.8
		C5.3,1.8,5.3,1.8,5.3,1.8z M8.6,4C8.6,4,8.6,4,8.6,4C8.6,4,8.6,4,8.6,4c-0.1,0-0.1,0-0.1,0c0,0,0,0.1,0,0.1c0,0,0.1,0.1,0.1,0.1
		c0,0,0,0,0,0.1c0,0.1,0,0.1-0.1,0.2c0,0,0,0.1,0,0.1c0,0,0.1,0,0.1,0c0,0,0.1-0.1,0.1-0.1c0,0,0.1,0,0.1,0c0,0,0.1,0.1,0.1,0.1
		c0,0,0,0,0.1,0c0,0,0,0,0-0.1c0-0.1,0-0.1,0-0.2c0,0,0-0.1,0-0.1c0,0,0.1-0.1,0.1-0.1c0,0,0,0,0-0.1c0,0,0,0-0.1,0
		C9.2,4,9.1,4,9.1,4C9,4,9,4,9,4c0,0,0-0.1-0.1-0.1c0,0,0-0.1,0-0.1c0,0-0.1,0-0.1,0c0,0.1,0,0.1-0.1,0.2C8.8,4,8.7,4,8.6,4
		C8.7,4,8.6,4,8.6,4z M7.3,1.7C7.3,1.7,7.3,1.7,7.3,1.7C7.3,1.7,7.2,1.7,7.3,1.7c-0.1,0-0.1,0-0.1,0c0,0,0,0.1,0,0.1
		c0,0,0.1,0,0.1,0.1C7.3,1.9,7.3,2,7.3,2c0,0.1-0.1,0.1-0.1,0.2c0,0,0,0,0,0.1c0,0,0,0,0.1,0c0,0,0.1-0.1,0.1-0.1c0,0,0.1,0,0.1,0
		c0,0,0.1,0.1,0.1,0.1c0,0,0.1,0,0.1,0c0,0,0-0.1,0-0.1C7.7,2,7.7,2,7.8,1.9c0,0,0.1,0,0.1-0.1c0,0,0,0,0-0.1c0,0,0,0-0.1,0
		c0,0-0.1,0-0.1,0c-0.1,0-0.1,0-0.1-0.1c0-0.1,0-0.1-0.1-0.1c0,0,0,0,0,0c0,0,0,0,0,0c0,0.1,0,0.1-0.1,0.2C7.5,1.7,7.4,1.7,7.3,1.7
		C7.3,1.7,7.3,1.7,7.3,1.7z M6,1.4c0,0-0.1,0-0.1,0c0,0,0,0-0.1,0c0,0,0,0,0,0.1c0,0,0.1,0.1,0.1,0.1C6,1.6,6,1.6,6,1.7
		c0,0,0,0.1,0,0.1c0,0,0,0.1,0,0.1c0,0,0.1,0,0.1,0c0,0,0.1-0.1,0.1-0.1c0,0,0.1,0,0.1,0c0.1,0,0.1,0.1,0.2,0.1c0,0,0,0,0,0
		c0,0,0,0,0,0c0-0.1,0-0.1-0.1-0.2c0-0.1,0-0.1,0-0.1c0,0,0.1-0.1,0.1-0.1c0,0,0.1,0,0-0.1c0,0,0,0-0.1,0c-0.1,0-0.1,0-0.2,0
		c0,0-0.1,0-0.1-0.1c0-0.1,0-0.1-0.1-0.2c0,0,0-0.1,0-0.1c0,0-0.1,0-0.1,0.1c0,0,0,0,0,0.1C6.1,1.4,6.1,1.4,6,1.4z M4.3,5.4
		C4.3,5.4,4.3,5.4,4.3,5.4c-0.1,0-0.2,0-0.2,0c0,0-0.1,0-0.1,0C4,5.3,4,5.2,4,5.2c0,0,0,0,0-0.1c0,0-0.1,0-0.1,0c0,0,0,0.1,0,0.1
		c0,0.1-0.1,0.2-0.2,0.2c0,0-0.1,0-0.1,0c0,0,0,0-0.1,0c0,0,0,0,0,0.1c0,0,0.1,0.1,0.1,0.1c0,0,0.1,0.1,0,0.1c0,0.1,0,0.1,0,0.2
		c0,0,0,0,0,0.1c0,0,0,0,0.1,0c0.1,0,0.1-0.1,0.2-0.1c0,0,0.1,0,0.1,0c0.1,0,0.1,0.1,0.2,0.1c0,0,0,0,0.1,0c0,0,0,0,0-0.1
		c0-0.1,0-0.1-0.1-0.2c0,0,0-0.1,0-0.1C4.2,5.5,4.2,5.5,4.3,5.4C4.3,5.5,4.3,5.4,4.3,5.4z M8.3,3.2C8.3,3.2,8.3,3.2,8.3,3.2
		c0.1-0.1,0.1-0.1,0.2-0.1c0.1,0,0.1,0,0.1,0c0,0,0.1,0.1,0.1,0.1c0,0,0,0,0.1,0c0,0,0-0.1,0-0.1c0-0.1,0-0.1-0.1-0.2c0,0,0,0,0-0.1
		c0.1,0,0.1-0.1,0.2-0.1c0,0,0,0,0,0c0,0,0,0-0.1,0c-0.1,0-0.1,0-0.2,0c0,0-0.1,0-0.1-0.1c0-0.1,0-0.1-0.1-0.2c0,0,0,0,0,0
		c0,0,0,0,0,0c0,0,0,0.1,0,0.1c0,0.1,0,0.1-0.2,0.1c0,0-0.1,0-0.1,0c0,0,0,0,0,0c0,0,0,0,0,0c0,0,0.1,0.1,0.1,0.1
		C8.3,2.9,8.3,3,8.3,3C8.3,3.1,8.3,3.1,8.3,3.2C8.2,3.2,8.2,3.2,8.3,3.2z M5.9,6.7c0,0-0.1,0-0.1,0c0,0,0,0,0,0c0,0,0,0,0,0
		c0,0,0.1,0.1,0.1,0.1C6,6.9,6,7,6,7c0,0.1,0,0.1,0,0.2c0,0,0,0,0,0c0,0,0,0,0.1,0c0.1,0,0.1-0.1,0.1-0.1c0.1,0,0.1,0,0.2,0
		c0,0,0.1,0.1,0.1,0.1c0,0,0,0,0.1,0c0,0,0,0,0-0.1c0-0.1,0-0.1-0.1-0.2c0,0,0-0.1,0-0.1c0.1,0,0.1-0.1,0.2-0.1c0,0,0,0,0-0.1
		c0,0,0,0-0.1,0c-0.1,0-0.1,0-0.2,0c0,0-0.1,0-0.1,0c0-0.1,0-0.1,0-0.2c0,0,0-0.1,0-0.1c0,0-0.1,0-0.1,0.1c0,0,0,0,0,0
		C6.1,6.7,6.1,6.7,5.9,6.7z M3.9,2.4C3.9,2.4,3.9,2.5,3.9,2.4C3.8,2.6,3.8,2.6,3.8,2.7c0,0,0,0.1-0.1,0.1c-0.1,0-0.1,0-0.2,0
		c0,0,0,0-0.1,0c0,0,0,0,0,0c0,0,0.1,0.1,0.1,0.1c0,0,0,0.1,0,0.1c0,0.1,0,0.1-0.1,0.2c0,0,0,0,0,0.1c0,0,0,0,0.1,0
		c0,0,0.1-0.1,0.1-0.1c0.1,0,0.1,0,0.1,0c0,0,0.1,0.1,0.1,0.1c0,0,0,0,0.1,0c0,0,0,0,0-0.1c0-0.1,0-0.1-0.1-0.2c0,0,0-0.1,0-0.1
		c0.1,0,0.1-0.1,0.2-0.1c0,0,0,0,0-0.1c0,0,0,0-0.1,0c-0.1,0-0.1,0-0.2,0c0,0-0.1,0-0.1,0C4,2.6,4,2.5,3.9,2.4
		C3.9,2.5,3.9,2.4,3.9,2.4z M8.3,5.8C8.3,5.8,8.3,5.9,8.3,5.8C8.3,5.9,8.3,5.9,8.3,5.8c0.1,0,0.2,0,0.2-0.1c0,0,0.1,0,0.1,0
		c0.1,0,0.1,0.1,0.1,0.1c0,0,0,0,0.1,0c0,0,0,0,0-0.1c0-0.1,0-0.1-0.1-0.2c0,0,0-0.1,0-0.1c0,0,0.1-0.1,0.1-0.1c0,0,0,0,0-0.1
		c0,0,0,0-0.1,0c-0.1,0-0.1,0-0.2,0c-0.1,0-0.1,0-0.1-0.1c0-0.1,0-0.1-0.1-0.2c0,0,0,0-0.1,0c0,0,0,0.1-0.1,0.1
		c0,0.1-0.1,0.1-0.2,0.1c0,0-0.1,0-0.1,0c0,0,0,0,0,0c0,0,0,0,0,0c0,0,0.1,0.1,0.1,0.1c0.1,0.1,0.1,0.1,0,0.2
		C8.3,5.8,8.3,5.8,8.3,5.8z"/>
	<path d="M25.1,6.7c0-0.5,0-0.9,0-1.4c0-0.1,0-0.1,0.1-0.1c0.1,0,0.2,0,0.3,0c0.1,0,0.1,0,0.1,0.1c0,0.1,0,0.1,0,0.2
		c0,0.1,0,0.1,0.1,0c0.2-0.1,0.3-0.2,0.5-0.3c0.1,0,0.1,0,0.2-0.1c0.3-0.1,0.7,0,0.9,0.3c0,0,0,0.1,0.1,0.1c0.1,0,0.1-0.1,0.1-0.1
		c0.1-0.1,0.3-0.2,0.4-0.3c0.1-0.1,0.2-0.1,0.4-0.1c0.2,0,0.4,0,0.5,0c0.2,0.1,0.3,0.2,0.4,0.4c0.1,0.2,0.1,0.4,0.1,0.6
		c0,0.7,0,1.3,0,2c0,0.1,0,0.1-0.1,0.1c-0.1,0-0.2,0-0.3,0c-0.1,0-0.1,0-0.1-0.1c0-0.5,0-1,0-1.5c0-0.2,0-0.3,0-0.5
		c0-0.2-0.1-0.3-0.3-0.4c-0.2-0.1-0.3-0.1-0.5,0c-0.2,0.1-0.4,0.2-0.6,0.3c0,0-0.1,0.1-0.1,0.1c0,0.1,0,0.3,0,0.4c0,0.5,0,1.1,0,1.6
		c0,0.1,0,0.1-0.1,0.1c-0.1,0-0.2,0-0.3,0c-0.1,0-0.1,0-0.1-0.1c0-0.5,0-1,0-1.5c0-0.2,0-0.3,0-0.5c0-0.1,0-0.2-0.1-0.3
		c-0.1-0.2-0.2-0.3-0.4-0.3c-0.2,0-0.4,0.1-0.6,0.2c-0.1,0-0.2,0.1-0.2,0.1c-0.1,0-0.1,0.1-0.1,0.2c0,0.4,0,0.8,0,1.2
		c0,0.3,0,0.6,0,0.9c0,0.1,0,0.1-0.1,0.1c-0.1,0-0.2,0-0.3,0c-0.1,0-0.1,0-0.1-0.1C25.1,7.6,25.1,7.2,25.1,6.7z"/>
	<path d="M13.9,6.2c0-0.6,0-1.2,0-1.9c0-0.1,0-0.1,0.1-0.1c0.8,0,1.6,0,2.4,0c0.1,0,0.1,0,0.1,0.1c0,0.1,0,0.2,0,0.3
		c0,0.1,0,0.1-0.1,0.1c-0.3,0-0.6,0-1,0c-0.3,0-0.6,0-0.9,0c-0.1,0-0.2,0-0.2,0.2c0,0.3,0,0.6,0,0.8c0,0.1,0,0.1,0.1,0.1
		c0.6,0,1.2,0,1.9,0c0.1,0,0.1,0,0.1,0.1c0,0.1,0,0.2,0,0.3c0,0.1,0,0.1-0.1,0.1c-0.4,0-0.7,0-1.1,0c-0.3,0-0.6,0-0.8,0
		c-0.1,0-0.1,0-0.1,0.1c0,0.4,0,0.8,0,1.2c0,0.1,0,0.1,0.1,0.1c0.6,0,1.2,0,1.8,0c0.1,0,0.1,0,0.1,0.1c0,0.1,0,0.1,0,0.2
		c0,0.1,0,0.1-0.1,0.1c-0.2,0-0.5,0-0.7,0c-0.5,0-1.1,0-1.6,0c-0.1,0-0.1,0-0.1-0.1C13.9,7.4,13.9,6.8,13.9,6.2z"/>
	<path d="M21.7,7c0,0.4,0,0.7,0,1.1c0,0.1,0,0.1-0.1,0.1c-0.1,0-0.2,0-0.3,0c-0.1,0-0.1,0-0.1-0.1c0,0,0-0.1,0-0.1
		c0-0.1,0-0.1-0.1-0.1C21,8,20.9,8,20.8,8.1c-0.2,0.1-0.4,0.2-0.6,0.2c-0.1,0-0.1,0-0.2,0c-0.3,0-0.7-0.2-0.8-0.6
		c-0.1-0.2-0.1-0.5,0-0.7c0.1-0.2,0.2-0.4,0.4-0.5c0.2-0.1,0.5-0.2,0.8-0.2c0.2,0,0.5,0,0.7-0.1c0.1,0,0.1,0,0.1-0.1
		c0-0.2-0.1-0.3-0.2-0.4c-0.1-0.1-0.2-0.1-0.3-0.1c-0.2,0-0.4,0-0.6,0c-0.2,0-0.3,0.1-0.5,0.1c0,0-0.1,0-0.1,0c0,0,0,0,0,0
		c0-0.1,0-0.3,0-0.4c0,0,0,0,0,0c0.1,0,0.1,0,0.2,0c0.2,0,0.4-0.1,0.5-0.1c0.2,0,0.3,0,0.5,0c0.1,0,0.3,0,0.4,0.1
		c0.2,0.1,0.4,0.2,0.5,0.4c0.1,0.1,0.1,0.3,0.1,0.5c0,0.1,0,0.3,0,0.4S21.7,6.8,21.7,7C21.7,7,21.7,7,21.7,7z M21.2,7.1
		C21.2,7.1,21.2,7.1,21.2,7.1c0-0.1,0-0.2,0-0.3c0-0.1,0-0.1-0.1-0.1c0,0,0,0,0,0c-0.1,0-0.3,0-0.4,0c-0.2,0-0.4,0-0.5,0.1
		c-0.2,0.1-0.4,0.2-0.4,0.4c0,0.1,0,0.3,0,0.4c0.1,0.2,0.2,0.2,0.4,0.2c0.1,0,0.2,0,0.3,0c0.1,0,0.2,0,0.3-0.1
		c0.1-0.1,0.3-0.1,0.4-0.2c0.1,0,0.1-0.1,0.1-0.2C21.2,7.3,21.2,7.2,21.2,7.1z"/>
	<path d="M32.7,6.7c0,0.5,0,0.9,0,1.4c0,0.1,0,0.1-0.1,0.1c-0.1,0-0.2,0-0.3,0c-0.1,0-0.1,0-0.1-0.1c0,0,0-0.1,0-0.1
		c0-0.1,0-0.1-0.1,0C32,8,31.8,8.1,31.6,8.2c-0.1,0-0.2,0.1-0.3,0.1c-0.1,0-0.2,0-0.3,0c-0.3,0-0.6-0.2-0.7-0.5
		c-0.1-0.2-0.1-0.4-0.1-0.6c0-0.6,0-1.2,0-1.7c0,0,0-0.1,0-0.1c0-0.1,0-0.1,0.1-0.1c0.1,0,0.2,0,0.3,0c0.1,0,0.1,0,0.1,0.1
		c0,0.5,0,1,0,1.5c0,0.2,0,0.4,0,0.6c0,0.2,0.1,0.3,0.3,0.4c0.2,0.1,0.4,0,0.7,0c0.2-0.1,0.3-0.1,0.4-0.2c0.1,0,0.1-0.1,0.1-0.2
		c0-0.5,0-1,0-1.5c0-0.2,0-0.4,0-0.5c0-0.1,0-0.1,0.1-0.1c0.1,0,0.2,0,0.3,0c0.1,0,0.1,0,0.1,0.1c0,0.4,0,0.8,0,1.2
		C32.7,6.6,32.7,6.7,32.7,6.7z"/>
	<path d="M33.3,7.8c0-0.1,0-0.1,0-0.2c0,0,0-0.1,0.1,0c0.1,0.1,0.3,0.2,0.5,0.2c0.3,0.1,0.5,0.1,0.8,0.1c0.1,0,0.3-0.1,0.4-0.2
		c0.2-0.2,0.1-0.6-0.2-0.6c-0.2-0.1-0.4-0.1-0.6-0.1c-0.2,0-0.4-0.1-0.6-0.2c-0.2-0.1-0.3-0.3-0.3-0.6c0-0.3,0.1-0.6,0.4-0.8
		c0.1-0.1,0.3-0.2,0.5-0.2c0.1,0,0.2,0,0.3,0c0.2,0,0.4,0,0.6,0.1c0.1,0,0.2,0.1,0.3,0.1c0.1,0,0.1,0.1,0.1,0.1c0,0.1,0,0.2,0,0.4
		c0,0,0,0,0,0.1c0,0,0,0-0.1,0c-0.2-0.1-0.4-0.2-0.7-0.3c-0.1,0-0.2,0-0.4,0c-0.1,0-0.3,0.1-0.4,0.1c-0.2,0.1-0.2,0.5,0,0.6
		c0.1,0.1,0.3,0.1,0.4,0.1c0.2,0,0.4,0.1,0.5,0.1c0.2,0.1,0.4,0.1,0.5,0.3c0.1,0.1,0.1,0.2,0.1,0.3c0,0.2,0,0.3-0.1,0.5
		c-0.1,0.2-0.2,0.3-0.4,0.4c-0.2,0.1-0.5,0.2-0.7,0.2c-0.2,0-0.4,0-0.6-0.1c-0.2,0-0.3-0.1-0.5-0.2c0,0-0.1,0-0.1-0.1
		C33.3,7.9,33.3,7.8,33.3,7.8C33.3,7.8,33.3,7.8,33.3,7.8z"/>
	<path d="M22.3,7.8c0-0.1,0-0.1,0-0.2c0,0,0-0.1,0.1,0c0.1,0.1,0.3,0.2,0.5,0.2c0.3,0.1,0.5,0.1,0.8,0.1c0.2,0,0.3-0.1,0.4-0.2
		c0.1-0.2,0.1-0.5-0.2-0.6c-0.2-0.1-0.4-0.1-0.6-0.2c-0.3-0.1-0.5-0.1-0.7-0.3c-0.1-0.1-0.2-0.2-0.2-0.3c-0.1-0.2,0-0.4,0-0.5
		c0.1-0.2,0.2-0.3,0.3-0.4c0.3-0.2,0.7-0.3,1.1-0.2c0.1,0,0.2,0,0.4,0.1c0.1,0,0.2,0.1,0.3,0.1c0,0,0.1,0,0.1,0.1c0,0.1,0,0.3,0,0.4
		c0,0.1,0,0.1-0.1,0c-0.2-0.1-0.4-0.2-0.7-0.3c-0.1,0-0.3,0-0.4,0c-0.2,0-0.3,0.1-0.4,0.2c-0.2,0.2-0.1,0.5,0.1,0.6
		c0.1,0.1,0.3,0.1,0.5,0.1c0.1,0,0.2,0,0.3,0.1c0.1,0,0.2,0,0.3,0.1c0.2,0.1,0.4,0.2,0.5,0.4c0.1,0.1,0.1,0.3,0.1,0.5
		c0,0.2-0.1,0.3-0.2,0.5c-0.1,0.1-0.2,0.2-0.3,0.2c-0.4,0.2-0.7,0.2-1.1,0.1c-0.2,0-0.4-0.1-0.6-0.2c-0.1,0-0.1-0.1-0.1-0.2
		c0,0,0,0,0,0C22.3,7.9,22.3,7.8,22.3,7.8C22.3,7.8,22.3,7.8,22.3,7.8z"/>
	<path d="M38,7.4c0-0.2,0-0.4,0-0.6c0-0.1,0-0.1-0.1-0.1c-0.4,0-0.8,0-1.2,0c-0.1,0-0.1,0-0.1-0.1c0-0.1,0-0.1,0-0.2
		c0-0.1,0-0.1,0.1-0.1c0.2,0,0.5,0,0.7,0c0.2,0,0.4,0,0.5,0c0.1,0,0.1,0,0.1-0.1c0-0.4,0-0.8,0-1.2c0-0.1,0-0.1,0.1-0.1
		c0.1,0,0.1,0,0.2,0c0.1,0,0.1,0,0.1,0.1c0,0.4,0,0.8,0,1.2c0,0.2,0,0.2,0.2,0.2c0.4,0,0.8,0,1.2,0c0.1,0,0.1,0,0.1,0.1
		c0,0.1,0,0.1,0,0.2c0,0.1,0,0.1-0.1,0.1c-0.4,0-0.8,0-1.2,0c0,0-0.1,0-0.1,0c-0.1,0-0.1,0-0.1,0.1c0,0.3,0,0.5,0,0.8
		c0,0.2,0,0.3,0,0.5c0,0.1,0,0.1-0.1,0.1c-0.1,0-0.2,0-0.2,0C38,8.1,38,8.1,38,8C38,7.8,38,7.6,38,7.4C38,7.4,38,7.4,38,7.4z"/>
	<path d="M17.1,6.7c0-0.5,0-0.9,0-1.4c0-0.1,0-0.1,0.1-0.1c0.1,0,0.2,0,0.3,0c0.1,0,0.1,0,0.1,0.1c0,0.1,0,0.1,0,0.2
		c0,0,0,0.1,0,0.1c0,0,0.1,0,0.1,0c0.1-0.1,0.3-0.2,0.4-0.3c0.2-0.1,0.4-0.1,0.5-0.1c0.1,0,0.1,0,0.2,0c0.1,0,0.1,0,0.1,0.1
		c0,0.1,0,0.2,0,0.3c0,0,0,0.1-0.1,0.1c0,0-0.1,0-0.1,0c-0.3-0.1-0.6,0-0.8,0.1c-0.1,0-0.2,0.1-0.3,0.2c0,0-0.1,0.1-0.1,0.1
		c0,0.1,0,0.2,0,0.2c0,0.6,0,1.1,0,1.7c0,0.1,0,0.1-0.1,0.1c-0.1,0-0.2,0-0.3,0c-0.1,0-0.1,0-0.1-0.1C17.1,7.6,17.1,7.2,17.1,6.7
		C17.1,6.7,17.1,6.7,17.1,6.7z"/>
</g>
</svg>
