<?xml version="1.0" encoding="utf-8"?>
<!-- Generator: $$$/GeneralStr/196=Adobe Illustrator 27.6.0, SVG Export Plug-In . SVG Version: 6.00 Build 0)  -->
<svg version="1.1" id="Ebene_1" xmlns="http://www.w3.org/2000/svg" xmlns:xlink="http://www.w3.org/1999/xlink" x="0px" y="0px"
	 viewBox="0 0 40 17.8" style="enable-background:new 0 0 40 17.8;" xml:space="preserve">
<style type="text/css">
	.st0{fill:#FFFFFF;}
	.st1{fill:#070707;}
</style>
<g>
	<path d="M0.3,2.7C0.5,2.8,0.6,3,0.7,3.1c0.6,0.8,1.2,1.6,1.8,2.5c0.1,0.1,0.1,0.1,0.1,0C3.1,4.7,3.7,3.9,4.2,3
		c0-0.1,0.1-0.1,0.1-0.2c0.1-0.1,0.1-0.1,0.1,0C4.7,3.1,4.8,3.4,5,3.7C5.4,4.3,5.8,5,6.2,5.6c0,0.1,0.1,0.1,0.1,0
		C7,4.6,7.7,3.7,8.4,2.7c0,0,0-0.1,0.1-0.1c0,0,0,0.1,0,0.1c0,2.4,0,4.8,0,7.2c0,0.1,0,0.1-0.1,0.1c-2.6,0-5.3,0-7.9,0
		c-0.1,0-0.1,0-0.1-0.1c0-2.4,0-4.8,0-7.2C0.3,2.7,0.3,2.7,0.3,2.7C0.3,2.7,0.3,2.7,0.3,2.7z M5.7,6.4C5.7,6.4,5.7,6.4,5.7,6.4
		c-0.4-0.7-0.8-1.3-1.3-2c0-0.1-0.1-0.1-0.1,0C4,5.1,3.5,5.7,3.1,6.3c0,0,0,0.1,0,0.1C3.5,7,3.9,7.6,4.3,8.1c0,0.1,0.1,0.1,0.1,0
		C4.9,7.6,5.3,7,5.7,6.4C5.7,6.5,5.7,6.4,5.7,6.4z M6.1,9.3c0.4,0,0.9,0,1.3,0c0,0,0.1,0,0.1,0c0,0,0-0.1,0-0.1
		C7.1,8.5,6.7,7.9,6.3,7.3c0-0.1-0.1-0.1-0.1,0C5.7,7.9,5.2,8.5,4.8,9.2c0,0-0.1,0.1,0,0.1c0,0,0.1,0,0.1,0C5.3,9.3,5.7,9.3,6.1,9.3
		z M1.3,9.3c0.9,0,1.9,0,2.8,0c0,0,0,0,0,0C3.6,8.6,3.1,7.9,2.6,7.3c-0.1-0.1-0.1,0-0.1,0C2.2,7.7,1.9,8.2,1.7,8.7
		C1.5,8.8,1.4,9,1.3,9.3z M7.6,7.7c0-0.8,0-1.6,0-2.4C7.3,5.7,7.1,6,6.8,6.4c0,0,0,0.1,0,0.1C7,6.7,7.1,6.9,7.2,7.1
		C7.3,7.3,7.5,7.5,7.6,7.7z M1.2,7.7C1.2,7.7,1.2,7.7,1.2,7.7C1.5,7.3,1.7,6.9,2,6.5c0,0,0-0.1,0-0.1c-0.2-0.3-0.5-0.7-0.7-1
		c0,0,0,0,0,0C1.2,6.1,1.2,6.9,1.2,7.7z"/>
	<path d="M34.4,8c0.1-0.1,0.2-0.2,0.4-0.3c0.3-0.1,0.6,0,0.8,0.3c0,0.1,0.1,0.1,0.1,0c0.1-0.1,0.3-0.3,0.5-0.3
		c0.3-0.1,0.5,0,0.7,0.3c0.1,0.1,0.1,0.3,0.1,0.5c0,0.9,0,1.9,0,2.8c0,0.1,0,0.1-0.1,0.1c-0.2,0-0.5,0-0.7,0c-0.1,0-0.1,0-0.1-0.1
		c0-0.8,0-1.7,0-2.5c0-0.1,0-0.1,0-0.2c0-0.1-0.1-0.1-0.2-0.1c-0.1,0.1-0.2,0.1-0.2,0.3c0,0.8,0,1.7,0,2.5c0,0.2,0,0.2-0.2,0.2
		c-0.2,0-0.4,0-0.7,0c-0.1,0-0.1,0-0.1-0.2c0-0.8,0-1.7,0-2.5c0-0.1,0-0.1,0-0.2c0-0.1-0.1-0.1-0.2-0.1c-0.1,0.1-0.2,0.1-0.2,0.3
		c0,0.8,0,1.7,0,2.5c0,0.1,0,0.1-0.1,0.1c-0.2,0-0.4,0-0.7,0c-0.2,0-0.2,0-0.2-0.2c0-0.6,0-1.2,0-1.8c0-0.5,0-1,0-1.5
		c0-0.1,0-0.1,0.1-0.1c0.2,0,0.5,0,0.7,0C34.4,7.8,34.4,7.8,34.4,8C34.4,8,34.4,8,34.4,8z"/>
	<path d="M29.4,11.2c-0.1,0.1-0.1,0.1-0.2,0.2c-0.5,0.3-1.1,0-1.1-0.5c0-0.1,0-0.1,0-0.2c0-0.7,0-1.4,0-2c0-0.2,0.1-0.4,0.2-0.6
		c0.3-0.3,0.7-0.4,1-0.1c0,0,0,0.1,0.1,0.1c0,0,0-0.1,0-0.1c0-0.4,0-0.9,0-1.3c0-0.1,0-0.1,0.1-0.1c0.2,0,0.5,0,0.7,0
		c0.1,0,0.1,0,0.1,0.1c0,1.6,0,3.2,0,4.8c0,0.1,0,0.1-0.1,0.1c-0.2,0-0.5,0-0.7,0C29.5,11.4,29.5,11.4,29.4,11.2
		C29.5,11.3,29.4,11.2,29.4,11.2z M29.1,9.6c0,0.3,0,0.6,0,0.9c0,0,0,0.1,0,0.1c0,0.1,0.1,0.1,0.1,0.1c0.1,0,0.2-0.1,0.2-0.2
		c0-0.6,0-1.2,0-1.8c0-0.1,0-0.1-0.1-0.1c-0.1-0.1-0.1-0.2-0.2-0.1c-0.1,0-0.1,0.1-0.1,0.2C29.1,9,29.1,9.3,29.1,9.6z"/>
	<path d="M14.1,11.4c-0.1,0-0.3,0-0.4,0c-0.1,0-0.1,0-0.1-0.1c0-0.3-0.1-0.6-0.2-0.8c0-0.1,0-0.1-0.1-0.1c-0.1,0-0.3,0-0.4,0
		c-0.1,0-0.1,0-0.1,0.1c0,0.3-0.1,0.6-0.2,0.9c0,0.1,0,0.1-0.1,0.1c-0.3,0-0.5,0-0.8,0c-0.1,0-0.1,0-0.1-0.1
		c0.2-0.9,0.4-1.8,0.6-2.7c0.1-0.7,0.3-1.4,0.4-2c0-0.1,0.1-0.1,0.2-0.1c0.2,0,0.4,0,0.7,0c0.1,0,0.1,0,0.1,0.1
		c0.2,0.9,0.4,1.7,0.6,2.6c0.2,0.7,0.3,1.4,0.5,2.1c0,0,0,0,0,0.1c0,0.1,0,0.1-0.1,0.1C14.4,11.4,14.3,11.4,14.1,11.4z M13.2,8
		C13.1,8,13.1,8,13.2,8c-0.1,0.5-0.2,1.1-0.2,1.6c0,0.1,0,0.1,0.1,0.1c0.1,0,0.2,0,0.3,0c0.1,0,0.1,0,0.1-0.1c0-0.2-0.1-0.4-0.1-0.7
		C13.2,8.6,13.2,8.3,13.2,8z"/>
	<path d="M22.2,11.4c-0.1,0-0.3,0-0.4,0c-0.1,0-0.1,0-0.1-0.1c-0.1-0.3-0.1-0.6-0.2-0.9c0-0.1,0-0.1-0.1-0.1c-0.1,0-0.3,0-0.4,0
		c-0.1,0-0.1,0-0.1,0.1c0,0.3-0.1,0.6-0.2,0.9c0,0.1-0.1,0.1-0.1,0.1c-0.3,0-0.5,0-0.8,0c-0.1,0-0.1,0-0.1-0.1
		c0.3-1.4,0.6-2.8,0.9-4.2c0-0.2,0.1-0.4,0.1-0.5c0-0.1,0-0.1,0.1-0.1c0.2,0,0.5,0,0.7,0c0.1,0,0.1,0,0.1,0.1
		c0.3,1.2,0.5,2.5,0.8,3.7c0.1,0.3,0.2,0.7,0.2,1c0,0.1,0,0.1-0.1,0.1C22.4,11.4,22.3,11.4,22.2,11.4z M21.2,8.1
		C21.1,8.1,21.1,8.1,21.2,8.1c0,0.2-0.1,0.4-0.1,0.6c0,0.3-0.1,0.6-0.1,1c0,0.1,0,0.1,0.1,0.1c0.1,0,0.2,0,0.3,0
		c0.1,0,0.1,0,0.1-0.1c0-0.3-0.1-0.6-0.1-0.9C21.2,8.5,21.2,8.3,21.2,8.1z"/>
	<path d="M4.4,11.4c-1.3,0-2.6,0-4,0c-0.1,0-0.1,0-0.1-0.1c0-0.2,0-0.4,0-0.6c0-0.1,0-0.1,0.1-0.1c0.8,0,1.6,0,2.4,0
		c1.8,0,3.7,0,5.5,0c0.1,0,0.1,0,0.1,0.1c0,0.2,0,0.4,0,0.6c0,0.1,0,0.1-0.1,0.1C7.1,11.4,5.7,11.4,4.4,11.4z"/>
	<path d="M11.8,15.9c0-0.2,0-0.6,0-0.9c0-0.4,0.2-0.7,0.6-0.8c0.4-0.2,0.8-0.2,1.2,0.1c0.3,0.1,0.4,0.4,0.4,0.7c0,0.1,0,0.3,0,0.4
		c0,0.5,0,1,0,1.5c0,0.7-0.5,1-1,1.1c-0.4,0-0.8,0-1-0.3c-0.2-0.2-0.3-0.4-0.3-0.6C11.8,16.6,11.8,16.3,11.8,15.9z M12.8,16
		c0,0.3,0,0.6,0,0.9c0,0,0,0.1,0,0.1c0,0.1,0.1,0.1,0.1,0.1c0.1,0,0.1,0,0.2-0.1c0,0,0-0.1,0-0.1c0-0.6,0-1.2,0-1.8c0,0,0-0.1,0-0.1
		c0-0.1-0.1-0.1-0.2-0.1c-0.1,0-0.1,0-0.2,0.1c0,0,0,0.1,0,0.1C12.8,15.4,12.8,15.7,12.8,16z"/>
	<path d="M21,17.5c-0.2,0.4-0.8,0.5-1.1,0.3c-0.2-0.1-0.2-0.3-0.3-0.5c-0.1-0.6,0.1-1.2,0.7-1.5c0.2-0.1,0.3-0.2,0.5-0.2
		c0.1,0,0.1-0.1,0.1-0.1c0-0.1,0-0.3,0-0.4c0-0.1-0.1-0.2-0.2-0.2c-0.1,0-0.2,0.1-0.2,0.2c0,0.1,0,0.2,0,0.3c0,0.1,0,0.1-0.1,0.1
		c-0.2,0-0.5,0-0.7,0c-0.1,0-0.1,0-0.1-0.1c0-0.3,0.1-0.5,0.2-0.8c0.2-0.3,0.5-0.4,0.9-0.4c0.5,0,0.9,0.2,1.1,0.7
		c0,0.1,0.1,0.2,0.1,0.4c0,0.5,0,1.1,0,1.6c0,0.3,0,0.6,0.1,0.9c0,0.1,0,0.1-0.1,0.1c-0.2,0-0.4,0-0.7,0c-0.1,0-0.1,0-0.1-0.1
		C21.1,17.6,21,17.5,21,17.5z M20.9,16.1c-0.2,0.2-0.4,0.4-0.4,0.6c0,0.1,0,0.2,0,0.3c0,0.1,0.1,0.1,0.1,0.1c0.1,0,0.3-0.1,0.3-0.2
		C20.9,16.7,20.9,16.4,20.9,16.1z"/>
	<path d="M29.4,17.5c-0.2,0.4-0.4,0.4-0.8,0.4c-0.4,0-0.6-0.3-0.7-0.7c-0.1-0.6,0.2-1.1,0.7-1.4c0.2-0.1,0.4-0.2,0.6-0.3
		c0.1,0,0.1-0.1,0.1-0.2c0-0.1,0-0.3,0-0.4c0-0.1-0.1-0.2-0.2-0.2c-0.1,0-0.2,0-0.2,0.2c0,0.1,0,0.2,0,0.3c0,0.1,0,0.1-0.1,0.1
		c-0.2,0-0.5,0-0.7,0c-0.1,0-0.1,0-0.1-0.1c0-0.3,0.1-0.6,0.3-0.9c0.3-0.3,0.7-0.4,1.1-0.3c0.4,0.1,0.8,0.4,0.9,0.8
		c0,0.1,0,0.1,0,0.2c0,0.5,0,1,0,1.5c0,0.4,0,0.7,0.1,1c0,0.1,0,0.1-0.1,0.1c-0.2,0-0.5,0-0.7,0c-0.1,0-0.1,0-0.1-0.1
		C29.5,17.6,29.5,17.5,29.4,17.5z M29.3,16.1c-0.2,0.1-0.3,0.3-0.4,0.5c0,0.1,0,0.2,0,0.3c0,0.1,0.1,0.2,0.2,0.1
		c0.1,0,0.2-0.1,0.2-0.3C29.3,16.7,29.3,16.4,29.3,16.1C29.3,16.2,29.3,16.2,29.3,16.1z"/>
	<path d="M26.8,11.1c-0.2,0.4-0.8,0.6-1.2,0.2c-0.2-0.2-0.3-0.4-0.3-0.7c0-0.6,0.2-1,0.8-1.3c0.2-0.1,0.3-0.2,0.5-0.2
		c0.1,0,0.1-0.1,0.1-0.1c0-0.1,0-0.3,0-0.4c0-0.1-0.1-0.2-0.2-0.2c-0.1,0-0.2,0.1-0.2,0.2c0,0.1,0,0.2,0,0.3c0,0.1,0,0.1-0.1,0.1
		c-0.2,0-0.5,0-0.7,0c-0.1,0-0.1,0-0.1-0.1c0-0.3,0.1-0.7,0.4-0.9c0.2-0.2,0.4-0.3,0.7-0.3c0.4-0.1,0.8,0.1,1.1,0.4
		c0.1,0.2,0.2,0.4,0.2,0.6c0,0.5,0,1.1,0,1.6c0,0.3,0,0.6,0.1,0.9c0,0.1,0,0.1-0.1,0.1c-0.2,0-0.4,0-0.7,0c-0.1,0-0.1,0-0.1-0.1
		C26.9,11.3,26.9,11.2,26.8,11.1z M26.7,10.2c0-0.1,0-0.2,0-0.4c0,0,0,0,0-0.1c0,0,0,0,0,0c-0.2,0.1-0.3,0.3-0.3,0.5
		c0,0.1,0,0.2,0,0.3c0,0.1,0.1,0.1,0.2,0.1c0.1,0,0.2-0.1,0.2-0.3C26.7,10.4,26.7,10.3,26.7,10.2z"/>
	<path d="M30.9,9.6c0-0.3,0-0.6,0-0.9c0-0.1,0-0.2,0.1-0.3c0.1-0.3,0.4-0.5,0.7-0.6c0.2,0,0.3,0,0.5,0c0.5,0.1,0.8,0.4,0.9,0.9
		c0.1,0.3,0,0.7,0,1c0,0.1-0.1,0.1-0.1,0.1c-0.3,0-0.7,0-1,0c-0.1,0-0.1,0-0.1,0.1c0,0.2,0,0.4,0,0.7c0,0,0,0.1,0,0.1
		c0,0.1,0.1,0.1,0.1,0.1c0.1,0,0.1,0,0.2-0.1c0-0.1,0-0.1,0-0.2c0-0.1,0-0.2,0-0.3c0-0.1,0-0.1,0.1-0.1c0.3,0,0.5,0,0.8,0
		c0,0,0.1,0,0.1,0.1c0,0.2,0,0.5-0.1,0.7c-0.1,0.2-0.2,0.4-0.4,0.5c-0.4,0.3-1.1,0.2-1.4-0.1c-0.2-0.2-0.3-0.4-0.3-0.7
		C30.9,10.2,30.9,10,30.9,9.6z M31.8,8.9C31.8,8.9,31.8,8.9,31.8,8.9c0,0.1,0,0.2,0,0.2c0,0.1,0,0.1,0.1,0.1c0.1,0,0.2,0.1,0.2-0.1
		c0-0.2,0-0.4,0-0.5c0-0.1-0.1-0.2-0.2-0.2c-0.1,0-0.1,0.1-0.2,0.2C31.8,8.7,31.8,8.8,31.8,8.9z"/>
	<path d="M22.9,9.7c0-0.3,0-0.5,0-0.8c0-0.2,0-0.4,0.1-0.5c0.1-0.3,0.3-0.5,0.6-0.6c0.3-0.1,0.6-0.1,0.9,0c0.4,0.1,0.6,0.5,0.6,0.9
		c0,0.2,0,0.4,0,0.5c0,0.1,0,0.1-0.1,0.1c-0.3,0-0.5,0-0.8,0c-0.1,0-0.1,0-0.1-0.1c0-0.1,0-0.3,0-0.4c0-0.1,0-0.2,0-0.2
		c0-0.1-0.1-0.1-0.1-0.1c-0.1,0-0.1,0-0.1,0.1c0,0.1,0,0.1,0,0.2c0,0.6,0,1.2,0,1.8c0,0.1,0,0.1,0,0.2c0,0.1,0.1,0.1,0.1,0.1
		c0.1,0,0.1,0,0.1-0.1c0-0.1,0-0.1,0-0.2c0-0.1,0-0.3,0-0.4c0-0.1,0-0.1,0.1-0.1c0.3,0,0.5,0,0.8,0c0,0,0.1,0,0.1,0.1
		c0,0.2,0,0.4,0,0.6c0,0.3-0.2,0.6-0.5,0.7c-0.5,0.2-1.1,0.1-1.4-0.2c-0.2-0.2-0.3-0.4-0.3-0.6C22.9,10.3,22.9,10,22.9,9.7z"/>
	<path d="M17.4,15.3c0-0.8,0-1.6,0-2.3c0-0.1,0-0.1,0.2-0.1c0.2,0,0.5,0,0.7,0c0.1,0,0.1,0,0.1,0.1c0,1.3,0,2.5,0,3.8
		c0,0,0,0.1,0,0.1c0,0.1,0,0.1,0.1,0.1c0.3,0,0.5,0,0.8,0c0.1,0,0.1,0,0.1,0.1c0,0.2,0,0.4,0,0.6c0,0.1,0,0.1-0.1,0.1
		c-0.6,0-1.2,0-1.8,0c-0.1,0-0.1,0-0.1-0.1C17.4,16.9,17.4,16.1,17.4,15.3z"/>
	<path d="M38.5,9.7c0-0.2,0.1-0.4,0.1-0.6c0.1-0.4,0.1-0.8,0.2-1.2c0-0.1,0-0.1,0.1-0.1c0.2,0,0.4,0,0.7,0c0.1,0,0.1,0,0.1,0.1
		c-0.3,1.2-0.5,2.4-0.8,3.6c-0.1,0.5-0.4,0.7-0.9,0.8c-0.1,0-0.2,0-0.4,0c-0.1,0-0.1,0-0.1-0.1c0-0.2,0-0.3,0-0.5
		c0-0.1,0-0.1,0.1-0.1c0.3,0,0.4-0.2,0.4-0.5c0-0.4-0.1-0.7-0.1-1.1c-0.1-0.7-0.3-1.4-0.5-2.1c0-0.1,0-0.1,0.1-0.1
		c0.2,0,0.4,0,0.6,0c0.1,0,0.1,0,0.1,0.1C38.3,8.5,38.4,9,38.5,9.7C38.5,9.6,38.5,9.7,38.5,9.7C38.5,9.7,38.5,9.7,38.5,9.7z"/>
	<path d="M25.2,16.5c0.1-0.7,0.2-1.4,0.3-2.2c0-0.1,0-0.1,0.2-0.1c0.2,0,0.4,0,0.6,0c0.1,0,0.1,0,0.1,0.1c-0.2,1.1-0.4,2.2-0.7,3.4
		c0,0.1,0,0.1-0.2,0.1c-0.2,0-0.5,0-0.7,0c-0.1,0-0.1,0-0.1-0.1c-0.2-1.1-0.5-2.3-0.7-3.4c0-0.1,0-0.1,0.1-0.1c0.2,0,0.5,0,0.7,0
		c0.1,0,0.1,0,0.1,0.1C25,15,25.1,15.7,25.2,16.5C25.2,16.4,25.2,16.5,25.2,16.5z"/>
	<path d="M22.4,15.9c0-0.3,0-0.6,0-0.9c0-0.1,0-0.1-0.1-0.1c-0.2,0-0.2,0-0.2-0.2c0-0.1,0-0.3,0-0.4c0-0.1,0-0.1,0.1-0.1
		c0.2,0,0.2,0,0.2-0.2c0-0.3,0-0.6,0-0.9c0-0.1,0-0.1,0.1-0.1c0.2,0,0.5,0,0.7,0c0.1,0,0.1,0,0.1,0.1c0,0.3,0,0.6,0,0.9
		c0,0.1,0,0.1,0.1,0.1c0.1,0,0.2,0,0.2,0c0.1,0,0.1,0,0.1,0.1c0,0.2,0,0.3,0,0.5c0,0.1,0,0.1-0.1,0.1c-0.1,0-0.2,0-0.3,0
		c-0.1,0-0.1,0-0.1,0.1c0,0.6,0,1.3,0,1.9c0,0.2,0.1,0.3,0.3,0.3c0.1,0,0.1,0,0.2,0c0.1,0,0.1,0,0.1,0.1c0,0.2,0,0.4,0,0.6
		c0,0.1,0,0.1-0.1,0.1c-0.3,0-0.5,0.1-0.8,0c-0.3-0.1-0.5-0.3-0.5-0.6c0-0.2-0.1-0.4-0.1-0.5C22.4,16.4,22.4,16.1,22.4,15.9z"/>
	<path d="M17,9.5c0-0.3,0-0.6,0-0.9c0-0.1,0-0.1-0.1-0.1c-0.2,0-0.2,0-0.2-0.2c0-0.1,0-0.2,0-0.4c0-0.1,0-0.1,0.1-0.1
		c0.2,0,0.2,0,0.2-0.2c0-0.3,0-0.6,0-0.9c0-0.1,0-0.1,0.1-0.1c0.2,0,0.5,0,0.7,0c0.1,0,0.1,0,0.1,0.1c0,0.3,0,0.7,0,1
		c0,0.1,0,0.1,0.1,0.1c0.1,0,0.2,0,0.3,0c0.1,0,0.1,0,0.1,0.1c0,0.2,0,0.3,0,0.5c0,0.1,0,0.1-0.1,0.1c-0.1,0-0.2,0-0.3,0
		c-0.1,0-0.1,0-0.1,0.1c0,0.6,0,1.2,0,1.9c0,0,0,0.1,0,0.1c0,0.1,0.1,0.1,0.2,0.1c0.1,0,0.2,0,0.3,0c0.1,0,0.1,0,0.1,0.1
		c0,0.2,0,0.4,0,0.6c0,0,0,0.1-0.1,0.1c-0.3,0-0.5,0.1-0.8,0c-0.3-0.1-0.4-0.2-0.5-0.5C17,10.7,17,10.5,17,10.3C17,10,17,9.8,17,9.5
		z"/>
	<path d="M14.6,16.3c0-0.5,0-0.9,0-1.4c0-0.1,0-0.1-0.1-0.1c-0.1,0-0.1,0-0.1-0.1c0-0.1,0-0.3,0-0.4c0-0.1,0-0.1,0.1-0.1
		c0.1,0,0.1,0,0.1-0.1c0-0.2,0-0.4,0.1-0.5c0.1-0.3,0.3-0.5,0.7-0.5c0.2,0,0.4,0,0.5,0c0.1,0,0.1,0,0.1,0.1c0,0.2,0,0.4,0,0.5
		c0,0.1,0,0.1-0.1,0.1c-0.1,0-0.1,0-0.2,0c-0.1,0-0.2,0.1-0.2,0.2c0,0.3,0,0.3,0.2,0.3c0.2,0,0.2,0,0.2,0.2c0,0.1,0,0.1,0,0.2
		c0,0.3,0,0.3-0.3,0.3c0,0-0.1,0-0.1,0c-0.1,0-0.1,0-0.1,0.1c0,0,0,0.1,0,0.1c0,0.9,0,1.8,0,2.6c0,0.1,0,0.1-0.1,0.1
		c-0.2,0-0.5,0-0.7,0c-0.1,0-0.1,0-0.1-0.1C14.6,17.2,14.6,16.8,14.6,16.3z"/>
	<path d="M15.9,8.1C15.9,8,15.9,8,16,7.9c0.2-0.2,0.4-0.2,0.6-0.1c0,0,0.1,0,0.1,0.1c0,0.2,0,0.4,0,0.7c0,0.1,0,0.1-0.1,0.1
		c-0.1,0-0.2,0-0.3,0c-0.2,0-0.4,0.1-0.4,0.3c0,0,0,0.1,0,0.1c0,0.7,0,1.5,0,2.2c0,0.1,0,0.1-0.1,0.1c-0.2,0-0.5,0-0.7,0
		c-0.1,0-0.1,0-0.1-0.1c0-1.1,0-2.3,0-3.4c0-0.1,0-0.1,0.1-0.1c0.2,0,0.5,0,0.7,0c0.1,0,0.1,0,0.1,0.1C15.9,8,15.9,8,15.9,8.1z"/>
	<path d="M27.6,16c0,0.6,0,1.1,0,1.7c0,0.1,0,0.1-0.1,0.1c-0.2,0-0.4,0-0.7,0c-0.2,0-0.2,0-0.2-0.2c0-0.9,0-1.8,0-2.6
		c0-0.2,0-0.5,0-0.7c0-0.1,0-0.1,0.1-0.1c0.2,0,0.5,0,0.7,0c0.1,0,0.1,0,0.1,0.1C27.6,14.8,27.6,15.4,27.6,16z"/>
	<path d="M6.8,3.5C6.6,3.4,6.5,3.3,6.4,3.2c-0.1-0.1-0.1-0.1-0.2,0C6.1,3.3,6,3.4,5.9,3.4c0,0,0,0-0.1,0c0-0.2,0.1-0.3,0.1-0.4
		c0-0.1,0-0.1-0.1-0.2C5.7,2.8,5.6,2.7,5.5,2.6c0,0,0,0,0,0c0,0,0,0,0.1,0c0.1,0,0.3,0,0.4,0c0.1,0,0.1,0,0.1-0.1
		c0-0.1,0.1-0.3,0.1-0.4c0,0,0-0.1,0-0.1c0,0,0,0,0,0.1c0,0.1,0.1,0.2,0.1,0.4c0,0.1,0.1,0.1,0.1,0.1c0.1,0,0.3,0,0.4,0
		c0,0,0.1,0,0.1,0c0,0,0,0,0,0C6.9,2.7,6.8,2.8,6.7,2.8C6.6,2.9,6.6,2.9,6.6,3C6.7,3.2,6.7,3.3,6.8,3.5C6.8,3.4,6.8,3.5,6.8,3.5z"/>
	<path d="M2.5,2c0,0.1,0.1,0.3,0.1,0.4c0.1,0.2,0,0.2,0.2,0.2c0.1,0,0.2,0,0.4,0c0,0,0,0,0.1,0c0,0,0,0,0,0C3.2,2.7,3,2.8,2.9,2.9
		c-0.1,0-0.1,0.1,0,0.1C2.9,3.1,3,3.2,3,3.3c0,0,0,0.1,0,0.1c0,0-0.1,0-0.1,0C2.8,3.4,2.7,3.3,2.6,3.2c-0.1-0.1-0.1-0.1-0.2,0
		C2.3,3.3,2.2,3.4,2.1,3.4c0,0,0,0-0.1,0c0-0.1,0-0.2,0.1-0.2c0-0.1,0.1-0.2,0.1-0.3C2.2,2.8,2,2.8,2,2.7c0,0-0.1-0.1-0.1-0.1
		c0,0-0.1,0,0-0.1c0,0,0,0,0.1,0c0.1,0,0.3,0,0.4,0c0.1,0,0.1,0,0.1-0.1C2.4,2.3,2.5,2.2,2.5,2C2.5,2,2.5,2,2.5,2z"/>
	<path d="M27.1,13.9c-0.1,0-0.3,0-0.4,0c-0.1,0-0.1,0-0.1-0.1c0-0.2,0-0.5,0-0.7c0-0.1,0-0.1,0.1-0.1c0.3,0,0.5,0,0.8,0
		c0.1,0,0.1,0,0.1,0.1c0,0.2,0,0.5,0,0.7c0,0.1,0,0.1-0.1,0.1C27.4,13.9,27.2,13.9,27.1,13.9z"/>
	<path d="M5.2,0.8C5.1,0.8,5,0.9,4.8,1C4.7,1.1,4.7,1.1,4.8,1.2c0,0.1,0.1,0.3,0.1,0.4c0,0-0.1,0-0.1,0C4.7,1.5,4.6,1.5,4.5,1.4
		c-0.1,0-0.1,0-0.1,0C4.2,1.5,4.1,1.5,4,1.6c0,0,0,0-0.1,0C3.9,1.5,4,1.4,4,1.3c0,0,0-0.1,0-0.1c0-0.1,0-0.1,0-0.1
		C3.9,1,3.8,0.9,3.6,0.7c0,0,0.1,0,0.1,0c0.1,0,0.3,0,0.4,0c0.1,0,0.1,0,0.1-0.1c0-0.1,0.1-0.3,0.1-0.4c0,0,0-0.1,0-0.1
		c0,0.1,0.1,0.1,0.1,0.2c0,0.1,0.1,0.2,0.1,0.3c0,0.1,0,0.1,0.1,0.1C4.8,0.7,5,0.7,5.2,0.8C5.2,0.7,5.2,0.7,5.2,0.8z"/>
</g>
</svg>
